<svg width="774" height="906" viewBox="0 0 774 906" fill="none" xmlns="http://www.w3.org/2000/svg">
<mask id="mask0_2283_1253" style="mask-type:alpha" maskUnits="userSpaceOnUse" x="0" y="0" width="774" height="906">
<g clip-path="url(#clip0_2283_1253)">
<path d="M648.132 710.692C647.135 710.105 646.137 709.519 643.984 710.449C642.706 708.966 641.849 708.828 639.556 709.31C636.983 708.895 634.988 707.722 631.697 707.618C630.559 706.583 628.267 707.065 626.551 706.789C625.554 706.202 623.838 705.926 622.123 705.649C619.55 705.235 616.977 704.82 614.544 704.854C614.404 704.406 614.404 704.406 613.687 704.716C613.547 704.268 612.829 704.578 612.829 704.578L612.689 704.129C613.266 703.371 613.266 703.371 613.844 702.613C615.279 701.993 616.854 701.821 618.289 701.201C621.719 701.754 625.167 699.756 628.614 697.757C631.484 696.517 634.197 697.38 636.647 694.795C637.365 694.485 637.942 693.727 637.802 693.279C637.662 692.831 637.522 692.383 637.382 691.934C638.833 688.763 638.833 688.763 633.25 689.141C633.11 688.692 632.393 689.002 631.675 689.313C630.537 688.278 628.245 688.76 627.247 688.173C626.529 688.483 625.672 688.345 625.532 687.897C623.676 687.172 621.821 686.448 618.811 687.24C615.38 686.687 611.949 686.134 608.519 685.581C606.663 684.857 604.948 684.58 603.093 683.856C602.953 683.408 602.095 683.269 600.52 683.441C600.52 683.441 600.66 683.889 599.942 684.199C599.942 684.199 600.66 683.889 600.52 683.441C598.664 682.717 596.092 682.302 592.801 682.197C586.237 679.437 577.941 678.952 571.377 676.192C571.237 675.743 570.519 676.053 570.379 675.605C569.522 675.467 569.662 675.915 568.944 676.225C569.662 675.915 569.662 675.915 570.379 675.605C568.664 675.329 566.091 674.914 563.658 674.948C563.518 674.5 563.518 674.5 562.801 674.81C562.66 674.362 562.38 673.465 562.24 673.017C565.968 671.915 567.386 673.846 570.536 673.502C572.111 673.331 572.969 673.469 574.544 673.297C578.832 673.988 583.121 674.679 587.549 675.818C589.404 676.543 591.977 676.957 594.41 676.924C595.268 677.062 596.125 677.2 596.265 677.648C597.403 678.683 599.119 678.959 601.131 677.581C603.143 676.203 599.853 676.098 601.865 674.72C603.003 675.755 605.156 674.825 606.591 674.205C606.731 674.653 607.011 675.549 607.151 675.997C607.869 675.687 607.869 675.687 608.586 675.377C609.304 675.067 609.304 675.067 610.162 675.205C610.162 675.205 610.302 675.654 611.019 675.344C611.159 675.792 611.877 675.482 612.454 674.724C613.032 673.965 613.032 673.965 613.889 674.104L614.029 674.552C614.169 675 614.169 675 614.31 675.448C614.59 676.345 614.87 677.241 615.15 678.137C615.431 679.034 615.571 679.482 616.288 679.172C617.006 678.862 619.018 677.484 618.441 678.242C616.989 681.413 619.141 680.483 621.574 680.449C620.997 681.208 621.137 681.656 621.854 681.346C622.992 682.38 624.427 681.76 624.725 680.106C625.022 678.451 623.884 677.417 622.028 676.692C624.338 673.659 622.045 674.141 619.753 674.623C619.192 672.83 616.322 674.07 615.762 672.277C615.621 671.829 615.621 671.829 615.481 671.381C614.624 671.243 614.624 671.243 614.046 672.001C611.754 672.483 610.038 672.206 607.746 672.688C608.9 671.172 610.055 669.655 607.045 670.447C605.47 670.619 604.035 671.239 602.6 671.859C600.464 670.238 595.021 671.063 596.193 666.996C596.91 666.686 597.488 665.928 597.348 665.48C599.92 665.894 602.634 666.757 605.924 666.862C607.062 667.896 608.497 667.276 610.79 666.794C610.649 666.346 610.649 666.346 610.509 665.898C610.649 666.346 609.932 666.656 610.79 666.794C611.21 668.139 612.925 668.415 614.5 668.243C615.218 667.933 615.358 668.382 616.076 668.072C617.213 669.106 618.929 669.383 621.362 669.349C621.362 669.349 622.219 669.487 622.937 669.177C625.65 670.04 628.363 670.903 631.793 671.455C633.509 671.732 635.224 672.008 636.939 672.285C637.517 671.526 637.517 671.526 638.374 671.665C638.514 672.113 639.232 671.803 639.372 672.251C640.23 672.389 640.23 672.389 641.087 672.527C643.52 672.494 643.363 674.597 646.233 673.357C648.666 673.323 650.084 675.254 653.672 673.704C652.971 671.463 650.538 671.496 648.105 671.53C646.39 671.254 645.392 670.667 645.112 669.771C645.83 669.461 645.83 669.461 646.547 669.151C647.265 668.841 647.265 668.841 648.122 668.979C650.835 669.842 654.703 669.188 657.556 670.499C658.414 670.637 659.131 670.327 659.989 670.466C660.129 670.914 660.129 670.914 660.269 671.362C658.834 671.982 657.259 672.154 656.822 673.36C656.822 673.36 656.962 673.808 657.102 674.257C658.677 674.085 660.112 673.465 660.55 672.258C661.844 671.19 663.139 670.122 664.294 668.606C664.294 668.606 664.294 668.606 664.154 668.157C664.154 668.157 664.014 667.709 663.296 668.019C662.579 668.329 662.579 668.329 661.861 668.639C661.721 668.191 661.721 668.191 661.581 667.743C661.441 667.295 661.441 667.295 661.301 666.846C662.018 666.536 662.736 666.226 663.453 665.916C664.311 666.055 665.029 665.745 666.604 665.573C667.602 666.159 668.459 666.297 670.034 666.125C670.174 666.574 670.892 666.264 671.75 666.402C671.75 666.402 672.607 666.54 672.747 666.988C672.887 667.436 673.605 667.126 673.745 667.575C675.32 667.403 675.46 667.851 676.318 667.989C677.893 667.817 679.608 668.094 679.889 668.99C680.029 669.438 679.311 669.748 678.734 670.507C676.862 672.333 678.577 672.609 679.575 673.196C678.857 673.506 677.422 674.126 676.705 674.436C674.849 673.711 672.837 675.089 670.684 676.02C671.402 675.709 672.259 675.848 672.977 675.538C673.257 676.434 674.115 676.572 674.972 676.71C676.828 677.435 679.121 676.953 680.836 677.23C681.834 677.816 683.269 677.196 683.986 676.886C684.984 677.472 685.701 677.162 686.279 676.404C686.856 675.646 685.999 675.508 685.141 675.37C686.296 673.853 686.015 672.957 687.17 671.44L687.888 671.13C688.028 671.579 687.888 671.13 687.17 671.44C686.89 670.544 686.75 670.096 685.892 669.958C684.457 670.578 685.035 669.819 685.612 669.061C685.472 668.613 685.472 668.613 685.332 668.165C686.049 667.855 686.049 667.855 686.907 667.993C687.905 668.579 689.48 668.408 691.632 667.477C693.348 667.754 695.343 668.927 697.636 668.445C698.213 667.687 698.073 667.238 697.215 667.1C697.075 666.652 697.075 666.652 696.935 666.204C696.078 666.066 695.08 665.479 693.645 666.099C692.367 664.616 690.511 663.892 687.064 665.89C686.784 664.994 686.643 664.546 685.068 664.717C683.93 663.683 682.215 663.406 679.922 663.888C679.065 663.75 679.065 663.75 678.487 664.508C678.487 664.508 677.91 665.266 677.333 666.025C677.193 665.576 676.335 665.438 675.617 665.748C675.477 665.3 675.477 665.3 675.337 664.852C674.917 663.507 675.214 661.853 672.344 663.093C669.351 661.333 664.625 661.849 660.337 661.158C659.059 659.675 657.344 659.399 654.911 659.432C653.195 659.156 651.901 660.224 650.325 660.396C646.458 661.05 646.474 658.499 644.619 657.774C642.467 658.704 641.329 657.67 639.613 657.393C635.762 655.496 630.897 655.563 625.891 655.182C625.471 653.838 624.333 652.803 622.04 653.285L622.618 652.527C619.764 651.216 615.897 651.869 613.761 650.248C613.621 649.8 612.903 650.11 612.186 650.42C611.468 650.73 611.328 650.282 610.611 650.592C608.615 649.419 605.902 648.556 602.034 649.21C600.039 648.037 597.606 648.071 594.893 647.208C594.175 647.518 594.035 647.07 593.318 647.38C592.46 647.242 592.46 647.242 591.602 647.103C591.462 646.655 591.462 646.655 591.322 646.207C591.182 645.759 590.324 645.621 589.607 645.931C591.199 643.208 592.617 645.139 594.192 644.967C594.192 644.967 594.052 644.519 594.77 644.209L594.192 644.967C595.05 645.105 595.907 645.243 597.062 643.727C598.357 642.659 598.637 643.555 600.072 642.935C600.633 644.728 601.631 645.314 603.363 643.04L604.08 642.73L604.798 642.42L605.375 641.661C605.375 641.661 604.658 641.971 604.798 642.42C607.511 643.282 608.352 645.972 613.655 644.698C614.792 645.733 616.648 646.457 619.658 645.665C621.794 647.286 623.072 648.769 626.799 647.667C627.517 647.357 628.375 647.495 628.515 647.944C628.655 648.392 628.655 648.392 629.372 648.082C629.793 649.426 630.79 650.013 632.366 649.841C634.939 650.256 637.949 649.464 640.662 650.327C643.952 650.431 647.383 650.984 650.813 651.537C652.529 651.813 651.514 653.778 653.807 653.296C656.957 652.952 659.81 654.263 663.678 653.61C665.253 653.438 665.393 653.886 664.956 655.092C665.954 655.679 667.529 655.507 668.964 654.887C671.257 654.405 673.112 655.13 674.967 655.854C677.383 658.372 681.531 658.614 686.257 658.099C686.397 658.547 686.397 658.547 686.537 658.995C688.112 658.824 688.97 658.962 689.968 659.548C692.541 659.963 694.973 659.929 698.264 660.034C700.119 660.758 702.552 660.725 706.14 659.175C705.282 659.036 705.002 658.14 704.144 658.002C703.864 657.105 704.021 655.003 700.713 657.449C700.433 656.553 700.153 655.656 698.141 657.034C696.706 657.654 695.848 657.516 695.568 656.62C696.285 656.31 696.285 656.31 697.003 656C697.58 655.242 697.58 655.242 696.722 655.103C695.865 654.965 695.007 654.827 693.432 654.999C692.714 655.309 691.42 656.377 690.702 656.687C689.284 654.756 685.853 654.203 685.87 651.652C686.588 651.342 686.728 651.791 687.445 651.48C688.163 651.17 688.303 651.619 688.303 651.619C689.301 652.205 690.158 652.343 690.876 652.033C691.734 652.171 691.734 652.171 692.591 652.31C693.589 652.896 694.447 653.034 696.022 652.862C697.02 653.449 697.877 653.587 699.452 653.415C700.17 653.105 700.17 653.105 700.887 652.795C701.745 652.933 702.463 652.623 701.168 653.692C702.165 654.278 704.458 653.796 706.033 653.624C706.611 652.866 706.611 652.866 707.468 653.004C707.468 653.004 708.326 653.143 709.184 653.281C710.041 653.419 711.616 653.247 712.614 653.833C713.472 653.972 714.907 653.352 716.045 654.386C717.76 654.663 719.335 654.491 722.345 653.699C722.906 655.492 725.198 655.01 727.491 654.528C727.491 654.528 728.926 653.908 729.784 654.046C730.641 654.184 730.501 653.736 731.219 653.426C733.091 651.6 736.225 653.807 736.959 650.946C737.116 648.843 733.966 649.187 731.673 649.669C725.81 649.15 719.806 648.182 714.083 648.111C713.225 647.973 712.508 648.283 712.368 647.835C709.234 645.628 703.214 647.211 699.643 646.21C699.503 645.762 699.503 645.762 699.503 645.762C698.645 645.624 698.365 644.728 697.507 644.589C696.65 644.451 694.935 644.175 694.077 644.037C692.378 641.209 693.673 640.141 686.358 642.793C684.783 642.965 683.645 641.93 682.647 641.344C681.79 641.206 680.215 641.377 679.217 640.791C676.504 639.928 674.508 638.755 671.795 637.893C671.515 636.996 676.1 636.033 672.67 635.48C669.379 635.375 667.227 636.305 664.497 637.994C662.501 636.821 658.774 637.923 657.355 635.992C657.933 635.233 658.65 634.923 658.65 634.923C660.225 634.752 660.943 634.442 661.52 633.683C661.958 632.477 660.242 632.201 660.242 632.201C655.22 634.371 654.099 630.785 649.653 632.197C647.361 632.679 647.221 632.23 647.064 634.333C647.204 634.781 647.204 634.781 647.344 635.23C646.626 635.54 645.191 636.16 644.474 636.47C644.053 635.125 643.773 634.229 643.353 632.884C643.37 630.333 643.37 630.333 641.935 630.953C639.922 632.331 638.347 632.503 638.504 630.4C640.096 627.678 637.663 627.711 635.948 627.435C635.808 626.987 635.668 626.538 635.388 625.642C634.967 624.297 634.687 623.401 634.267 622.056C635.421 620.54 635.719 618.885 631.991 619.987C631.273 620.297 630.993 619.401 630.853 618.953C629.138 618.676 627.422 618.4 625.707 618.123C624.709 617.537 623.134 617.709 622.277 617.571L622.136 617.122C624.009 615.296 625.724 615.572 627.877 614.642C630.59 615.505 634.597 615.3 636.733 616.921C637.154 618.265 636.856 619.92 639.289 619.886C640.444 618.37 641.879 617.75 643.594 618.026C643.454 617.578 644.312 617.716 645.169 617.854C643.875 618.923 644.015 619.371 644.872 619.509C645.73 619.647 646.307 618.889 646.885 618.131L647.602 617.821L648.32 617.511C649.037 617.201 649.177 617.649 650.035 617.787C651.47 617.167 653.045 616.995 654.48 616.375C654.62 616.824 655.478 616.962 656.336 617.1C656.196 616.652 656.913 616.342 656.773 615.894C656.773 615.894 656.196 616.652 656.336 617.1C657.333 617.686 659.049 617.963 660.764 618.239C661.341 617.481 662.199 617.619 662.339 618.067C667.345 618.448 673.068 618.519 678.651 618.142C683.36 620.177 689.223 620.697 694.806 620.319C699.672 620.252 702.665 622.011 706.673 621.806C707.25 621.048 707.11 620.599 706.253 620.461C703.4 619.15 699.829 618.149 696.976 616.838C692.407 615.251 687.839 613.664 682.693 612.834C681.835 612.696 681.555 611.8 680.697 611.662C681.415 611.352 681.415 611.352 682.132 611.042C684.582 608.457 681.712 609.697 680.137 609.869C679.279 609.731 678.281 609.144 678.141 608.696C677.003 607.662 675.725 606.179 672.995 607.867C672.278 608.177 672.278 608.177 672.418 608.625L673.136 608.315C672.995 607.867 672.278 608.177 672.138 607.729C671.577 605.936 669.722 605.211 668.007 604.935C665.294 604.072 662.721 603.658 660.148 603.243C659.727 601.898 659.447 601.002 657.732 600.726C657.452 599.829 656.454 599.243 654.879 599.415C654.739 598.967 654.021 599.277 653.881 598.828C651.745 597.207 650.467 595.725 646.459 595.93C642.905 592.378 639.492 589.274 634.066 587.549C633.208 587.411 632.928 586.514 632.07 586.376C631.229 583.687 627.081 583.444 625.523 581.065C622.39 578.857 618.399 576.512 615.125 573.856C614.985 573.408 614.985 573.408 614.845 572.96C615.859 570.995 614.284 571.167 612.569 570.891C612.429 570.443 612.429 570.442 611.571 570.304C612.008 569.098 611.728 568.202 610.73 567.615C610.187 563.271 606.913 560.616 602.922 558.27C600.646 556.201 600.96 551.995 595.815 551.166C595.674 550.718 595.674 550.718 595.534 550.27L595.394 549.822C595.254 549.373 595.114 548.925 594.396 549.235C594.396 549.235 594.396 549.235 594.256 548.787C593.679 549.545 594.537 549.683 595.394 549.822C596.689 548.753 598.124 548.133 599.699 547.962C600.68 551.099 605.983 549.825 608.836 551.136C611.987 550.793 613.265 552.275 616.555 552.38C620.406 554.277 624.974 555.865 630.698 555.936C628.999 553.108 624.711 552.417 621 550.968C619.145 550.244 618.724 548.899 615.574 549.243C613.438 547.622 610.585 546.311 607.872 545.448C607.155 545.758 606.297 545.62 606.017 544.723C605.019 544.137 604.739 543.241 605.176 542.034C607.188 540.656 609.778 538.519 612.351 538.934C612.772 540.279 613.629 540.417 615.782 539.487C614.924 539.349 614.644 538.452 613.786 538.314C612.071 538.038 611.073 537.451 609.358 537.175C607.643 536.899 607.362 536.002 607.8 534.796C606.084 534.519 607.239 533.003 605.524 532.727C604.666 532.588 603.668 532.002 602.951 532.312C602.951 532.312 602.233 532.622 602.373 533.07C602.373 533.07 602.373 533.07 602.233 532.622L602.951 532.312C601.236 532.036 601.673 530.829 600.675 530.243C599.257 528.312 599.134 525.313 595.126 525.518C594.268 525.38 593.988 524.483 593.13 524.345C591.415 524.069 591.852 522.862 590.854 522.276C591.292 521.07 590.294 520.483 591.449 518.967C591.589 519.415 591.589 519.415 591.729 519.863C592.587 520.001 593.304 519.691 593.444 520.14C593.444 520.14 593.584 520.588 594.302 520.278L595.019 519.968C594.896 516.969 591.606 516.864 589.61 515.691C587.615 514.518 586.914 512.277 583.764 512.621C583.624 512.173 583.483 511.725 583.343 511.277C583.063 510.38 583.64 509.622 584.218 508.864C586.37 507.934 588.943 508.348 590.956 506.97C592.531 506.798 593.826 505.73 595.121 504.662C593.686 505.282 592.251 505.902 590.816 506.522C593.389 506.936 596.556 504.042 598.551 505.215C598.691 505.663 599.409 505.353 599.549 505.801C600.267 505.491 600.407 505.939 601.124 505.629C602.262 506.664 603.697 506.044 605.272 505.872C605.99 505.562 606.567 504.804 606.847 505.7C607.565 505.39 608.423 505.528 609.998 505.356C613.865 504.703 615.861 505.876 618.574 506.738C618.277 508.393 620.71 508.359 621.848 509.394C621.988 509.842 622.705 509.532 623.423 509.222C624.14 508.912 624 508.464 623.86 508.016C622.722 506.981 622.162 505.188 619.729 505.222C617.873 504.497 617.313 502.705 615.598 502.428C617.33 500.154 620.48 499.81 620.637 497.707C623.35 498.57 625.486 500.191 628.199 501.054C628.339 501.502 629.057 501.192 629.197 501.64C629.337 502.088 629.477 502.536 629.757 503.433C630.037 504.329 631.613 504.157 633.188 503.986C636.338 503.642 638.334 504.815 641.484 504.471C639.505 500.747 634.219 499.47 630.946 496.814C629.808 495.78 627.375 495.813 629.825 493.229C630.682 493.367 631.54 493.505 631.54 493.505C632.398 493.643 632.538 494.092 633.395 494.23L633.973 493.472C633.973 493.472 633.973 493.472 633.395 494.23C634.533 495.264 636.529 496.437 639.102 496.852C640.083 499.989 644.091 499.784 646.944 501.095C649.36 503.612 652.93 504.613 656.641 506.062C657.936 504.994 658.513 504.236 658.951 503.029C658.093 502.891 657.235 502.753 657.235 502.753C654.96 500.684 649.954 500.303 648.973 497.165C648.553 495.821 646.12 495.854 646.994 493.442C650.862 492.788 651.703 495.477 654.993 495.582C655.274 496.478 656.271 497.065 657.269 497.651C659.545 499.72 661.103 502.099 666.546 501.274C668.979 501.24 670.117 502.275 671.395 503.758C672.533 504.792 673.531 505.379 675.246 505.655C678.082 509.517 684.96 508.072 688.234 510.727C686.238 509.554 689.265 506.211 686.552 505.349C683.979 504.934 682.701 503.451 678.396 505.311C678.256 504.863 677.976 503.967 677.836 503.519C681.143 501.072 677.993 501.416 676.995 500.829C676.855 500.381 676.855 500.381 676.715 499.933C676.715 499.933 676.715 499.933 676.575 499.485C676.575 499.485 676.434 499.037 675.717 499.347C673.721 498.174 670.868 496.863 668.155 496C666.877 494.517 664.882 493.344 663.604 491.862C661.888 491.585 662.045 489.482 659.612 489.516C657.617 488.343 655.044 487.929 655.201 485.826C654.641 484.033 652.925 483.757 651.21 483.48C651.07 483.032 650.79 482.136 650.649 481.688C650.509 481.239 650.509 481.239 650.369 480.791C651.087 480.481 651.087 480.481 651.804 480.171C654.254 477.587 656.967 478.449 659.26 477.968C662.27 477.176 662.847 476.417 662.287 474.625C661.586 472.384 659.153 472.417 656.44 471.555C649.596 467.898 640.302 466.826 636.048 461.033C635.908 460.585 634.332 460.757 634.192 460.309C632.337 459.584 630.481 458.859 630.061 457.515C628.783 456.032 626.787 454.859 624.074 453.996C623.934 453.548 623.217 453.858 623.077 453.41C622.937 452.962 622.796 452.514 622.079 452.824C621.799 451.927 620.941 451.789 620.083 451.651C620.24 449.548 618.105 447.927 618.262 445.824C618.138 442.825 614.131 443.03 611.995 441.409C610.857 440.375 609.579 438.892 610.594 436.928C611.171 436.169 611.889 435.859 611.748 435.411C616.771 433.241 613.918 431.93 613.497 430.585C616.087 428.449 617.505 430.38 619.798 429.898C622.091 429.416 622.808 429.106 622.388 427.762C624.821 427.728 626.536 428.005 628.969 427.971C628.408 426.178 626.553 425.454 624.838 425.177C619.552 423.9 614.125 422.174 610.712 419.07C604.288 416.759 598.862 415.033 597.18 409.655C596.9 408.758 595.465 409.378 594.03 409.998C593.312 410.308 593.312 410.308 592.595 410.618C588.604 408.273 584.753 406.375 582.774 402.652C583.492 402.342 585.207 402.618 584.927 401.722C585.364 400.515 584.506 400.377 582.931 400.549C582.791 400.101 582.791 400.101 582.651 399.652C579.955 396.239 576.401 392.687 572.27 389.893C571.412 389.755 571.412 389.755 570.555 389.616C567.124 389.064 566.143 385.926 563.867 383.857C563.727 383.409 562.87 383.271 562.589 382.374C561.732 382.236 560.734 381.65 560.594 381.202C560.454 380.753 560.454 380.753 559.596 380.615C558.738 380.477 558.458 379.581 558.178 378.684L558.038 378.236C555.745 378.718 556.76 376.753 555.044 376.477C552.909 374.856 553.643 371.995 551.508 370.374C550.51 369.787 550.23 368.891 549.232 368.305C549.232 368.305 549.232 368.305 549.092 367.856L548.952 367.408C547.954 366.822 547.673 365.925 546.098 366.097C542.948 366.441 543.245 364.786 542.685 362.993C544.12 362.373 545.555 361.753 546.709 360.237L547.427 359.927C548.565 360.962 549.563 361.548 550.998 360.928C556.301 359.654 558.436 361.275 559.994 363.654C560.275 364.551 561.273 365.137 562.13 365.275C562.691 367.068 563.829 368.103 565.684 368.827C565.964 369.724 566.962 370.31 567.96 370.897C569.955 372.069 570.656 374.31 572.511 375.035C576.626 380.38 582.035 384.656 586.586 388.795C590 391.898 593.414 395.002 598.122 397.038C599.4 398.521 600.538 399.555 602.971 399.522C604.423 396.351 601.413 397.142 599.557 396.418C599.277 395.521 598.997 394.625 598.717 393.729C599.434 393.419 600.012 392.66 600.012 392.66C600.729 392.35 601.009 393.247 601.867 393.385C603.005 394.42 604.86 395.144 606.576 395.42C607.433 395.559 608.291 395.697 609.586 394.629C610.881 393.56 609.883 392.974 609.025 392.836C607.17 392.111 604.597 391.697 602.741 390.972C602.181 389.179 598.891 389.075 598.19 386.834C597.629 385.041 599.782 384.111 601.934 383.181C605.225 383.285 605.208 385.836 607.781 386.251C612.91 389.631 617.899 392.563 625.04 394.565L625.18 395.013C625.32 395.462 626.895 395.29 628.471 395.118C628.471 395.118 628.471 395.118 628.331 394.67L628.19 394.221C627.647 389.878 622.501 389.049 617.932 387.461C617.652 386.565 617.232 385.22 615.657 385.392C615.236 384.047 613.381 383.323 611.526 382.598C608.672 381.287 606.256 378.77 606.133 375.771C608.706 376.185 609.3 372.876 611.593 372.394C611.296 374.049 611.576 374.945 611.279 376.6C610.702 377.358 610.842 377.806 611.84 378.393C611.84 378.393 611.98 378.841 612.12 379.289C612.837 378.979 612.977 379.427 613.835 379.565C614.973 380.6 617.546 381.015 619.401 381.739C625.371 387.808 632.496 392.361 642.787 394.02C642.227 392.227 641.089 391.192 640.528 389.4C640.108 388.055 637.395 387.192 634.822 386.778C628.678 385.362 626.7 381.638 625.439 377.604C627.591 376.674 628.869 378.157 630.024 376.641C631.896 374.814 629.323 374.4 629.043 373.503C628.903 373.055 628.903 373.055 628.763 372.607C630.338 372.435 631.196 372.573 632.053 372.712C634.766 373.574 636.762 374.747 639.475 375.61C641.47 376.783 644.183 377.645 648.909 377.13C646.493 374.613 644.935 372.233 642.362 371.819C637.356 371.438 634.363 369.679 632.087 367.61C632.664 366.851 633.102 365.645 633.819 365.335C638.561 362.269 638.578 359.718 637.02 357.338C637.457 356.132 637.895 354.926 636.319 355.097C634.604 354.821 634.324 353.925 634.621 352.27C636.774 351.34 638.646 349.514 635.215 348.961C635.075 348.513 634.935 348.064 634.077 347.926C635.232 346.41 633.657 346.582 632.082 346.753C631.942 346.305 631.942 346.305 631.084 346.167C630.944 345.719 630.226 346.029 630.804 345.271C633.674 344.031 636.107 343.997 638.82 344.86C640.535 345.136 642.25 345.412 644.123 343.586C645.995 341.76 644.857 340.725 643.142 340.449C642.284 340.31 642.144 339.862 641.286 339.724C643.439 338.794 646.169 337.106 648.742 337.52C654.465 337.591 659.033 339.179 664.179 340.008C666.612 339.974 668.467 340.699 670.059 337.976C671.074 336.011 671.808 333.15 669.376 333.184C663.793 333.561 662.952 330.872 660.676 328.803C657.823 327.492 654.392 326.939 651.539 325.628C648.966 325.214 646.971 324.041 645.553 322.11C640.704 319.626 635.855 317.142 630.149 314.52C625.16 311.588 619.454 308.966 615.76 304.966C614.622 303.932 613.624 303.345 611.769 302.621C611.769 302.621 612.486 302.311 612.346 301.862C612.206 301.414 612.206 301.414 611.488 301.724C610.07 299.793 608.075 298.621 605.221 297.31C604.381 294.62 603.54 291.931 602.699 289.242C605.586 285.451 605.586 285.451 601.018 283.864C600.16 283.725 600.16 283.725 599.302 283.587C599.162 283.139 599.162 283.139 599.162 283.139C596.449 282.276 595.031 280.345 591.741 280.241C590.025 279.964 589.605 278.62 589.185 277.275C589.185 277.275 589.902 276.965 589.762 276.517C589.762 276.517 589.622 276.069 588.904 276.379C589.044 276.827 588.904 276.379 588.047 276.24C587.907 275.792 587.766 275.344 587.486 274.448C591.074 272.898 591.197 275.897 594.347 275.553C602.329 280.244 608.613 282.108 612.481 281.454C613.356 279.042 609.488 279.695 609.785 278.041C611.22 277.421 613.075 278.145 614.23 276.629C615.385 275.112 615.105 274.216 614.107 273.63C613.249 273.491 613.686 272.285 612.829 272.147C608.4 271.008 605.985 268.49 602.991 266.731C596.724 262.316 588.585 259.728 584.908 253.177C584.628 252.28 583.053 252.452 581.478 252.624C579.919 250.245 576.926 248.486 576.085 245.797C574.107 242.073 569.975 239.279 566.702 236.623C561.433 232.795 557.459 227.898 552.19 224.07C551.192 223.484 550.912 222.587 550.631 221.691C549.51 218.105 546.237 215.45 543.243 213.691C538.395 211.207 536.713 205.828 528.557 205.791C528.557 205.791 527.7 205.653 527.559 205.205C527.296 201.757 523.725 200.756 521.45 198.687C518.894 195.722 516.337 192.756 509.319 193.753C508.462 193.615 508.462 193.615 507.604 193.477C507.901 191.822 505.328 191.408 505.906 190.65C507.358 187.479 505.642 187.202 502.492 187.546C499.342 187.889 501.511 184.408 499.078 184.442C496.646 184.476 493.635 185.267 491.64 184.095C491.5 183.646 491.219 182.75 491.079 182.302C490.799 181.405 489.801 180.819 488.803 180.233C488.663 179.785 488.663 179.784 488.523 179.336C489.818 178.268 488.82 177.682 488.103 177.992C485.95 178.922 484.953 178.335 484.095 178.197C483.097 177.611 482.677 176.266 481.819 176.128C476.393 174.402 471.544 171.919 468.131 168.815C465.995 167.194 463.282 166.331 459.991 166.227C456.701 166.122 453.271 165.569 453.428 163.466C453.444 160.915 451.729 160.639 448.439 160.534C445.288 160.878 441.858 160.325 440.002 159.601C438.007 158.428 435.574 158.462 432.861 157.599C432.02 154.91 429.027 153.15 426.034 151.391C424.178 150.667 421.168 151.459 419.89 149.976C415.479 146.286 406.465 146.11 400.759 143.488C397.905 142.177 393.617 141.486 390.047 140.485C385.338 138.45 379.912 136.724 374.766 135.895C365.472 134.823 357.91 131.477 348.616 130.405C340.758 128.713 333.616 126.711 325.32 126.225C320.892 125.086 317.478 121.982 309.866 126.289C310.426 128.082 311.564 129.116 311.844 130.013C311.984 130.461 311.984 130.461 312.124 130.909C309.972 131.839 307.819 132.769 308.38 134.562C308.94 136.355 308.783 138.457 307.051 140.732C307.769 140.422 309.204 139.802 309.921 139.492C309.064 139.354 307.629 139.974 307.051 140.732C303.918 138.525 303.918 138.525 298.475 139.35C295.622 138.039 292.051 137.038 289.775 134.969C285.784 132.623 277.768 133.034 279.674 126.106C280.112 124.899 274.388 124.829 272.953 125.449C270.941 126.827 271.939 127.413 272.359 128.758C270.347 130.136 272.342 131.309 270.33 132.687C269.612 132.997 269.612 132.997 268.895 133.307C267.6 134.375 266.305 135.443 266.725 136.788C266.989 140.235 266.535 143.993 268.233 146.82C269.791 149.199 264.331 152.576 265.89 154.955C266.17 155.851 263.877 156.333 262.442 156.953C259.712 158.642 257.122 160.778 259.118 161.951C261.534 164.468 261.22 168.674 263.636 171.191C264.493 171.329 264.774 172.226 265.631 172.364C266.052 173.708 266.332 174.605 266.752 175.949C266.018 178.81 266.859 181.5 268.994 183.121C268.277 183.431 267.84 184.637 266.124 184.361C265.127 183.774 264.269 183.636 262.694 183.808C261.836 183.67 261.259 184.428 260.541 184.738C261.259 184.428 261.976 184.118 262.694 183.808C260.978 183.532 260.121 183.393 258.406 183.117C257.548 182.979 256.113 183.599 255.535 184.357C254.661 186.77 251.354 189.216 252.772 191.147C253.192 192.492 253.613 193.836 253.456 195.939C252.878 196.697 252.301 197.456 251.723 198.214C251.847 201.213 251.83 203.764 248.663 206.659C247.508 208.175 247.928 209.52 248.926 210.106C250.064 211.141 252.059 212.313 252.48 213.658C254.318 216.934 257.889 217.935 262.177 218.626C263.175 219.212 264.033 219.35 265.608 219.178C269.616 218.973 268.461 220.489 266.729 222.764C262.844 225.969 262.984 226.417 258.276 224.381C255.142 222.174 250.277 222.241 247.861 219.724C247.861 219.724 247.003 219.586 246.285 219.896C245.725 218.103 243.572 219.033 241.42 219.963C240.422 219.376 239.424 218.79 237.849 218.962C235.854 217.789 234.436 215.858 230.428 216.063C229.57 215.925 228.852 216.235 227.995 216.097C228.852 216.235 228.993 216.684 230.428 216.063C229.307 212.478 225.018 211.787 222.025 210.028C217.86 212.336 214.693 215.231 213.381 218.85C213.521 219.298 213.801 220.194 213.942 220.643C215.377 220.023 216.672 218.954 217.249 218.196C217.966 217.886 217.966 217.886 217.966 217.886C216.531 218.506 215.096 219.126 213.942 220.643C213.364 221.401 213.364 221.401 212.787 222.159C212.209 222.917 212.209 222.917 211.632 223.675C206.452 227.948 206.452 227.948 209.866 231.052C210.006 231.5 210.864 231.638 211.004 232.087C211.284 232.983 212.282 233.57 213.28 234.156C214.575 233.088 213.157 231.157 216.027 229.917C216.027 229.917 216.027 229.917 216.744 229.607C215.589 231.123 213.577 232.501 213.997 233.846C215.275 235.329 216.553 236.811 218.986 236.778C220.124 237.812 221.402 239.295 223.117 239.572C224.395 241.054 224.379 243.605 226.374 244.778C227.232 244.916 226.794 246.123 226.357 247.329C223.47 251.12 226.183 251.983 229.614 252.536C231.329 252.812 232.327 253.399 232.747 254.743C233.028 255.64 233.308 256.536 234.306 257.122L233.728 257.881C232.153 258.052 230.578 258.224 229.003 258.396C228.863 257.948 228.442 256.603 227.007 257.223C225.572 257.843 226.57 258.43 227.568 259.016C230.701 261.223 233.117 263.741 236.391 266.396C236.11 265.5 235.97 265.052 235.69 264.155C235.97 265.052 235.393 265.81 236.391 266.396C238.823 266.363 241.974 266.019 241.677 267.674C241.222 271.431 246.088 271.364 247.646 273.743C247.209 274.949 241.469 277.429 245.757 278.12C245.757 278.12 246.755 278.707 246.037 279.017C242.573 283.566 247.876 282.292 249.871 283.465C250.869 284.052 253.442 284.466 255.314 282.64C255.454 283.088 255.454 283.088 255.595 283.536C256.312 283.226 256.592 284.123 257.45 284.261C258.308 284.399 259.165 284.537 260.6 283.917C260.6 283.917 260.6 283.917 261.458 284.055C261.458 284.055 261.458 284.055 261.318 283.607C261.458 284.055 261.458 284.055 261.598 284.503C262.596 285.09 263.594 285.676 264.591 286.263C265.152 288.055 269.16 287.85 269.003 289.953C268.425 290.711 268.425 290.711 268.285 290.263C264.417 290.916 260.987 290.364 256.839 290.121C255.981 289.983 255.981 289.983 255.124 289.845C254.406 290.155 253.548 290.016 253.408 289.568C251.413 288.395 249.557 287.671 246.11 289.669C243.677 289.703 241.822 288.978 239.966 288.254C239.109 288.115 239.109 288.115 238.251 287.977C235.975 285.908 230.97 285.527 228.694 283.458C227.416 281.975 226.138 280.492 224.72 278.561C220.117 282.076 223.111 283.835 222.954 285.938C221.939 287.902 224.075 289.523 221.485 291.66C223.48 292.833 223.463 295.384 224.882 297.315C223.727 298.831 223.867 299.279 225.582 299.556C223.85 301.83 225.128 303.313 225.549 304.658C223.536 306.036 223.956 307.38 223.519 308.587C221.507 309.965 220.492 311.93 217.919 311.515C217.639 310.619 217.359 309.722 215.643 309.446C215.503 308.998 215.503 308.998 215.363 308.55C213.087 306.48 211.389 303.653 205.946 304.478C203.967 300.755 200.974 298.995 196.249 299.511C198.805 302.477 203.233 303.616 206.226 305.375C207.364 306.409 208.502 307.444 210.357 308.169C211.355 308.755 212.213 308.893 211.058 310.41C209.343 310.133 208.205 309.099 205.772 309.132C204.898 311.545 202.308 313.682 203.726 315.612C203.272 319.37 204.97 322.197 206.669 325.025C205.917 330.437 205.884 335.539 205.132 340.951C205.272 341.399 204.555 341.709 204.695 342.157C203.978 342.467 203.821 344.57 201.965 343.845C200.11 343.121 198.972 342.086 198.551 340.742C199.146 337.432 196.293 336.121 193.439 334.81C191.987 337.981 191.987 337.981 194.841 339.292C196.556 339.569 196.836 340.465 197.116 341.362C196.679 342.568 196.242 343.774 194.807 344.394C193.809 343.808 193.092 344.118 191.657 344.738C191.516 344.29 190.519 343.703 189.661 343.565C190.536 341.152 189.398 340.118 186.387 340.91C184.655 343.184 186.511 343.909 187.508 344.495C188.646 345.53 189.207 347.323 190.345 348.357C189.47 350.77 191.326 351.495 193.181 352.219C193.742 354.012 194.442 356.253 195.72 357.736C196.578 357.874 196.718 358.322 196.141 359.08C194.408 361.355 196.841 361.321 198.697 362.046C198.119 362.804 198.259 363.252 197.682 364.011C196.684 363.424 195.827 363.286 194.829 362.7C193.831 362.113 192.396 362.733 191.101 363.802C189.246 363.077 188.108 362.042 185.535 361.628C184.363 365.695 189.229 365.628 189.352 368.627C190.35 369.214 190.63 370.11 191.628 370.696C191.768 371.145 191.768 371.144 191.908 371.593C192.328 372.937 194.044 373.214 195.182 374.248C196.32 375.283 194.885 375.903 193.59 376.971C193.59 376.971 193.59 376.971 193.012 377.729L193.152 378.178C192.575 378.936 192.715 379.384 193.433 379.074C194.571 380.108 196.426 380.833 197.704 382.316C197.127 383.074 196.689 384.28 198.264 384.109C199.84 383.937 200.26 385.281 200.54 386.178C200.243 387.832 202.099 388.557 200.226 390.383C197.653 389.969 196.953 387.728 193.085 388.382C191.072 389.76 193.068 390.933 191.056 392.311C189.48 392.483 189.06 391.138 187.345 390.862C186.487 390.723 186.347 390.275 185.629 390.585C182.776 389.274 182.042 392.135 180.029 393.513C180.17 393.962 180.17 393.962 180.31 394.41C180.887 393.652 180.887 393.652 180.029 393.513C179.032 392.927 177.176 392.202 176.179 391.616C175.758 390.271 175.915 388.169 172.187 389.271C170.035 390.201 170.332 388.546 169.474 388.408C169.194 387.511 168.196 386.925 166.481 386.649C165.343 385.614 163.628 385.338 162.49 384.303C162.21 383.407 161.93 382.51 160.495 383.13C157.641 381.819 156.083 379.44 155.242 376.751C155.102 376.303 154.245 376.164 153.387 376.026C153.387 376.026 152.669 376.336 152.81 376.785C152.95 377.233 153.807 377.371 154.525 377.061C154.805 377.957 152.652 378.887 152.215 380.094L151.498 380.404C151.498 380.404 151.498 380.404 151.358 379.955C151.217 379.507 151.077 379.059 150.937 378.611L150.797 378.163C151.515 377.853 150.797 378.163 150.937 378.611C148.364 378.196 147.944 376.852 148.959 374.887C149.256 373.233 148.258 372.646 147.26 372.06C146.98 371.163 146.84 370.715 145.265 370.887C143.566 368.06 141.15 365.542 136.862 364.851C135.988 367.264 133.538 369.849 131.088 372.433C131.509 373.778 131.789 374.674 132.209 376.019C131.772 377.225 131.912 377.673 132.192 378.57C133.47 380.053 135.466 381.225 136.026 383.018C135.729 384.673 137.445 384.949 138.582 385.984C137.865 386.294 138.005 386.742 137.288 387.052C136.57 387.362 136.71 387.81 136.85 388.258C138.986 389.879 139.687 392.12 140.387 394.361C140.948 396.154 142.226 397.637 144.659 397.603C144.799 398.052 144.939 398.5 145.656 398.19C145.656 398.19 146.374 397.88 146.234 397.432C146.234 397.432 145.516 397.742 145.656 398.19C147.215 400.569 144.468 404.808 148.756 405.499C148.145 411.359 153.571 413.085 157.702 415.879C160.275 416.293 158.963 419.912 162.254 420.017C162.954 422.258 166.385 422.811 165.651 425.672C164.933 425.982 164.215 426.292 164.215 426.292C159.63 427.256 159.63 427.256 160.471 429.945L160.611 430.393L161.329 430.083C161.329 430.083 161.329 430.083 160.471 429.945C159.176 431.013 158.599 431.771 157.881 432.081C157.741 431.633 157.741 431.633 157.023 431.943C155.886 430.908 154.608 429.426 152.752 428.701C152.909 426.598 150.914 425.425 149.636 423.943C151.788 423.013 153.083 421.944 150.51 421.53C150.527 418.979 148.234 419.461 145.084 419.804C143.369 419.528 143.806 418.321 142.808 417.735C142.388 416.39 142.108 415.494 141.687 414.149C143.122 413.529 143.543 414.874 144.978 414.254C145.415 413.048 144.417 412.461 143.56 412.323C141.127 412.357 141.547 413.701 141.687 414.149C140.97 414.459 140.97 414.459 140.252 414.769C140.112 414.321 140.112 414.321 139.972 413.873C139.692 412.977 139.411 412.08 139.131 411.184C139.709 410.426 139.568 409.977 140.146 409.219C139.148 408.633 137.853 409.701 136.996 409.563C136.278 409.873 136.278 409.873 135.56 410.183C135.28 409.286 135.718 408.08 133.425 408.562C131.99 409.182 130.695 410.25 130.975 411.147C131.255 412.043 131.396 412.491 129.961 413.111C129.103 412.973 128.245 412.835 127.965 411.938C126.687 410.456 124.955 412.73 124.237 413.04C123.957 412.144 122.819 411.109 121.524 412.177C119.512 413.556 121.227 413.832 122.085 413.97C122.225 414.418 123.082 414.557 123.363 415.453C123.643 416.349 123.923 417.246 124.204 418.142C124.344 418.59 124.344 418.59 124.484 419.039C123.189 420.107 122.611 420.865 122.892 421.761C121.457 422.381 120.022 423.001 121.16 424.036C122.438 425.519 124.31 423.692 125.745 423.072L125.605 422.624C125.605 422.624 125.605 422.624 125.027 423.382C126.586 425.762 123.435 426.105 121.283 427.035C118.413 428.275 117.135 426.793 115.997 425.758C114.859 424.723 117.168 421.691 113.301 422.344C113.458 420.241 110.885 419.827 108.889 418.654C107.034 417.929 106.877 420.032 106.159 420.342C106.002 422.445 107.998 423.618 109.136 424.652C109.416 425.549 109.556 425.997 110.414 426.135C111.271 426.273 111.271 426.273 110.694 427.032C113.407 427.894 114.108 430.135 116.243 431.756C117.241 432.343 118.239 432.929 118.519 433.826C121.793 436.481 126.081 437.172 128.357 439.241C129.074 438.931 129.214 439.379 129.495 440.276C129.635 440.724 129.775 441.172 129.915 441.62C131.49 441.449 131.63 441.897 131.91 442.793C132.051 443.241 132.051 443.241 132.191 443.69C132.191 443.69 131.473 444 131.613 444.448C131.753 444.896 131.753 444.896 132.471 444.586C132.611 445.034 132.611 445.034 132.751 445.482C132.751 445.482 133.469 445.172 134.186 444.862C134.186 444.862 134.186 444.862 134.326 445.311C133.609 445.621 133.469 445.172 132.751 445.482C132.314 446.689 130.599 446.412 129.881 446.722C129.164 447.032 128.306 446.894 126.871 447.514L126.731 447.066C125.873 446.928 125.873 446.928 126.451 446.17C126.31 445.721 124.735 445.893 125.173 444.687C127.325 443.757 127.903 442.999 126.047 442.274C125.189 442.136 125.189 442.136 124.332 441.998C124.052 441.101 123.194 440.963 122.336 440.825C117.314 442.995 122.179 442.928 121.742 444.134C122.162 445.479 121.305 445.341 119.87 445.961C119.152 446.271 119.573 447.615 118.278 448.683C115.862 446.166 113.586 444.097 111.17 441.579C109.892 440.097 107.897 438.924 106.759 437.889C105.901 437.751 105.621 436.855 104.763 436.716C104.046 437.026 103.188 436.888 103.048 436.44C104.062 434.475 102.925 433.441 100.492 433.475C100.212 432.578 99.9313 431.682 99.2138 431.992C97.7788 432.612 98.7765 433.198 99.0568 434.095C97.3246 436.369 99.7574 436.336 100.895 437.37C100.318 438.128 100.598 439.025 101.456 439.163C101.596 439.611 101.596 439.611 101.736 440.059C102.594 440.197 102.594 440.197 103.451 440.336C104.869 442.267 105.57 444.508 107.706 446.129C109.982 448.198 113.832 450.095 114.096 453.543C113.378 453.853 111.663 453.576 111.803 454.024C112.504 456.265 111.052 459.436 113.905 460.747C114.045 461.196 114.045 461.196 114.185 461.644C114.903 461.334 115.183 462.23 116.041 462.368C117.319 463.851 118.457 464.886 120.312 465.61C122.728 468.128 124.426 470.955 127.42 472.714C130.553 474.922 133.687 477.129 136.102 479.646C135.525 480.405 134.23 481.473 133.513 481.783C133.232 480.886 132.235 480.3 131.377 480.162C126.074 481.436 127.666 478.713 126.966 476.472C126.108 476.334 126.108 476.334 125.531 477.092C124.953 477.85 124.953 477.85 124.095 477.712C123.098 477.125 122.38 477.435 120.945 478.055C120.805 477.607 120.805 477.607 120.665 477.159C122.817 476.229 124.97 475.299 122.974 474.126C122.257 474.436 122.117 473.988 121.259 473.85C120.261 473.263 119.561 471.022 116.253 473.469C117.986 471.194 117.565 469.85 114.118 471.848C113.4 472.158 112.823 472.916 111.388 473.536C110.39 472.95 109.673 473.26 108.238 473.88C107.677 472.087 105.962 471.81 103.092 473.051C102.234 472.912 101.376 472.774 99.9414 473.394C99.8013 472.946 99.8013 472.946 98.9437 472.808C99.5211 472.05 99.5211 472.05 100.098 471.291C99.9583 470.843 99.6781 469.947 99.5379 469.499C100.115 468.74 100.115 468.74 99.2577 468.602C99.1176 468.154 99.1176 468.154 98.9774 467.706C97.2622 467.429 97.279 464.878 93.4112 465.532C94.1118 467.773 95.9672 468.498 96.3876 469.842C97.1051 469.532 97.1051 469.532 97.8227 469.222C97.9628 469.67 97.9628 469.67 98.8204 469.809C98.9606 470.257 98.9605 470.257 99.1007 470.705C97.8058 471.773 97.2284 472.531 97.2284 472.531C96.5109 472.841 95.0759 473.461 94.3583 473.771C93.5007 473.633 93.5007 473.633 92.6431 473.495C92.3628 472.599 92.2227 472.15 91.9424 471.254L91.8023 470.806C91.6622 470.358 90.8045 470.219 90.087 470.529C89.8068 469.633 89.5265 468.737 87.8112 468.46C87.6711 468.012 87.6711 468.012 87.531 467.564C87.2507 466.667 87.1106 466.219 85.5354 466.391C84.9581 467.149 84.9581 467.149 84.1004 467.011C83.3829 467.321 82.6654 467.631 81.9479 467.941C81.2304 468.251 80.653 469.009 80.653 469.009C80.9332 469.906 81.6507 469.596 82.3682 469.286C83.0858 468.976 83.8033 468.666 84.5208 468.356C84.6609 468.804 84.6609 468.804 84.801 469.252C83.4893 472.871 86.3424 474.182 88.338 475.355C88.4781 475.803 88.6182 476.251 88.8985 477.148C89.7561 477.286 89.7561 477.286 90.6138 477.424C90.7539 477.872 90.7539 477.872 90.894 478.321C90.1765 478.631 90.1765 478.631 89.459 478.941C87.8838 479.112 87.7437 478.664 87.4634 477.768C86.6058 477.63 86.6058 477.63 85.7482 477.492C84.8905 477.353 84.8905 477.353 84.0329 477.215C83.8928 476.767 83.8928 476.767 83.7526 476.319C83.7526 476.319 83.7526 476.319 83.6125 475.871L83.4724 475.422C83.1921 474.526 82.9119 473.63 82.6316 472.733C82.4915 472.285 81.9141 473.043 81.0565 472.905C80.339 473.215 79.3412 472.629 78.0463 473.697C77.3288 474.007 77.1887 473.559 76.331 473.42C74.3355 472.248 74.3524 469.697 71.7794 469.282C71.0619 469.592 71.202 470.04 70.4845 470.35C71.7625 471.833 73.7581 473.006 74.896 474.04C75.1762 474.937 75.3164 475.385 76.8915 475.213C77.452 477.006 79.4476 478.179 80.0081 479.972C80.2883 480.868 80.4284 481.316 81.2861 481.454C82.7211 480.834 82.1437 481.593 82.2838 482.041C82.5641 482.937 82.7042 483.385 84.2794 483.214C84.4195 483.662 84.5596 484.11 84.8399 485.006C85.5574 484.696 85.5574 484.696 86.2749 484.386C85.5574 484.696 85.4173 484.248 84.8399 485.006C84.1224 485.316 84.1224 485.316 83.4049 485.626C82.5472 485.488 82.5472 485.488 81.6896 485.35C80.8319 485.212 80.8319 485.212 80.2545 485.97C81.3924 487.005 80.5179 489.417 82.3733 490.142C84.509 491.763 85.3497 494.452 88.0628 495.315C88.4832 496.66 85.8934 498.796 89.1838 498.901C90.1647 502.038 92.4405 504.107 94.7163 506.176C95.714 506.763 95.714 506.763 96.5717 506.901C96.9921 508.245 97.9898 508.832 99.1277 509.866C99.408 510.763 99.5481 511.211 101.123 511.039C101.263 511.487 101.544 512.384 103.119 512.212C104.537 514.143 106.813 516.212 110.961 516.455C113.797 520.317 117.211 523.421 118.035 528.661C118.175 529.109 119.032 529.247 119.032 529.247C119.173 529.695 119.173 529.695 120.03 529.834C120.17 530.282 120.17 530.282 119.593 531.04C117.44 531.97 116.863 532.728 118.718 533.453C118.859 533.901 119.139 534.797 119.996 534.936L120.714 534.626L121.431 534.316C121.291 533.867 120.574 534.177 119.996 534.936C120.994 535.522 122.132 536.557 122.552 537.901C122.833 538.798 123.113 539.694 123.533 541.039C124.951 542.97 127.367 545.487 128.926 547.866C128.926 547.866 129.066 548.314 128.348 548.624L127.631 548.934C125.198 548.968 126.072 546.555 122.782 546.451C123.623 549.14 123.606 551.691 127.614 551.485C127.894 552.382 127.597 554.036 128.595 554.623C131.151 557.588 132.849 560.416 133.83 563.553C133.97 564.001 134.25 564.898 132.956 565.966C132.815 565.518 132.675 565.07 131.818 564.931C131.537 564.035 130.68 563.897 129.682 563.31C129.542 562.862 129.979 561.656 127.686 562.138C126.251 562.758 123.819 562.791 124.239 564.136C124.659 565.48 126.532 563.654 127.249 563.344C127.389 563.792 127.389 563.792 127.529 564.24C127.81 565.137 128.09 566.033 128.51 567.378L128.65 567.826C128.791 568.274 128.931 568.722 129.071 569.171C129.788 568.861 129.211 569.619 129.351 570.067C129.491 570.515 129.772 571.412 130.489 571.102C130.909 572.446 131.19 573.343 131.61 574.687C131.89 575.584 132.311 576.928 131.016 577.996C130.438 578.755 131.436 579.341 130.859 580.099C130.999 580.547 131.997 581.134 132.854 581.272C133.135 582.168 133.415 583.065 133.555 583.513C133.835 584.409 133.975 584.858 134.833 584.996C134.973 585.444 134.973 585.444 135.113 585.892C134.396 586.202 132.961 586.822 132.243 587.132C131.683 585.339 131.98 583.685 129.407 583.27C129.407 583.27 129.267 582.822 128.549 583.132C126.974 583.304 127.271 581.649 125.836 582.269C124.541 583.337 126.257 583.614 126.537 584.51C126.677 584.958 127.535 585.097 128.392 585.235C129.53 586.269 129.373 588.372 130.511 589.407C132.052 594.337 132.736 599.129 137.007 602.371C137.428 603.716 137.131 605.37 139.563 605.337C140.421 605.475 141.279 605.613 141.279 605.613C141.139 605.165 140.999 604.717 140.858 604.268C140.281 605.027 140.421 605.475 141.279 605.613C140.247 610.129 144.098 612.026 147.232 614.233C147.372 614.682 147.372 614.682 148.229 614.82C151.066 618.682 155.914 621.165 158.033 625.337C159.591 627.717 161.867 629.786 164.861 631.545C172.125 636.546 177.377 642.925 185.219 647.168C188.353 649.376 190.629 651.445 194.917 652.136C194.479 653.342 195.477 653.929 196.912 653.309C197.193 654.205 197.613 655.55 199.188 655.378C199.468 656.274 200.326 656.412 201.184 656.551C202.041 656.689 202.181 657.137 202.181 657.137C203.319 658.172 205.315 659.344 206.453 660.379C207.45 660.965 207.731 661.862 207.434 663.516C205.842 666.239 206.542 668.48 208.818 670.549C209.816 671.136 210.236 672.48 211.374 673.515C211.514 673.963 211.514 673.963 210.937 674.721C210.219 675.031 210.219 675.031 209.502 675.341C207.069 675.375 208.381 671.756 204.653 672.858C203.638 674.822 205.494 675.547 205.914 676.891C206.194 677.788 208.05 678.512 206.178 680.339C204.462 680.062 203.324 679.028 202.186 677.993C202.641 674.236 198.162 680.75 197.461 678.509C194.731 680.197 197.881 679.853 197.304 680.612C197.444 681.06 197.584 681.508 197.724 681.956C196.289 682.576 194.714 682.748 195.135 684.093C196.272 685.127 193.543 686.815 193.245 688.47C193.386 688.918 193.526 689.366 193.666 689.815C192.231 690.435 191.67 688.642 188.94 690.33C190.936 691.503 192.354 693.434 195.067 694.297C196.048 697.434 200.336 698.125 201.894 700.504C201.457 701.711 202.455 702.297 203.313 702.435C203.453 702.883 204.45 703.47 204.731 704.366C204.871 704.814 204.871 704.814 205.011 705.262C205.728 704.952 205.869 705.401 206.726 705.539C206.866 705.987 206.866 705.987 207.006 706.435C207.864 706.573 208.004 707.022 209.002 707.608C209.142 708.056 209.142 708.056 209.282 708.504C210 708.194 210.14 708.643 210.857 708.333C213.57 709.195 214.989 711.126 217.124 712.747C222.113 715.679 227.242 719.06 233.526 720.923C234.243 720.613 234.961 720.303 234.961 720.303C234.243 720.613 233.526 720.923 233.526 720.923C234.507 724.061 238.655 724.303 241.508 725.614L242.085 724.856C242.085 724.856 242.085 724.856 241.508 725.614C247.354 728.685 253.341 732.203 259.905 734.963C265.471 737.137 269.743 740.379 276.464 741.036C280.875 744.726 287.876 746.28 293.583 748.902C295.578 750.075 297.434 750.799 300.724 750.904C300.864 751.352 300.864 751.352 301.004 751.8C311.419 756.458 323.706 759.289 335.416 762.878C336.274 763.016 337.849 762.844 339.564 763.121C344.133 764.708 348.124 767.054 355.282 766.505C357.558 768.574 360.988 769.127 364.279 769.231C364.559 770.128 366.134 769.956 367.709 769.784C370.563 771.095 375.288 770.58 378.141 771.891C380.854 772.753 383.567 773.616 386.718 773.272C394.717 775.413 403.293 776.794 414.039 774.695C420.48 774.456 425.766 775.734 432.346 775.943C432.487 776.391 433.204 776.081 433.922 775.771C434.639 775.461 434.779 775.909 435.497 775.599C437.632 777.22 441.36 776.118 444.651 776.223C445.368 775.913 445.945 775.155 445.805 774.706C447.257 771.535 444.107 771.879 441.534 771.464C441.114 770.12 439.258 769.395 437.543 769.119C432.677 769.186 429.404 766.531 424.398 766.15C420.11 765.459 418.271 762.183 412.828 763.009C412.688 762.56 411.971 762.87 411.971 762.87C411.831 762.422 411.113 762.732 410.973 762.284C410.833 761.836 410.115 762.146 409.975 761.698C409.835 761.249 409.118 761.559 409.118 761.559L408.977 761.111C405.547 760.558 403.691 759.834 401.119 759.419C401.556 758.213 402.273 757.903 403.708 757.283C408.574 757.216 413.58 757.597 418.305 757.081C426.321 756.67 433.76 757.018 441.355 755.262C442.073 754.952 442.073 754.952 442.93 755.09C443.648 754.78 443.648 754.78 444.505 754.918C446.938 754.885 449.668 753.197 452.101 753.163C452.241 753.611 452.241 753.611 452.381 754.059C453.239 754.198 454.674 753.578 455.531 753.716C463.547 753.305 472.281 752.584 480.874 751.415L481.592 751.105C485.74 751.348 489.888 751.59 493.598 753.04C493.879 753.936 495.314 753.316 496.171 753.454C496.889 753.144 497.747 753.282 498.464 752.972C499.462 753.559 499.602 754.007 500.46 754.145C501.317 754.283 501.317 754.283 501.895 753.525C501.895 753.525 501.895 753.525 502.035 753.973C502.035 753.973 501.177 753.835 500.46 754.145C500.6 754.593 500.74 755.041 502.175 754.421C502.892 754.111 504.327 753.491 505.045 753.181C505.185 753.63 505.185 753.63 505.325 754.078C505.465 754.526 506.323 754.664 507.04 754.354L507.758 754.044L508.475 753.734C510.611 755.355 514.479 754.702 517.052 755.116C517.192 755.564 517.332 756.013 518.19 756.151C520.623 756.117 522.198 755.945 522.215 753.394C522.215 753.394 523.51 752.326 524.227 752.016C524.945 751.706 525.662 751.396 527.097 750.776C527.815 750.466 527.955 750.914 528.672 750.604C536.251 751.4 546.139 749.162 555.013 748.89C556.01 749.476 557.445 748.856 558.88 748.236C562.031 747.892 565.618 746.342 568.191 746.757C568.909 746.447 570.484 746.275 571.201 745.965C571.919 745.655 572.059 746.103 572.777 745.793C573.494 745.483 574.352 745.622 575.069 745.312C575.787 745.002 576.504 744.692 577.222 744.382C577.659 743.175 579.234 743.003 579.812 742.245L580.529 741.935L581.247 741.625C583.539 741.143 583.539 741.143 583.416 738.144C587.581 735.836 591.012 736.389 595.457 734.977C596.752 733.909 598.764 732.53 600.917 731.6C603.069 730.67 604.925 731.395 606.657 729.12C607.374 728.81 608.092 728.5 609.527 727.88C610.244 727.57 611.679 726.95 612.397 726.64C612.537 727.088 613.395 727.227 613.535 727.675C614.252 727.365 614.392 727.813 614.533 728.261C615.25 727.951 615.827 727.193 616.405 726.435C617.84 725.815 619.275 725.195 620.71 724.575C625.015 722.715 623.16 721.99 621.444 721.714C622.162 721.404 622.879 721.094 623.597 720.784C626.747 720.44 629.337 718.304 631.77 718.27C632.627 718.408 633.485 718.546 634.92 717.926C636.215 716.858 636.932 716.548 637.93 717.134C640.223 716.653 642.516 716.171 645.245 714.483C645.963 714.173 646.681 713.863 647.538 714.001C649.253 714.277 651.546 713.795 652.981 713.175C652.561 711.831 650.986 712.003 649.988 711.416C649.708 710.52 649.567 710.072 648.132 710.692ZM622.974 317.62C622.256 317.93 622.536 318.827 621.959 319.585C622.396 318.379 623.114 318.069 622.974 317.62ZM627.529 623.95C627.389 623.502 628.246 623.64 627.529 623.95ZM136.373 438.83C137.37 439.417 137.651 440.313 138.071 441.658C138.368 440.003 138.088 439.107 136.373 438.83ZM158.924 404.158L158.347 404.916C158.207 404.468 158.207 404.468 158.924 404.158ZM621.532 362.504C622.249 362.194 623.825 362.022 623.247 362.78L623.387 363.228C623.247 362.78 623.107 362.332 621.532 362.504ZM620.527 622.396C621.245 622.086 621.245 622.086 620.527 622.396ZM146.089 592.343C145.371 592.653 145.371 592.653 146.089 592.343ZM137.63 573.104C138.208 572.345 138.208 572.345 137.63 573.104C138.208 572.345 137.49 572.655 137.63 573.104C138.348 572.794 138.348 572.794 137.63 573.104ZM265.36 278.3L265.937 277.541C266.077 277.99 266.077 277.99 266.217 278.438C266.217 278.438 266.077 277.99 265.36 278.3ZM285.742 247.109L286.6 247.247C286.6 247.247 285.882 247.557 285.742 247.109ZM531.66 731.507C531.801 731.955 531.801 731.955 531.66 731.507ZM114.42 491.049C113.703 491.359 113.703 491.359 114.42 491.049ZM215.473 400.076C215.333 399.628 215.333 399.628 215.473 400.076ZM277.468 264.928C278.185 264.618 278.185 264.618 277.468 264.928ZM512.252 377.668C512.392 378.117 512.392 378.117 512.252 377.668ZM160.962 507.061C160.822 506.613 160.822 506.613 160.962 507.061ZM245.973 375.197C245.833 374.749 245.833 374.749 245.973 375.197ZM496.846 218.983L496.129 219.293C496.129 219.293 496.129 219.293 495.989 218.845C496.129 219.293 496.129 219.293 496.846 218.983ZM578.76 447.12C578.619 446.672 578.619 446.672 578.76 447.12ZM263.222 341.798C263.362 342.247 263.362 342.247 263.222 341.798ZM279.2 695.084C278.483 695.394 278.623 695.843 277.905 696.153C277.765 695.704 278.483 695.394 279.2 695.084ZM253.908 689.732C254.766 689.87 255.624 690.009 255.624 690.009C254.766 689.87 254.626 689.422 253.908 689.732ZM363.985 208.216C362.41 208.388 360.834 208.559 359.68 210.076C361.115 209.456 362.41 208.388 363.985 208.216ZM331.428 197.862C331.568 198.311 331.568 198.311 331.428 197.862ZM487.833 435.023C487.833 435.023 487.115 435.333 486.258 435.195C486.975 434.885 486.975 434.885 487.833 435.023ZM547.67 496.165C548.388 495.855 548.528 496.303 548.668 496.751C547.81 496.613 547.67 496.165 546.235 496.785C546.953 496.475 547.67 496.165 547.67 496.165ZM552.863 619.58C552.723 619.132 552.723 619.132 552.723 619.132L553.441 618.822C553.581 619.27 553.581 619.27 552.863 619.58ZM365.98 209.389L365.84 208.94C366.558 208.63 366.698 209.079 365.98 209.389C366.698 209.079 366.698 209.079 365.98 209.389ZM477.44 232.456C476.722 232.766 475.287 233.386 475.287 233.386C475.287 233.386 475.147 232.937 475.865 232.627C477.16 231.559 477.3 232.007 477.44 232.456ZM535.489 282.669C536.207 282.359 536.207 282.359 535.489 282.669ZM468.371 435.292C467.653 435.602 467.653 435.602 468.371 435.292ZM483.46 447.087L482.603 446.949C483.32 446.639 483.46 447.087 483.46 447.087ZM282.431 596.01C281.574 595.872 280.856 596.182 280.856 596.182C280.856 596.182 280.856 596.182 280.716 595.733C280.716 595.733 280.716 595.733 280.856 596.182C281.574 595.872 281.574 595.872 282.431 596.01ZM310.349 312.788C311.066 312.478 311.206 312.927 311.206 312.927C311.206 312.927 311.206 312.927 310.349 312.788ZM501.498 489.151L501.638 489.599C500.78 489.461 500.78 489.461 501.498 489.151C500.64 489.012 500.78 489.461 501.498 489.151ZM387.879 727.493C387.021 727.354 387.162 727.803 387.879 727.493C387.021 727.354 387.021 727.354 387.879 727.493C388.457 726.734 387.739 727.044 387.879 727.493ZM406.944 246.634L406.087 246.496C406.804 246.186 406.804 246.186 406.944 246.634ZM390.313 229.909C390.453 230.357 390.453 230.357 390.313 229.909C390.313 229.909 389.596 230.219 389.456 229.77C389.456 229.77 389.456 229.77 389.316 229.322C389.596 230.219 389.596 230.219 390.313 229.909ZM542.921 327.279C542.781 326.831 542.781 326.831 542.921 327.279ZM351.632 582.9L352.349 582.59C352.349 582.59 352.349 582.59 351.632 582.9ZM407.882 429.376C407.601 428.48 408.179 427.721 408.896 427.411C408.319 428.17 407.741 428.928 407.882 429.376ZM429.736 694.654C429.736 694.654 430.454 694.344 430.594 694.792C429.876 695.102 429.299 695.861 428.722 696.619C429.299 695.861 429.876 695.102 429.736 694.654ZM354.781 647.676C355.498 647.366 355.498 647.366 356.075 646.608C356.216 647.056 355.498 647.366 354.781 647.676ZM430.156 263.568L430.734 262.81C430.874 263.258 430.874 263.258 430.156 263.568ZM435.513 340.617C434.796 340.927 434.796 340.927 435.513 340.617ZM465.021 336.008C465.161 336.457 465.161 336.457 465.301 336.905C464.584 337.215 464.444 336.767 463.726 337.077C463.586 336.628 464.303 336.318 465.021 336.008ZM452.683 557.046C452.106 557.804 452.106 557.804 452.683 557.046C452.543 556.597 451.966 557.356 452.683 557.046ZM415.4 612.327C415.4 612.327 416.257 612.466 415.54 612.776C415.54 612.776 415.54 612.776 415.4 612.327ZM448.034 654.189C447.894 653.741 447.894 653.741 448.034 654.189ZM419.777 621.12L419.917 621.568C419.777 621.12 419.06 621.43 418.202 621.291C419.06 621.43 419.777 621.12 419.777 621.12ZM299.017 425.029C298.299 425.339 297.722 426.097 297.145 426.855C297.862 426.545 298.44 425.787 299.017 425.029ZM381.575 425.989C380.998 426.747 380.42 427.505 379.843 428.263C378.268 428.435 378.128 427.987 377.987 427.539C377.847 427.09 377.847 427.09 377.847 427.09C379.282 426.47 380.857 426.299 381.575 425.989ZM451.36 584.072C451.937 583.314 451.937 583.314 451.36 584.072ZM316.323 555.929C316.901 555.171 317.478 554.413 317.198 553.517C316.621 554.275 316.901 555.171 316.323 555.929ZM370.829 428.088C371.547 427.778 371.547 427.778 370.829 428.088C371.407 427.329 371.407 427.329 370.829 428.088C370.689 427.639 370.689 427.639 370.829 428.088ZM327.944 551.417L327.804 550.969C327.804 550.969 328.521 550.659 329.379 550.797C329.379 550.797 328.661 551.107 327.944 551.417ZM424.589 542.729C424.729 543.178 424.729 543.178 424.589 542.729ZM316.308 493.361C316.448 493.809 316.448 493.809 316.308 493.361ZM346.057 473.894C346.197 474.342 345.48 474.652 346.057 473.894C345.34 474.204 345.48 474.652 346.057 473.894ZM388.461 531.375C387.744 531.685 387.744 531.685 387.167 532.443C387.744 531.685 388.461 531.375 388.461 531.375ZM375.003 532.612L374.285 532.922C374.285 532.922 374.285 532.922 375.003 532.612ZM361.577 528.746C360.86 529.056 361 529.504 361.577 528.746ZM403.019 515.419L403.877 515.557C403.877 515.557 403.737 515.109 403.019 515.419ZM395.895 510.866C395.177 511.176 395.177 511.176 395.895 510.866ZM352.616 455.798C353.334 455.488 353.334 455.488 352.616 455.798ZM308.775 464.056L308.058 464.366C306.623 464.986 306.342 464.09 306.062 463.193C306.202 463.641 307.2 464.228 308.775 464.056ZM331.746 495.848L331.606 495.4C331.746 495.848 331.746 495.848 331.746 495.848ZM416.372 508.633C415.654 508.943 415.654 508.943 416.372 508.633ZM373.995 490.313C374.135 490.761 374.135 490.761 373.995 490.313ZM300.479 463.57C301.477 464.157 301.617 464.605 301.04 465.363C301.617 464.605 301.337 463.709 300.479 463.57ZM436.994 527.704C436.994 527.704 436.854 527.255 436.136 527.565C436.136 527.565 436.854 527.255 436.994 527.704ZM356.529 426.635C357.247 426.325 357.247 426.325 356.529 426.635ZM427.015 370.744C426.875 370.296 426.875 370.296 427.015 370.744C427.732 370.434 428.59 370.572 428.59 370.572C427.732 370.434 427.732 370.434 427.015 370.744ZM410.238 332.714C410.956 332.404 410.956 332.404 410.238 332.714ZM418.938 337.095C419.796 337.234 419.796 337.234 418.938 337.095ZM425.951 315.242C426.669 314.932 428.244 314.76 428.681 313.554C428.104 314.312 426.669 314.932 425.951 315.242ZM434.083 362.094C433.366 362.404 433.366 362.404 434.083 362.094ZM332.885 431.763C332.308 432.521 332.308 432.521 331.013 433.589C330.873 433.141 330.873 433.141 330.733 432.693C332.168 432.073 332.168 432.073 332.885 431.763ZM446.378 536.877C447.095 536.567 447.095 536.567 446.378 536.877ZM417.329 342.369C418.047 342.059 418.047 342.059 417.329 342.369ZM412.588 280.316C412.448 279.868 412.448 279.868 412.588 280.316ZM373.343 329.323C373.203 328.875 373.203 328.875 373.92 328.565C374.06 329.013 374.778 328.703 374.778 328.703C374.06 329.013 373.343 329.323 373.343 329.323ZM320.649 421.279C321.366 420.969 321.506 421.417 322.224 421.107C321.646 421.865 321.069 422.624 320.492 423.382C321.069 422.624 320.789 421.727 320.649 421.279ZM324.309 430.381C324.449 430.829 324.449 430.829 324.309 430.381ZM297.697 538.031C297.557 537.583 296.839 537.893 297.697 538.031C296.839 537.893 296.839 537.893 296.839 537.893C297.557 537.583 297.557 537.583 297.697 538.031ZM452.319 568.904C451.601 569.214 451.601 569.214 452.319 568.904ZM398.48 487.874C399.197 487.564 399.337 488.012 399.477 488.46L399.618 488.908C399.337 488.012 399.197 487.564 398.48 487.874ZM459.846 361.137C460.564 360.827 460.564 360.827 459.846 361.137ZM466.898 355.038C467.616 354.728 467.616 354.728 466.898 355.038ZM475.392 304.055C476.967 303.884 478.402 303.264 479.697 302.195C478.262 302.815 476.827 303.435 475.392 304.055ZM395.623 400.587C396.2 399.829 396.341 400.277 395.623 400.587C396.341 400.277 396.341 400.277 395.623 400.587ZM439.434 267.191C440.151 266.881 440.151 266.881 439.434 267.191ZM276.632 499.311C278.067 498.691 279.065 499.277 279.205 499.725C279.906 501.966 282.916 501.174 285.349 501.141C286.066 500.831 286.206 501.279 286.924 500.969C287.782 501.107 288.639 501.245 289.497 501.384C289.497 501.384 289.497 501.384 289.637 501.832C285.786 499.934 281.498 499.243 276.632 499.311ZM405.55 630.319C405.13 628.974 402.977 629.904 401.979 629.318C402.977 629.904 403.975 630.491 405.55 630.319ZM426.503 642.633C425.786 642.943 425.786 642.943 426.503 642.633ZM489.336 640.414C490.053 640.104 490.053 640.104 490.193 640.553C490.053 640.104 489.336 640.414 489.336 640.414ZM479.761 638.446C479.902 638.894 480.619 638.584 480.759 639.033C480.042 639.343 479.902 638.894 479.761 638.446ZM448.988 618.165C448.41 618.923 448.41 618.923 448.988 618.165ZM432.951 381.915C433.668 381.605 433.668 381.605 432.951 381.915C432.951 381.915 433.528 381.157 433.668 381.605C433.668 381.605 433.668 381.605 432.951 381.915ZM253.717 480.722C253.577 480.273 253.577 480.273 253.437 479.825C254.295 479.963 254.435 480.412 253.717 480.722C254.435 480.412 254.435 480.412 253.717 480.722ZM272.668 536.127C272.528 535.678 271.67 535.54 271.67 535.54C272.528 535.678 272.528 535.678 272.668 536.127ZM429.333 690.759C428.475 690.62 428.475 690.62 429.333 690.759C429.193 690.31 428.475 690.62 429.333 690.759ZM488.513 570.055C488.653 570.503 488.653 570.503 488.513 570.055ZM410.005 454.404C409.148 454.266 409.148 454.266 410.005 454.404C409.865 453.956 409.865 453.956 410.005 454.404ZM421.727 434.586C422.585 434.725 421.867 435.035 421.727 434.586ZM397.259 434.474C396.979 433.578 396.698 432.682 395.123 432.853C395.701 432.095 395.701 432.095 396.418 431.785C396.698 432.682 396.979 433.578 397.259 434.474ZM402.871 408.139C403.011 408.587 403.869 408.725 404.586 408.415C403.151 409.035 402.434 409.345 402.871 408.139ZM485.537 349.529C486.254 349.219 486.254 349.219 486.972 348.909C486.254 349.219 486.394 349.667 485.537 349.529ZM491.257 263.624C491.834 262.866 492.551 262.556 493.129 261.798C492.411 262.108 491.834 262.866 491.257 263.624ZM441.491 237.304C442.209 236.994 442.209 236.994 442.927 236.684C442.069 236.545 442.209 236.994 441.491 237.304ZM431.765 258.294C431.906 258.743 431.188 259.053 431.328 259.501C431.188 259.053 431.765 258.294 431.765 258.294ZM328.975 330.686L329.115 331.135C329.115 331.135 328.398 331.445 328.258 330.996C328.398 331.445 328.398 331.445 328.975 330.686ZM242.203 490.784C243.919 491.06 245.634 491.337 247.349 491.613C245.634 491.337 244.496 490.302 242.203 490.784C241.346 490.646 241.486 491.094 242.203 490.784ZM499.131 544.1C499.848 543.79 501.424 543.618 502.859 542.998C501.424 543.618 499.411 544.996 499.131 544.1ZM455.376 474.483C455.236 474.035 455.236 474.035 455.376 474.483ZM524.927 321.826C525.068 322.275 525.208 322.723 524.63 323.481C525.208 322.723 525.925 322.413 524.927 321.826ZM490.836 262.279L490.696 261.831C490.696 261.831 490.696 261.831 490.836 262.279ZM455.791 238.757L455.651 238.308C455.651 238.308 455.651 238.308 455.791 238.757ZM314.709 324.132C314.849 324.58 314.849 324.58 314.709 324.132ZM268.091 427.707L267.374 428.017C268.091 427.707 268.091 427.707 268.091 427.707ZM370.324 655.713C370.184 655.265 369.467 655.575 370.324 655.713ZM497.329 621.698C497.47 622.147 497.47 622.147 497.329 621.698ZM503.419 544.791L503.279 544.343C503.419 544.791 503.419 544.791 503.419 544.791ZM507.977 504.666C508.695 504.356 508.695 504.356 509.412 504.046C508.117 505.114 507.4 505.424 506.963 506.63C507.54 505.872 507.26 504.976 507.977 504.666ZM404.608 426.721C403.75 426.582 403.75 426.582 403.61 426.134C403.75 426.582 404.468 426.272 404.608 426.721ZM456.875 377.684C457.015 378.132 457.015 378.132 456.875 377.684C456.438 378.89 456.438 378.89 456.718 379.786C456.578 379.338 456.438 378.89 456.875 377.684ZM538.28 315.04C538.14 314.592 538.14 314.592 538.28 315.04ZM328.454 344.648C328.313 344.2 326.878 344.82 326.738 344.372C327.456 344.062 328.313 344.2 328.454 344.648ZM281.008 573.223C281.726 572.913 282.443 572.603 282.583 573.051C282.583 573.051 283.301 572.741 283.441 573.189C282.583 573.051 281.726 572.913 281.008 573.223ZM292.735 574.261C292.595 573.813 291.877 574.123 291.737 573.674C292.595 573.813 292.595 573.813 292.735 574.261ZM374.959 712.216C374.241 712.526 374.101 712.078 373.384 712.388C374.101 712.078 373.384 712.388 373.961 711.63C374.101 712.078 374.819 711.768 374.959 712.216ZM504.532 657.76L505.249 657.45L505.389 657.898C505.249 657.45 504.532 657.76 504.532 657.76ZM511.305 585.644C512.022 585.334 512.88 585.473 513.598 585.162C512.163 585.783 511.445 586.093 511.305 585.644ZM510.863 565.994L511.003 566.443C511.003 566.443 511.143 566.891 510.425 567.201C510.565 567.649 509.848 567.959 509.848 567.959C510.425 567.201 511.003 566.443 510.863 565.994ZM503.704 350.328C504.562 350.466 504.702 350.915 505.56 351.053C504.702 350.915 503.267 351.535 503.704 350.328ZM509.664 314.685C510.241 313.927 510.241 313.927 509.664 314.685C510.381 314.375 510.381 314.375 509.664 314.685ZM504.798 314.752C504.798 314.752 505.516 314.442 505.656 314.891C505.516 314.442 505.516 314.442 504.798 314.752ZM388.644 201.123C387.926 201.433 387.926 201.433 387.068 201.295C387.786 200.985 388.503 200.675 388.644 201.123ZM349.64 235.272C350.497 235.41 349.78 235.72 349.202 236.479C349.92 236.169 350.497 235.41 349.64 235.272ZM294.81 325.607C293.235 325.779 292.237 325.192 290.802 325.812C291.379 325.054 291.239 324.606 291.957 324.296C292.097 324.744 293.094 325.331 294.81 325.607ZM306.261 346.605C306.979 346.295 307.416 345.089 308.134 344.779C307.556 345.537 306.979 346.295 306.261 346.605C307.119 346.743 306.401 347.053 306.261 346.605ZM311.02 340.988C311.878 341.126 312.736 341.264 313.734 341.85C312.736 341.264 312.456 340.368 311.02 340.988ZM267.424 420.364C267.284 419.916 266.286 419.329 264.992 420.398C266.427 419.778 267.284 419.916 267.424 420.364ZM239.722 433.351C239.862 433.799 239.144 434.109 239.722 433.351ZM202.576 554.2C202.436 553.752 202.436 553.752 202.576 554.2ZM500.914 534.172C500.196 534.482 500.196 534.482 499.479 534.792C498.901 535.551 497.903 534.964 497.763 534.516C497.623 534.068 496.766 533.93 495.768 533.343C497.623 534.068 499.198 533.896 500.914 534.172ZM474.06 440.465C473.202 440.327 472.625 441.085 472.485 440.637C472.485 440.637 473.342 440.775 474.06 440.465ZM447.894 437.526C448.471 436.767 449.188 436.457 450.046 436.596L450.904 436.734C450.186 437.044 449.329 436.906 447.894 437.526ZM419.137 220.507C419.714 219.749 418.997 220.059 419.137 220.507ZM426.24 206.755C426.24 206.755 426.957 206.445 427.097 206.893C426.38 207.203 426.38 207.203 426.24 206.755ZM438.157 200.589C438.297 201.037 437.72 201.795 437.002 202.105C437.72 201.795 437.58 201.347 438.157 200.589ZM391.407 194.333C390.69 194.643 390.69 194.643 391.407 194.333ZM340.889 238.544C340.172 238.854 340.172 238.854 340.889 238.544ZM297.013 317.024C297.73 316.714 297.73 316.714 297.013 317.024ZM219.226 503.255L219.366 503.703C219.226 503.255 218.509 503.565 217.651 503.427C218.368 503.117 218.368 503.117 219.226 503.255ZM333.414 589.753C333.554 590.202 333.554 590.202 333.414 589.753ZM357.823 706.902C357.683 706.453 356.965 706.763 356.108 706.625C356.965 706.763 356.965 706.763 357.823 706.902ZM368.803 734.208C369.521 733.898 369.521 733.898 368.803 734.208ZM470.866 404.198C471.443 403.44 471.163 402.544 470.883 401.647C471.163 402.544 470.586 403.302 470.866 404.198ZM471.735 380.929C471.595 380.481 470.878 380.791 470.02 380.653C470.878 380.791 470.878 380.791 471.735 380.929ZM559.144 319.253C559.861 318.943 559.861 318.943 559.144 319.253ZM456.588 204.835C457.305 204.525 457.883 203.767 457.743 203.319C457.305 204.525 457.305 204.525 456.588 204.835ZM370.785 175.262C369.927 175.124 369.07 174.985 368.93 174.537C369.787 174.675 369.927 175.124 370.785 175.262ZM338.73 283.738C338.59 283.289 339.448 283.428 338.73 283.738ZM297.881 358.875L298.021 359.323C298.021 359.323 298.021 359.323 297.881 358.875ZM254.364 404.64L254.504 405.088C254.364 404.64 253.506 404.502 253.506 404.502C254.364 404.64 254.364 404.64 254.364 404.64ZM241.035 580.827C239.46 580.999 239.32 580.551 239.18 580.103C240.037 580.241 240.177 580.689 241.035 580.827ZM303.334 615.977C302.616 616.287 302.616 616.287 302.616 616.287L303.334 615.977ZM393.883 728.46C395.318 727.84 395.318 727.84 396.753 727.22C396.175 727.978 397.033 728.116 396.456 728.874C395.598 728.736 395.458 728.288 393.883 728.46ZM543.787 650.465C544.505 650.155 544.505 650.155 543.787 650.465ZM576.278 605.903C576.995 605.593 577.713 605.283 577.853 605.731C577.136 606.041 577.136 606.041 576.278 605.903ZM542.239 473.583C542.099 473.135 542.099 473.135 542.239 473.583ZM503.152 455.368C502.592 453.575 501.454 452.54 500.176 451.057C500.159 453.608 500.579 454.953 503.152 455.368ZM481.926 397.894C482.643 397.584 482.643 397.583 482.643 397.583C481.926 397.894 481.926 397.894 481.926 397.894ZM572.675 328.669L573.533 328.807C573.393 328.359 572.675 328.669 572.675 328.669ZM559.615 312.944C559.755 313.393 559.755 313.393 559.615 312.944ZM325.244 245.812C325.384 246.261 325.384 246.261 325.244 245.812ZM368.597 246.414C368.597 246.414 367.88 246.724 367.74 246.275C367.88 246.724 367.88 246.724 368.597 246.414ZM273.443 700.115C274.161 699.805 274.301 700.254 274.301 700.254C273.583 700.564 273.443 700.115 273.443 700.115ZM415.324 731.915C415.464 732.363 414.746 732.673 415.324 731.915C414.746 732.673 414.746 732.673 415.324 731.915ZM556.665 347.796C557.383 347.486 557.383 347.486 556.665 347.796ZM340.636 276.809C339.919 277.119 339.919 277.119 340.636 276.809C339.778 276.671 339.919 277.119 340.636 276.809ZM269.165 308.706L269.742 307.948C269.882 308.396 270.74 308.534 270.163 309.293C270.163 309.293 269.305 309.154 269.165 308.706ZM147.61 513.848C148.327 513.538 148.327 513.538 147.61 513.848C148.327 513.538 148.467 513.986 147.61 513.848ZM152.128 523.088C152.845 522.778 152.985 523.226 153.703 522.916C153.703 522.916 152.845 522.778 152.128 523.088ZM164.862 566.425C164.722 565.977 164.722 565.977 164.862 566.425ZM228.35 594.957C227.492 594.819 227.632 595.267 228.35 594.957C228.209 594.509 227.492 594.819 228.35 594.957ZM274.174 611.278L273.597 612.037C273.597 612.037 273.597 612.037 274.174 611.278ZM274.157 613.829C274.297 614.278 274.297 614.278 274.157 613.829ZM235.163 689.691L234.446 690.001C234.586 690.449 235.304 690.139 235.163 689.691ZM326.409 718.439C326.409 718.439 327.127 718.129 327.267 718.577C327.127 718.129 327.127 718.129 326.409 718.439ZM431.916 732.886C432.056 733.334 432.056 733.334 431.916 732.886C431.198 733.196 432.056 733.334 431.916 732.886C431.198 733.196 431.198 733.196 431.916 732.886ZM472.152 728.729C470.857 729.797 468.705 730.727 468.268 731.933C469.703 731.313 470.857 729.797 472.152 728.729ZM563.91 701.803C563.77 701.354 562.054 701.078 561.197 700.94C561.914 700.63 562.054 701.078 562.772 700.768C563.489 700.458 563.77 701.354 563.91 701.803ZM586.306 604.114C586.306 604.114 587.024 603.804 587.164 604.252C587.164 604.252 587.164 604.252 586.306 604.114ZM552.997 448.077C553.434 446.87 555.149 447.147 555.867 446.837C554.432 447.457 553.714 447.767 552.997 448.077C553.137 448.525 553.137 448.525 552.997 448.077ZM590.299 325.124C589.301 324.538 587.866 325.158 587.149 325.468C587.866 325.158 589.441 324.986 590.299 325.124ZM545.904 287.326C545.904 287.326 545.764 286.878 545.624 286.43C545.764 286.878 545.904 287.326 546.762 287.464C546.044 287.774 546.622 287.016 545.904 287.326ZM462.255 191.703C460.68 191.875 459.245 192.495 457.95 193.563C459.666 193.839 460.961 192.771 462.255 191.703ZM396.038 164.86L395.898 164.412C395.898 164.412 395.898 164.412 396.038 164.86ZM336.377 250.16L335.519 250.022C334.801 250.332 334.661 249.884 335.379 249.573C335.519 250.022 335.519 250.022 336.236 249.712C335.519 250.022 336.236 249.712 336.377 250.16ZM355.278 248.098C356.713 247.478 357.431 247.168 358.429 247.755C356.854 247.926 356.573 247.03 355.278 248.098ZM253.44 349.586C253.3 349.138 253.3 349.138 253.44 349.586ZM254.948 359.618C254.09 359.48 254.231 359.928 254.948 359.618ZM176.872 438.121C176.732 437.672 176.732 437.672 176.872 438.121ZM193.173 461.602C193.033 461.154 193.033 461.154 193.173 461.602ZM123.26 495.879L123.977 495.569C123.26 495.879 123.26 495.879 123.26 495.879ZM148.293 518.64C146.858 519.26 146.421 520.466 146.561 520.914C147.139 520.156 147.716 519.398 148.293 518.64ZM167.671 531.126C167.531 530.678 167.531 530.678 168.966 530.058C168.966 530.058 169.106 530.506 169.824 530.196C169.106 530.506 168.389 530.816 167.671 531.126ZM151.459 580.865C153.174 581.141 154.312 582.176 154.592 583.072C154.312 582.176 153.892 580.831 151.459 580.865ZM156.291 585.9L155.713 586.658C155.713 586.658 155.713 586.658 156.291 585.9ZM220.989 626.118C220.411 626.876 220.271 626.428 220.271 626.428L220.989 626.118ZM414.712 737.775C413.995 738.085 414.135 738.533 414.275 738.981C414.135 738.533 414.712 737.775 414.712 737.775ZM569.159 622.206C571.591 622.172 573.447 622.897 576.02 623.312C574.742 621.829 571.591 622.172 569.159 622.206ZM592.568 587.672C592.568 587.672 593.145 586.914 593.286 587.362C594.143 587.5 593.426 587.81 593.566 588.259C593.426 587.81 592.708 588.12 592.568 587.672ZM569.272 583.493C568.554 583.803 567.977 584.561 567.259 584.871C567.837 584.113 567.837 584.113 568.414 583.355C568.414 583.355 568.414 583.355 569.272 583.493ZM605.228 469.261C605.368 469.71 606.226 469.848 607.084 469.986C606.226 469.848 605.946 468.951 605.228 469.261ZM557.722 447.561C557.582 447.113 557.442 446.665 558.019 445.907C558.159 446.355 557.582 447.113 557.722 447.561ZM603.359 340.848C602.642 341.158 602.642 341.158 603.359 340.848ZM562.687 281.092C562.547 280.644 563.125 279.886 563.125 279.886C563.265 280.334 563.405 280.782 564.262 280.921C563.405 280.782 562.687 281.092 562.687 281.092ZM391.487 160.721C391.347 160.273 391.347 160.273 391.487 160.721ZM303.894 185.339L303.177 185.649C303.894 185.339 303.894 185.339 303.894 185.339ZM316.999 237.674C316.281 237.984 316.281 237.984 316.999 237.674C316.281 237.984 316.421 238.432 316.421 238.432C316.421 238.432 317.139 238.122 316.999 237.674ZM308.355 246.496C307.637 246.806 307.637 246.806 308.355 246.496ZM354.561 248.408C355.278 248.098 355.278 248.098 354.561 248.408ZM338.394 269.638C337.817 270.396 337.817 270.396 337.239 271.154C337.099 270.706 337.817 270.396 337.677 269.948C337.677 269.948 337.677 269.948 338.394 269.638ZM176.401 444.429C175.684 444.739 175.684 444.739 176.401 444.429C175.544 444.291 175.684 444.739 176.401 444.429ZM190.757 459.085C190.039 459.395 190.039 459.395 190.757 459.085ZM248.18 668.805C248.32 669.253 248.32 669.253 248.18 668.805C247.603 669.563 247.603 669.563 248.18 668.805C247.462 669.115 247.462 669.115 248.18 668.805ZM571.365 699.599C573.518 698.669 574.095 697.911 573.675 696.566C572.38 697.634 571.802 698.393 571.365 699.599ZM568.569 646.371L568.429 645.923C569.287 646.061 568.569 646.371 568.569 646.371ZM555.615 419.982C555.615 419.982 554.898 420.292 554.757 419.844C554.757 419.844 555.475 419.534 555.335 419.086C555.475 419.534 555.475 419.534 555.615 419.982ZM531.422 399.91C531.562 400.358 531.562 400.358 531.422 399.91ZM566.29 342.111C566.867 341.353 566.867 341.353 566.29 342.111C566.867 341.353 567.008 341.801 566.29 342.111C567.008 341.801 567.008 341.801 566.29 342.111ZM488.074 203.95C487.934 203.502 487.934 203.502 488.074 203.95C488.652 203.192 488.792 203.64 488.074 203.95C488.792 203.64 488.792 203.64 488.074 203.95ZM334.215 144.258C334.933 143.948 334.933 143.948 334.215 144.258ZM317.589 148.389C318.307 148.079 318.307 148.079 317.589 148.389ZM233.502 335.307C232.925 336.065 232.925 336.065 232.067 335.927C232.784 335.617 232.784 335.617 233.502 335.307ZM124.712 492.708C123.994 493.018 124.134 493.466 124.712 492.708ZM211.707 601.639L211.847 602.087C211.707 601.639 210.131 601.81 209.991 601.362C210.131 601.81 210.989 601.949 211.707 601.639ZM266.545 618.136C267.262 617.826 267.543 618.722 268.26 618.412C267.683 619.171 268.54 619.309 267.963 620.067C267.543 618.722 266.685 618.584 266.545 618.136ZM241.923 706.103L241.206 706.413C241.066 705.965 241.923 706.103 241.923 706.103ZM591.378 659.41L592.095 659.1C591.378 659.41 591.518 659.858 591.378 659.41ZM590.319 624.764C590.179 624.316 590.179 624.316 590.319 624.764ZM556.154 403.47C556.154 403.47 556.871 403.16 556.731 402.711L556.871 403.16C556.154 403.47 556.154 403.47 556.154 403.47ZM501.903 211.711C501.763 211.263 501.185 212.021 501.903 211.711C502.62 211.401 503.478 211.539 503.478 211.539C502.76 211.849 502.043 212.159 501.903 211.711ZM489.509 203.33C489.369 202.882 489.369 202.882 489.509 203.33ZM301.943 220.777C303.518 220.605 303.518 220.605 304.375 220.743C304.375 220.743 304.375 220.743 303.658 221.053C303.518 220.605 302.66 220.467 301.943 220.777ZM210.905 398.488C210.764 398.04 210.764 398.04 210.764 398.04C210.047 398.35 210.047 398.35 210.905 398.488ZM165.33 474.141C164.612 474.451 164.035 475.209 163.317 475.519C163.895 474.761 164.612 474.451 165.19 473.693C164.472 474.003 165.19 473.693 165.33 474.141ZM149.757 492.062C149.617 491.613 148.9 491.923 148.759 491.475C149.617 491.613 149.617 491.613 149.757 492.062ZM239.149 671.181C240.444 670.112 241.442 670.699 241.582 671.147C240.725 671.009 239.29 671.629 239.149 671.181C238.432 671.491 238.432 671.491 239.149 671.181ZM301.487 722.085C301.627 722.533 301.627 722.533 301.487 722.085ZM435.716 742.436C436.434 742.126 436.434 742.126 435.716 742.436ZM507.388 745.047C505.813 745.218 505.953 745.667 505.236 745.977C505.236 745.977 505.953 745.667 505.813 745.218C506.671 745.357 507.388 745.047 507.388 745.047ZM543.039 741.853L542.322 742.163C543.039 741.853 543.039 741.853 543.039 741.853ZM560.349 742.514C558.914 743.134 559.054 743.582 558.477 744.341C559.054 743.582 559.632 742.824 560.349 742.514ZM626.06 629.672C626.777 629.362 627.495 629.052 628.212 628.742L628.93 628.432C627.495 629.052 626.777 629.362 626.06 629.672C626.2 630.12 626.2 630.12 626.06 629.672ZM587.821 353.667C587.68 353.219 587.68 353.219 587.821 353.667C588.398 352.909 587.68 353.219 587.821 353.667ZM621.348 325.445C620.49 325.307 620.49 325.307 621.348 325.445ZM265.221 212.732L266.079 212.87C266.079 212.87 266.079 212.87 265.221 212.732ZM218.08 395.388C217.502 396.147 217.362 395.698 217.362 395.698C217.362 395.698 218.08 395.388 218.08 395.388ZM138.189 423.801C137.472 424.111 137.472 424.111 138.189 423.801ZM140.497 485.888C140.637 486.336 141.495 486.474 141.495 486.474C141.355 486.026 141.215 485.578 140.497 485.888ZM142.266 564.487C141.409 564.349 141.409 564.349 142.266 564.487C142.126 564.039 141.409 564.349 142.266 564.487ZM221.856 667.968C221.856 667.968 221.716 667.52 220.999 667.83C221.716 667.52 221.716 667.52 221.856 667.968ZM486.385 740.385C486.244 739.937 486.244 739.937 486.385 740.385C487.96 740.214 488.537 739.455 490.112 739.284C490.112 739.284 490.83 738.974 490.97 739.422C489.255 739.145 487.679 739.317 486.385 740.385C485.667 740.695 487.96 740.214 486.385 740.385ZM507.231 747.149C507.371 747.598 507.371 747.598 507.231 747.149ZM607.263 702.404C607.123 701.956 607.123 701.956 607.263 702.404ZM617.955 621.982C617.237 622.292 617.237 622.292 617.955 621.982C617.097 621.844 617.237 622.292 617.955 621.982C617.097 621.844 617.097 621.844 617.955 621.982ZM665.086 613.828C665.226 614.276 666.084 614.414 666.941 614.553C666.084 614.414 665.803 613.518 665.086 613.828ZM673.242 613.865C673.242 613.865 673.959 613.555 673.819 613.107C673.819 613.107 673.819 613.107 673.959 613.555C673.819 613.107 673.242 613.865 673.242 613.865ZM663.247 610.552L662.39 610.414C663.107 610.104 663.825 609.794 664.682 609.932C663.965 610.242 663.388 611.001 663.247 610.552ZM602.995 568.922C604.71 569.199 606.863 568.269 608.298 567.649C606.582 567.372 605.007 567.544 602.995 568.922ZM581.089 527.513C580.949 527.064 581.527 526.306 581.527 526.306C581.527 526.306 581.667 526.754 581.089 527.513ZM571.014 406.715C570.874 406.267 570.874 406.267 570.874 406.267C570.874 406.267 571.014 406.715 571.014 406.715ZM551.703 384.025C551.703 384.025 550.986 384.335 550.846 383.887C551.563 383.577 551.563 383.577 551.703 384.025ZM545.56 382.61C545.42 382.161 546.277 382.3 546.137 381.851C546.277 382.3 546.417 382.748 547.275 382.886C546.417 382.748 546.277 382.3 545.56 382.61ZM574.871 364.349C575.012 364.797 575.012 364.797 574.871 364.349ZM632.413 339.997C633.13 339.687 633.27 340.135 633.988 339.825C633.988 339.825 633.27 340.135 633.41 340.583C633.988 339.825 633.13 339.687 632.413 339.997ZM586.191 275.516C586.909 275.206 586.909 275.206 587.626 274.896C586.769 274.758 586.051 275.068 586.191 275.516ZM138.907 423.491L140.342 422.871C140.342 422.871 139.624 423.181 138.907 423.491ZM143.872 473.237C143.294 473.995 143.294 473.995 143.872 473.237C143.154 473.547 143.294 473.995 143.872 473.237ZM146.742 471.997C146.882 472.445 146.165 472.755 146.742 471.997C146.165 472.755 146.165 472.755 146.742 471.997C146.024 472.307 146.024 472.307 146.742 471.997ZM623.311 699.031C624.029 698.721 624.029 698.721 623.311 699.031ZM634.248 689.727L633.531 690.037C633.531 690.037 633.531 690.037 634.248 689.727ZM615.083 688.341C614.085 687.755 613.227 687.617 611.652 687.789C613.227 687.617 613.508 688.513 615.083 688.341ZM615.667 643.32C616.384 643.01 616.384 643.01 615.667 643.32ZM700.187 650.554C699.906 649.658 698.191 649.381 697.193 648.795C697.614 650.14 698.612 650.726 700.187 650.554ZM633.196 610.818L633.336 611.266C632.479 611.128 632.619 611.576 631.761 611.438C632.479 611.128 633.196 610.818 633.196 610.818ZM678.124 611.247C677.267 611.109 677.127 610.661 676.269 610.523C676.549 611.419 677.267 611.109 678.124 611.247ZM575.994 519.03C575.854 518.582 575.854 518.582 575.994 519.03ZM550.375 390.195C549.657 390.505 549.657 390.505 550.375 390.195C550.235 389.747 549.517 390.057 550.375 390.195C550.235 389.747 550.235 389.747 550.375 390.195ZM581.716 368.006C582.433 367.696 582.433 367.696 581.716 368.006ZM227.804 223.302C226.229 223.474 224.076 224.404 222.641 225.024C224.514 223.197 226.666 222.267 227.804 223.302ZM251.379 293.497L250.521 293.359L251.239 293.049C251.379 293.497 251.379 293.497 251.379 293.497ZM101.297 506.385C101.437 506.834 101.437 506.834 101.297 506.385ZM198.145 683.301L197.427 683.611C197.427 683.611 197.427 683.611 198.145 683.301ZM300.741 748.353C299.883 748.215 299.883 748.215 299.743 747.766C300.601 747.905 300.741 748.353 300.741 748.353ZM385.597 769.687C386.314 769.377 387.032 769.067 387.032 769.067C386.314 769.377 385.597 769.687 385.597 769.687C385.737 770.135 385.737 770.135 385.597 769.687ZM396.606 771.035C397.463 771.173 396.746 771.483 396.606 771.035ZM412.671 765.111L411.954 765.421C411.954 765.421 411.954 765.421 412.671 765.111ZM498.044 751.628C498.761 751.318 498.901 751.766 499.759 751.904C498.761 751.318 498.621 750.87 498.044 751.628Z" fill="#65C0C8"/>
</g>
</mask>
<g mask="url(#mask0_2283_1253)">
<rect x="56" y="121.083" width="685" height="805.262" fill="black"/>
</g>
<defs>
<clipPath id="clip0_2283_1253">
<rect width="692.651" height="617.48" fill="white" transform="matrix(-0.2984 -0.954441 0.917982 -0.396621 206.688 906)"/>
</clipPath>
</defs>
</svg>
