<svg width="774" height="771" viewBox="0 0 774 771" fill="none" xmlns="http://www.w3.org/2000/svg">
<mask id="mask0_2283_1253" style="mask-type:alpha" maskUnits="userSpaceOnUse" x="0" y="0" width="774" height="771">
<g clip-path="url(#clip0_2283_1253)">
<path d="M648.132 604.553C647.135 604.055 646.137 603.556 643.984 604.347C642.706 603.086 641.849 602.968 639.556 603.378C636.983 603.025 634.988 602.028 631.697 601.939C630.559 601.059 628.267 601.468 626.551 601.233C625.553 600.735 623.838 600.499 622.123 600.264C619.55 599.912 616.977 599.559 614.544 599.588C614.404 599.206 614.404 599.206 613.687 599.47C613.546 599.089 612.829 599.353 612.829 599.353L612.689 598.971C613.266 598.326 613.266 598.326 613.844 597.681C615.279 597.154 616.854 597.008 618.289 596.48C621.719 596.951 625.167 595.251 628.614 593.551C631.484 592.496 634.197 593.23 636.647 591.031C637.365 590.768 637.942 590.123 637.802 589.741C637.662 589.36 637.522 588.979 637.381 588.598C638.833 585.9 638.833 585.9 633.25 586.221C633.11 585.84 632.393 586.104 631.675 586.367C630.537 585.487 628.245 585.897 627.247 585.398C626.529 585.662 625.672 585.544 625.532 585.163C623.676 584.547 621.821 583.93 618.811 584.604C615.38 584.134 611.949 583.664 608.519 583.193C606.663 582.577 604.948 582.342 603.093 581.725C602.953 581.344 602.095 581.227 600.52 581.373C600.52 581.373 600.66 581.754 599.942 582.018C599.942 582.018 600.66 581.754 600.52 581.373C598.664 580.756 596.091 580.404 592.801 580.315C586.237 577.967 577.941 577.554 571.377 575.206C571.237 574.825 570.519 575.088 570.379 574.707C569.522 574.59 569.662 574.971 568.944 575.235C569.662 574.971 569.662 574.971 570.379 574.707C568.664 574.472 566.091 574.119 563.658 574.148C563.518 573.767 563.518 573.767 562.801 574.03C562.66 573.649 562.38 572.887 562.24 572.505C565.968 571.568 567.386 573.211 570.536 572.918C572.111 572.772 572.969 572.89 574.544 572.744C578.832 573.331 583.121 573.919 587.549 574.888C589.404 575.505 591.977 575.857 594.41 575.829C595.268 575.946 596.125 576.064 596.265 576.445C597.403 577.325 599.119 577.56 601.131 576.388C603.143 575.215 599.853 575.126 601.865 573.954C603.003 574.834 605.156 574.043 606.591 573.516C606.731 573.897 607.011 574.659 607.151 575.041C607.869 574.777 607.869 574.777 608.586 574.513C609.304 574.249 609.304 574.249 610.162 574.367C610.162 574.367 610.302 574.748 611.019 574.485C611.159 574.866 611.877 574.602 612.454 573.957C613.032 573.312 613.032 573.312 613.889 573.43L614.029 573.811C614.169 574.192 614.169 574.192 614.31 574.574C614.59 575.336 614.87 576.099 615.15 576.861C615.431 577.624 615.571 578.005 616.288 577.741C617.006 577.478 619.018 576.305 618.441 576.95C616.989 579.648 619.141 578.856 621.574 578.828C620.997 579.473 621.137 579.854 621.854 579.59C622.992 580.47 624.427 579.943 624.725 578.535C625.022 577.128 623.884 576.248 622.028 575.632C624.338 573.052 622.045 573.462 619.753 573.871C619.192 572.346 616.322 573.401 615.761 571.876C615.621 571.495 615.621 571.495 615.481 571.114C614.624 570.996 614.624 570.996 614.046 571.641C611.754 572.051 610.038 571.816 607.746 572.226C608.9 570.936 610.055 569.646 607.045 570.319C605.47 570.465 604.035 570.993 602.6 571.52C600.464 570.141 595.021 570.844 596.193 567.384C596.91 567.12 597.488 566.475 597.348 566.094C599.92 566.446 602.634 567.18 605.924 567.269C607.062 568.149 608.497 567.622 610.79 567.212C610.649 566.831 610.649 566.831 610.509 566.449C610.649 566.831 609.932 567.094 610.79 567.212C611.21 568.356 612.925 568.591 614.5 568.445C615.218 568.181 615.358 568.562 616.076 568.299C617.213 569.179 618.929 569.414 621.361 569.385C621.361 569.385 622.219 569.503 622.937 569.239C625.65 569.973 628.363 570.707 631.793 571.177C633.509 571.412 635.224 571.647 636.939 571.882C637.517 571.237 637.516 571.237 638.374 571.355C638.514 571.736 639.232 571.473 639.372 571.854C640.23 571.971 640.23 571.971 641.087 572.089C643.52 572.06 643.363 573.849 646.233 572.794C648.666 572.766 650.084 574.408 653.672 573.09C652.971 571.183 650.538 571.212 648.105 571.241C646.39 571.005 645.392 570.507 645.112 569.744C645.83 569.48 645.83 569.48 646.547 569.217C647.265 568.953 647.265 568.953 648.122 569.071C650.835 569.804 654.703 569.248 657.556 570.364C658.414 570.481 659.131 570.217 659.989 570.335C660.129 570.716 660.129 570.716 660.269 571.098C658.834 571.625 657.259 571.771 656.822 572.797C656.822 572.797 656.962 573.179 657.102 573.56C658.677 573.414 660.112 572.886 660.55 571.86C661.844 570.951 663.139 570.043 664.294 568.753C664.294 568.753 664.294 568.753 664.154 568.372C664.154 568.372 664.014 567.99 663.296 568.254C662.579 568.518 662.579 568.518 661.861 568.781C661.721 568.4 661.721 568.4 661.581 568.019C661.441 567.638 661.441 567.638 661.301 567.256C662.018 566.993 662.736 566.729 663.453 566.465C664.311 566.583 665.029 566.319 666.604 566.173C667.601 566.672 668.459 566.789 670.034 566.643C670.174 567.024 670.892 566.761 671.75 566.878C671.75 566.878 672.607 566.996 672.747 567.377C672.887 567.758 673.605 567.495 673.745 567.876C675.32 567.73 675.46 568.111 676.318 568.229C677.893 568.082 679.608 568.317 679.889 569.08C680.029 569.461 679.311 569.725 678.734 570.37C676.862 571.924 678.577 572.159 679.575 572.658C678.857 572.921 677.422 573.449 676.705 573.712C674.849 573.096 672.837 574.268 670.684 575.06C671.402 574.796 672.259 574.913 672.977 574.65C673.257 575.412 674.115 575.53 674.972 575.647C676.828 576.264 679.12 575.854 680.836 576.089C681.834 576.588 683.269 576.06 683.986 575.797C684.984 576.295 685.701 576.032 686.279 575.387C686.856 574.742 685.999 574.624 685.141 574.507C686.296 573.217 686.015 572.454 687.17 571.164L687.888 570.901C688.028 571.282 687.888 570.9 687.17 571.164C686.89 570.402 686.75 570.02 685.892 569.903C684.457 570.43 685.035 569.785 685.612 569.14C685.472 568.759 685.472 568.759 685.332 568.378C686.049 568.114 686.049 568.114 686.907 568.232C687.905 568.73 689.48 568.584 691.632 567.793C693.348 568.028 695.343 569.026 697.636 568.616C698.213 567.971 698.073 567.59 697.215 567.472C697.075 567.091 697.075 567.091 696.935 566.71C696.077 566.592 695.08 566.093 693.645 566.621C692.367 565.359 690.511 564.743 687.064 566.443C686.784 565.68 686.643 565.299 685.068 565.445C683.93 564.565 682.215 564.33 679.922 564.74C679.065 564.622 679.065 564.622 678.487 565.267C678.487 565.267 677.91 565.912 677.333 566.557C677.192 566.176 676.335 566.058 675.617 566.322C675.477 565.941 675.477 565.941 675.337 565.56C674.917 564.416 675.214 563.008 672.344 564.063C669.35 562.567 664.625 563.005 660.337 562.417C659.059 561.156 657.344 560.921 654.911 560.95C653.195 560.715 651.901 561.623 650.325 561.769C646.458 562.325 646.474 560.155 644.619 559.539C642.467 560.33 641.329 559.45 639.613 559.215C635.762 557.601 630.897 557.658 625.891 557.334C625.471 556.19 624.333 555.31 622.04 555.72L622.618 555.075C619.764 553.96 615.897 554.516 613.761 553.137C613.621 552.756 612.903 553.019 612.186 553.283C611.468 553.547 611.328 553.166 610.611 553.429C608.615 552.432 605.902 551.698 602.034 552.254C600.039 551.256 597.606 551.285 594.893 550.551C594.175 550.815 594.035 550.433 593.318 550.697C592.46 550.579 592.46 550.579 591.602 550.462C591.462 550.081 591.462 550.081 591.322 549.699C591.182 549.318 590.324 549.201 589.607 549.464C591.199 547.148 592.617 548.791 594.192 548.645C594.192 548.645 594.052 548.263 594.77 548L594.192 548.645C595.05 548.762 595.907 548.88 597.062 547.59C598.357 546.681 598.637 547.444 600.072 546.916C600.633 548.441 601.631 548.94 603.363 547.005L604.08 546.741L604.798 546.478L605.375 545.833C605.375 545.833 604.658 546.096 604.798 546.478C607.511 547.212 608.352 549.499 613.655 548.416C614.792 549.296 616.648 549.912 619.658 549.239C621.794 550.617 623.072 551.879 626.799 550.942C627.517 550.678 628.375 550.795 628.515 551.177C628.655 551.558 628.655 551.558 629.372 551.294C629.793 552.438 630.79 552.937 632.366 552.791C634.939 553.143 637.949 552.47 640.662 553.204C643.952 553.293 647.383 553.763 650.813 554.233C652.529 554.468 651.514 556.139 653.807 555.729C656.957 555.437 659.81 556.552 663.678 555.996C665.253 555.85 665.393 556.231 664.956 557.258C665.954 557.757 667.529 557.61 668.964 557.083C671.257 556.673 673.112 557.289 674.967 557.906C677.383 560.047 681.531 560.254 686.257 559.815C686.397 560.197 686.397 560.197 686.537 560.578C688.112 560.432 688.97 560.549 689.968 561.048C692.541 561.401 694.973 561.372 698.264 561.461C700.119 562.077 702.552 562.049 706.14 560.73C705.282 560.613 705.002 559.85 704.144 559.733C703.864 558.97 704.021 557.181 700.713 559.262C700.433 558.5 700.153 557.737 698.141 558.91C696.705 559.437 695.848 559.32 695.568 558.557C696.285 558.293 696.285 558.293 697.003 558.03C697.58 557.385 697.58 557.385 696.722 557.267C695.865 557.15 695.007 557.032 693.432 557.178C692.714 557.442 691.42 558.351 690.702 558.614C689.284 556.972 685.853 556.501 685.87 554.331C686.588 554.068 686.728 554.449 687.445 554.185C688.163 553.922 688.303 554.303 688.303 554.303C689.301 554.802 690.158 554.919 690.876 554.655C691.734 554.773 691.734 554.773 692.591 554.891C693.589 555.389 694.447 555.507 696.022 555.361C697.02 555.86 697.877 555.977 699.452 555.831C700.17 555.567 700.17 555.567 700.887 555.304C701.745 555.421 702.462 555.157 701.168 556.066C702.165 556.565 704.458 556.155 706.033 556.009C706.611 555.364 706.611 555.364 707.468 555.482C707.468 555.482 708.326 555.599 709.183 555.717C710.041 555.834 711.616 555.688 712.614 556.187C713.472 556.304 714.907 555.777 716.045 556.657C717.76 556.892 719.335 556.746 722.345 556.072C722.906 557.597 725.198 557.188 727.491 556.778C727.491 556.778 728.926 556.25 729.784 556.368C730.641 556.485 730.501 556.104 731.219 555.84C733.091 554.287 736.224 556.165 736.959 553.731C737.116 551.942 733.966 552.234 731.673 552.644C725.81 552.203 719.806 551.38 714.083 551.319C713.225 551.202 712.508 551.466 712.368 551.084C709.234 549.207 703.214 550.554 699.643 549.702C699.503 549.321 699.503 549.321 699.503 549.321C698.645 549.203 698.365 548.441 697.507 548.323C696.65 548.206 694.934 547.971 694.077 547.853C692.378 545.448 693.673 544.539 686.358 546.795C684.783 546.941 683.645 546.061 682.647 545.562C681.79 545.445 680.214 545.591 679.217 545.092C676.504 544.358 674.508 543.361 671.795 542.627C671.515 541.864 676.1 541.044 672.67 540.574C669.379 540.485 667.227 541.276 664.497 542.712C662.501 541.715 658.773 542.652 657.355 541.01C657.933 540.365 658.65 540.101 658.65 540.101C660.225 539.955 660.943 539.691 661.52 539.046C661.958 538.02 660.242 537.785 660.242 537.785C655.22 539.631 654.099 536.581 649.653 537.782C647.361 538.191 647.221 537.81 647.064 539.599C647.204 539.98 647.204 539.98 647.344 540.361C646.626 540.625 645.191 541.153 644.474 541.416C644.053 540.272 643.773 539.51 643.353 538.366C643.37 536.196 643.37 536.196 641.935 536.724C639.922 537.896 638.347 538.042 638.504 536.253C640.096 533.937 637.663 533.966 635.948 533.731C635.808 533.349 635.668 532.968 635.388 532.206C634.967 531.062 634.687 530.299 634.267 529.155C635.421 527.866 635.718 526.458 631.991 527.395C631.273 527.659 630.993 526.897 630.853 526.515C629.138 526.28 627.422 526.045 625.707 525.81C624.709 525.311 623.134 525.457 622.276 525.34L622.136 524.958C624.009 523.405 625.724 523.64 627.876 522.849C630.59 523.583 634.597 523.408 636.733 524.787C637.153 525.931 636.856 527.338 639.289 527.31C640.444 526.02 641.879 525.492 643.594 525.727C643.454 525.346 644.312 525.464 645.169 525.581C643.874 526.49 644.015 526.871 644.872 526.989C645.73 527.106 646.307 526.461 646.885 525.816L647.602 525.552L648.32 525.289C649.037 525.025 649.177 525.406 650.035 525.524C651.47 524.996 653.045 524.85 654.48 524.323C654.62 524.704 655.478 524.822 656.336 524.939C656.195 524.558 656.913 524.294 656.773 523.913C656.773 523.913 656.195 524.558 656.336 524.939C657.333 525.438 659.049 525.673 660.764 525.908C661.341 525.263 662.199 525.381 662.339 525.762C667.345 526.086 673.068 526.147 678.651 525.826C683.36 527.557 689.223 527.999 694.806 527.678C699.672 527.621 702.665 529.117 706.673 528.942C707.25 528.297 707.11 527.916 706.253 527.799C703.399 526.683 699.829 525.832 696.976 524.717C692.407 523.366 687.839 522.016 682.693 521.311C681.835 521.193 681.555 520.431 680.697 520.313C681.415 520.049 681.415 520.049 682.132 519.786C684.582 517.587 681.712 518.642 680.137 518.788C679.279 518.671 678.281 518.172 678.141 517.791C677.003 516.91 675.725 515.649 672.995 517.085C672.278 517.349 672.278 517.349 672.418 517.73L673.136 517.466C672.995 517.085 672.278 517.349 672.138 516.968C671.577 515.443 669.722 514.826 668.007 514.591C665.294 513.857 662.721 513.505 660.148 513.152C659.727 512.008 659.447 511.246 657.732 511.01C657.452 510.248 656.454 509.749 654.879 509.895C654.738 509.514 654.021 509.778 653.881 509.396C651.745 508.018 650.467 506.756 646.459 506.931C642.905 503.909 639.492 501.269 634.066 499.801C633.208 499.684 632.928 498.921 632.07 498.804C631.229 496.516 627.081 496.31 625.523 494.286C622.39 492.408 618.399 490.413 615.125 488.154C614.985 487.773 614.985 487.773 614.845 487.391C615.859 485.72 614.284 485.866 612.569 485.631C612.429 485.25 612.429 485.25 611.571 485.132C612.008 484.106 611.728 483.344 610.73 482.845C610.187 479.15 606.913 476.891 602.922 474.895C600.646 473.135 600.96 469.558 595.815 468.852C595.674 468.471 595.674 468.471 595.534 468.09L595.394 467.709C595.254 467.327 595.114 466.946 594.396 467.21C594.396 467.21 594.396 467.21 594.256 466.829C593.679 467.474 594.537 467.591 595.394 467.709C596.689 466.8 598.124 466.273 599.699 466.126C600.68 468.795 605.983 467.712 608.836 468.827C611.986 468.535 613.264 469.796 616.555 469.885C620.406 471.499 624.974 472.849 630.698 472.91C628.999 470.504 624.711 469.917 621 468.684C619.145 468.068 618.724 466.924 615.574 467.216C613.438 465.837 610.585 464.722 607.872 463.988C607.155 464.252 606.297 464.134 606.017 463.372C605.019 462.873 604.739 462.11 605.176 461.084C607.188 459.912 609.778 458.094 612.351 458.447C612.771 459.591 613.629 459.708 615.782 458.917C614.924 458.8 614.644 458.037 613.786 457.92C612.071 457.685 611.073 457.186 609.358 456.951C607.643 456.715 607.362 455.953 607.8 454.927C606.084 454.692 607.239 453.402 605.524 453.167C604.666 453.049 603.668 452.55 602.951 452.814C602.951 452.814 602.233 453.078 602.373 453.459C602.373 453.459 602.373 453.459 602.233 453.078L602.951 452.814C601.236 452.579 601.673 451.553 600.675 451.054C599.257 449.411 599.134 446.86 595.126 447.035C594.268 446.917 593.988 446.155 593.13 446.037C591.415 445.802 591.852 444.776 590.854 444.277C591.292 443.251 590.294 442.752 591.449 441.462C591.589 441.843 591.589 441.843 591.729 442.224C592.587 442.342 593.304 442.078 593.444 442.459C593.444 442.459 593.584 442.841 594.302 442.577L595.019 442.313C594.896 439.762 591.606 439.673 589.61 438.675C587.615 437.678 586.914 435.771 583.764 436.064C583.624 435.683 583.483 435.301 583.343 434.92C583.063 434.157 583.64 433.512 584.218 432.868C586.37 432.076 588.943 432.429 590.956 431.257C592.531 431.111 593.826 430.202 595.121 429.293C593.686 429.821 592.251 430.348 590.816 430.875C593.388 431.228 596.556 428.766 598.551 429.763C598.691 430.145 599.409 429.881 599.549 430.262C600.266 429.998 600.407 430.38 601.124 430.116C602.262 430.996 603.697 430.469 605.272 430.323C605.99 430.059 606.567 429.414 606.847 430.176C607.565 429.913 608.422 430.03 609.998 429.884C613.865 429.328 615.861 430.326 618.574 431.06C618.277 432.467 620.71 432.438 621.848 433.319C621.988 433.7 622.705 433.436 623.423 433.172C624.14 432.909 624 432.527 623.86 432.146C622.722 431.266 622.162 429.741 619.729 429.77C617.873 429.153 617.313 427.628 615.598 427.393C617.33 425.458 620.48 425.166 620.637 423.377C623.35 424.111 625.486 425.49 628.199 426.224C628.339 426.605 629.056 426.341 629.197 426.723C629.337 427.104 629.477 427.485 629.757 428.248C630.037 429.01 631.613 428.864 633.188 428.718C636.338 428.426 638.334 429.423 641.484 429.131C639.505 425.963 634.219 424.877 630.946 422.618C629.808 421.738 627.375 421.766 629.825 419.568C630.682 419.685 631.54 419.803 631.54 419.803C632.398 419.92 632.538 420.302 633.395 420.419L633.973 419.774C633.973 419.774 633.973 419.774 633.395 420.419C634.533 421.299 636.529 422.297 639.102 422.649C640.083 425.318 644.091 425.144 646.944 426.259C649.36 428.4 652.93 429.252 656.641 430.484C657.936 429.576 658.513 428.931 658.951 427.905C658.093 427.787 657.235 427.669 657.235 427.669C654.96 425.909 649.954 425.585 648.973 422.916C648.553 421.773 646.12 421.801 646.994 419.749C650.862 419.193 651.703 421.48 654.993 421.569C655.274 422.332 656.271 422.831 657.269 423.329C659.545 425.09 661.103 427.113 666.546 426.411C668.979 426.383 670.117 427.263 671.395 428.524C672.533 429.404 673.531 429.903 675.246 430.138C678.082 433.423 684.96 432.194 688.234 434.453C686.238 433.455 689.265 430.611 686.552 429.877C683.979 429.525 682.701 428.263 678.396 429.846C678.256 429.464 677.976 428.702 677.836 428.321C681.143 426.24 677.993 426.532 676.995 426.033C676.855 425.652 676.855 425.652 676.715 425.271C676.715 425.271 676.715 425.271 676.574 424.889C676.574 424.889 676.434 424.508 675.717 424.772C673.721 423.774 670.868 422.659 668.155 421.925C666.877 420.664 664.882 419.666 663.604 418.405C661.888 418.17 662.045 416.381 659.612 416.409C657.617 415.412 655.044 415.059 655.201 413.27C654.641 411.745 652.925 411.51 651.21 411.275C651.07 410.894 650.79 410.131 650.649 409.75C650.509 409.369 650.509 409.369 650.369 408.988C651.087 408.724 651.087 408.724 651.804 408.46C654.254 406.261 656.967 406.995 659.26 406.586C662.27 405.912 662.847 405.267 662.287 403.742C661.586 401.836 659.153 401.864 656.44 401.13C649.596 398.02 640.302 397.108 636.048 392.18C635.907 391.799 634.332 391.945 634.192 391.564C632.337 390.947 630.481 390.331 630.061 389.187C628.783 387.926 626.787 386.928 624.074 386.194C623.934 385.813 623.217 386.077 623.077 385.696C622.936 385.314 622.796 384.933 622.079 385.197C621.799 384.434 620.941 384.317 620.083 384.199C620.24 382.41 618.105 381.031 618.262 379.243C618.138 376.691 614.131 376.866 611.995 375.487C610.857 374.607 609.579 373.346 610.594 371.675C611.171 371.03 611.888 370.766 611.748 370.385C616.771 368.539 613.918 367.424 613.497 366.28C616.087 364.462 617.505 366.105 619.798 365.695C622.091 365.285 622.808 365.022 622.388 363.878C624.821 363.849 626.536 364.084 628.969 364.056C628.408 362.531 626.553 361.914 624.837 361.679C619.552 360.593 614.125 359.125 610.712 356.484C604.288 354.518 598.862 353.05 597.18 348.475C596.9 347.712 595.465 348.24 594.03 348.767C593.312 349.031 593.312 349.031 592.595 349.295C588.604 347.299 584.753 345.685 582.774 342.518C583.492 342.254 585.207 342.489 584.927 341.726C585.364 340.7 584.506 340.583 582.931 340.729C582.791 340.348 582.791 340.348 582.651 339.966C579.955 337.062 576.401 334.041 572.27 331.664C571.412 331.547 571.412 331.547 570.555 331.429C567.124 330.959 566.143 328.29 563.867 326.53C563.727 326.149 562.87 326.031 562.589 325.269C561.732 325.151 560.734 324.652 560.594 324.271C560.454 323.89 560.454 323.89 559.596 323.772C558.738 323.655 558.458 322.892 558.178 322.13L558.038 321.748C555.745 322.158 556.76 320.487 555.044 320.252C552.909 318.873 553.643 316.439 551.508 315.06C550.51 314.562 550.229 313.799 549.232 313.3C549.232 313.3 549.232 313.3 549.092 312.919L548.951 312.538C547.954 312.039 547.673 311.276 546.098 311.422C542.948 311.715 543.245 310.307 542.685 308.782C544.12 308.255 545.555 307.727 546.709 306.437L547.427 306.174C548.565 307.054 549.563 307.553 550.998 307.025C556.301 305.942 558.436 307.321 559.994 309.345C560.275 310.107 561.272 310.606 562.13 310.723C562.691 312.248 563.828 313.129 565.684 313.745C565.964 314.507 566.962 315.006 567.96 315.505C569.955 316.503 570.656 318.409 572.511 319.025C576.626 323.572 582.035 327.21 586.586 330.73C590 333.37 593.414 336.011 598.122 337.742C599.4 339.004 600.538 339.884 602.971 339.855C604.423 337.158 601.413 337.831 599.557 337.215C599.277 336.452 598.997 335.69 598.717 334.927C599.434 334.664 600.011 334.019 600.011 334.019C600.729 333.755 601.009 334.517 601.867 334.635C603.005 335.515 604.86 336.131 606.575 336.366C607.433 336.484 608.291 336.602 609.586 335.693C610.881 334.784 609.883 334.285 609.025 334.168C607.17 333.551 604.597 333.199 602.741 332.582C602.181 331.057 598.89 330.968 598.19 329.062C597.629 327.537 599.782 326.746 601.934 325.955C605.225 326.044 605.208 328.214 607.781 328.566C612.91 331.442 617.899 333.936 625.04 335.639L625.18 336.02C625.32 336.401 626.895 336.255 628.471 336.109C628.471 336.109 628.471 336.109 628.33 335.728L628.19 335.347C627.647 331.651 622.501 330.946 617.932 329.596C617.652 328.833 617.232 327.689 615.657 327.836C615.236 326.692 613.381 326.076 611.525 325.459C608.672 324.344 606.256 322.203 606.133 319.651C608.706 320.004 609.3 317.189 611.593 316.779C611.296 318.187 611.576 318.949 611.279 320.357C610.702 321.002 610.842 321.383 611.839 321.882C611.839 321.882 611.98 322.263 612.12 322.644C612.837 322.38 612.977 322.762 613.835 322.879C614.973 323.759 617.546 324.112 619.401 324.728C625.371 329.891 632.495 333.764 642.787 335.175C642.227 333.65 641.089 332.77 640.528 331.245C640.108 330.101 637.395 329.367 634.822 329.014C628.678 327.81 626.7 324.643 625.438 321.211C627.591 320.42 628.869 321.681 630.024 320.391C631.896 318.838 629.323 318.485 629.043 317.723C628.903 317.341 628.903 317.341 628.763 316.96C630.338 316.814 631.195 316.931 632.053 317.049C634.766 317.783 636.762 318.781 639.475 319.515C641.47 320.512 644.183 321.246 648.909 320.808C646.493 318.666 644.935 316.642 642.362 316.29C637.356 315.966 634.363 314.469 632.087 312.709C632.664 312.064 633.102 311.038 633.819 310.774C638.561 308.166 638.578 305.996 637.02 303.972C637.457 302.945 637.894 301.919 636.319 302.065C634.604 301.83 634.324 301.068 634.621 299.66C636.773 298.869 638.646 297.315 635.215 296.845C635.075 296.464 634.935 296.083 634.077 295.965C635.232 294.675 633.657 294.821 632.082 294.968C631.942 294.586 631.942 294.586 631.084 294.469C630.944 294.087 630.226 294.351 630.804 293.706C633.674 292.651 636.107 292.623 638.82 293.357C640.535 293.592 642.25 293.827 644.123 292.273C645.995 290.72 644.857 289.839 643.142 289.604C642.284 289.487 642.144 289.106 641.286 288.988C643.439 288.197 646.169 286.761 648.742 287.113C654.465 287.174 659.033 288.524 664.179 289.229C666.612 289.201 668.467 289.817 670.059 287.501C671.074 285.83 671.808 283.396 669.376 283.425C663.793 283.746 662.952 281.458 660.676 279.698C657.823 278.583 654.392 278.112 651.539 276.997C648.966 276.645 646.971 275.647 645.552 274.004C640.704 271.892 635.855 269.779 630.149 267.548C625.16 265.054 619.454 262.824 615.76 259.421C614.622 258.541 613.624 258.042 611.769 257.426C611.769 257.426 612.486 257.162 612.346 256.781C612.206 256.4 612.206 256.4 611.488 256.663C610.07 255.021 608.075 254.023 605.221 252.908C604.381 250.62 603.54 248.333 602.699 246.045C605.586 242.82 605.586 242.82 601.018 241.47C600.16 241.352 600.16 241.352 599.302 241.235C599.162 240.854 599.162 240.854 599.162 240.854C596.449 240.12 595.031 238.477 591.741 238.388C590.025 238.153 589.605 237.009 589.185 235.865C589.185 235.865 589.902 235.602 589.762 235.22C589.762 235.22 589.622 234.839 588.904 235.103C589.044 235.484 588.904 235.103 588.047 234.985C587.907 234.604 587.766 234.223 587.486 233.46C591.074 232.142 591.197 234.693 594.347 234.401C602.329 238.391 608.613 239.977 612.481 239.421C613.355 237.368 609.488 237.924 609.785 236.517C611.22 235.989 613.075 236.606 614.23 235.316C615.385 234.026 615.105 233.263 614.107 232.764C613.249 232.647 613.686 231.621 612.829 231.503C608.4 230.534 605.985 228.393 602.991 226.896C596.724 223.141 588.585 220.939 584.908 215.366C584.628 214.604 583.053 214.75 581.478 214.896C579.919 212.872 576.926 211.376 576.085 209.088C574.107 205.92 569.975 203.544 566.702 201.285C561.433 198.028 557.459 193.863 552.189 190.606C551.192 190.108 550.911 189.345 550.631 188.583C549.51 185.532 546.237 183.273 543.243 181.777C538.395 179.664 536.713 175.089 528.557 175.057C528.557 175.057 527.699 174.94 527.559 174.558C527.296 171.626 523.725 170.774 521.449 169.014C518.893 166.492 516.337 163.969 509.319 164.817C508.462 164.7 508.462 164.7 507.604 164.582C507.901 163.175 505.328 162.822 505.906 162.177C507.358 159.48 505.642 159.244 502.492 159.537C499.342 159.829 501.511 156.868 499.078 156.896C496.645 156.925 493.635 157.599 491.64 156.601C491.5 156.22 491.219 155.457 491.079 155.076C490.799 154.313 489.801 153.815 488.803 153.316C488.663 152.935 488.663 152.935 488.523 152.553C489.818 151.645 488.82 151.146 488.103 151.41C485.95 152.201 484.952 151.702 484.095 151.584C483.097 151.085 482.677 149.942 481.819 149.824C476.393 148.356 471.544 146.243 468.131 143.603C465.995 142.224 463.282 141.49 459.991 141.401C456.701 141.312 453.27 140.842 453.427 139.053C453.444 136.883 451.729 136.648 448.439 136.559C445.288 136.852 441.858 136.382 440.002 135.765C438.007 134.768 435.574 134.796 432.861 134.062C432.02 131.775 429.027 130.278 426.034 128.782C424.178 128.165 421.168 128.839 419.89 127.578C415.479 124.438 406.465 124.289 400.759 122.059C397.905 120.944 393.617 120.356 390.046 119.504C385.338 117.773 379.912 116.305 374.766 115.6C365.472 114.688 357.91 111.841 348.616 110.929C340.757 109.49 333.616 107.787 325.32 107.374C320.892 106.405 317.478 103.765 309.866 107.428C310.426 108.953 311.564 109.833 311.844 110.596C311.984 110.977 311.984 110.977 312.124 111.358C309.972 112.149 307.819 112.941 308.38 114.466C308.94 115.991 308.783 117.779 307.051 119.714C307.769 119.451 309.204 118.923 309.921 118.66C309.064 118.542 307.629 119.069 307.051 119.714C303.918 117.837 303.918 117.837 298.475 118.539C295.622 117.424 292.051 116.572 289.775 114.812C285.784 112.817 277.768 113.166 279.674 107.273C280.112 106.246 274.388 106.186 272.953 106.713C270.941 107.886 271.939 108.385 272.359 109.528C270.347 110.701 272.342 111.698 270.33 112.871C269.612 113.134 269.612 113.134 268.895 113.398C267.6 114.307 266.305 115.216 266.725 116.359C266.989 119.292 266.534 122.488 268.233 124.893C269.791 126.917 264.331 129.789 265.89 131.813C266.17 132.576 263.877 132.986 262.442 133.513C259.712 134.949 257.122 136.766 259.118 137.764C261.534 139.906 261.22 143.483 263.636 145.625C264.493 145.742 264.774 146.505 265.631 146.622C266.052 147.766 266.332 148.528 266.752 149.672C266.018 152.106 266.859 154.394 268.994 155.772C268.277 156.036 267.84 157.062 266.124 156.827C265.126 156.328 264.269 156.211 262.694 156.357C261.836 156.24 261.259 156.884 260.541 157.148C261.259 156.884 261.976 156.621 262.694 156.357C260.978 156.122 260.121 156.004 258.405 155.769C257.548 155.652 256.113 156.179 255.535 156.824C254.661 158.877 251.354 160.958 252.772 162.6C253.192 163.744 253.612 164.888 253.455 166.677C252.878 167.322 252.301 167.967 251.723 168.612C251.847 171.163 251.83 173.333 248.663 175.795C247.508 177.085 247.928 178.229 248.926 178.728C250.064 179.608 252.059 180.605 252.48 181.749C254.318 184.536 257.889 185.387 262.177 185.975C263.175 186.474 264.032 186.591 265.608 186.445C269.616 186.27 268.461 187.56 266.729 189.495C262.844 192.221 262.984 192.603 258.276 190.871C255.142 188.993 250.277 189.05 247.861 186.909C247.861 186.909 247.003 186.792 246.285 187.055C245.725 185.53 243.572 186.321 241.42 187.112C240.422 186.614 239.424 186.115 237.849 186.261C235.854 185.263 234.435 183.621 230.428 183.795C229.57 183.678 228.852 183.942 227.995 183.824C228.852 183.942 228.993 184.323 230.428 183.795C229.307 180.745 225.018 180.158 222.025 178.661C217.86 180.625 214.693 183.087 213.381 186.166C213.521 186.547 213.801 187.309 213.942 187.691C215.377 187.163 216.672 186.255 217.249 185.61C217.966 185.346 217.966 185.346 217.966 185.346C216.531 185.873 215.096 186.401 213.942 187.691C213.364 188.336 213.364 188.336 212.787 188.981C212.209 189.626 212.209 189.626 211.632 190.271C206.452 193.905 206.452 193.905 209.866 196.546C210.006 196.927 210.864 197.044 211.004 197.426C211.284 198.188 212.282 198.687 213.28 199.186C214.575 198.277 213.157 196.635 216.027 195.58C216.027 195.58 216.027 195.58 216.744 195.316C215.589 196.606 213.577 197.778 213.997 198.922C215.275 200.183 216.553 201.445 218.986 201.416C220.124 202.296 221.402 203.558 223.117 203.793C224.395 205.054 224.378 207.224 226.374 208.222C227.232 208.339 226.794 209.366 226.357 210.392C223.47 213.617 226.183 214.351 229.614 214.821C231.329 215.056 232.327 215.555 232.747 216.698C233.027 217.461 233.308 218.224 234.305 218.722L233.728 219.367C232.153 219.513 230.578 219.66 229.003 219.806C228.863 219.425 228.442 218.281 227.007 218.808C225.572 219.336 226.57 219.834 227.568 220.333C230.701 222.211 233.117 224.352 236.391 226.611C236.11 225.849 235.97 225.468 235.69 224.705C235.97 225.468 235.393 226.113 236.391 226.611C238.823 226.583 241.974 226.29 241.676 227.698C241.222 230.894 246.088 230.837 247.646 232.861C247.209 233.887 241.469 235.997 245.757 236.585C245.757 236.585 246.755 237.083 246.037 237.347C242.573 241.217 247.876 240.133 249.871 241.131C250.869 241.63 253.442 241.983 255.314 240.429C255.454 240.81 255.454 240.81 255.595 241.191C256.312 240.928 256.592 241.69 257.45 241.808C258.308 241.925 259.165 242.043 260.6 241.515C260.6 241.515 260.6 241.515 261.458 241.633C261.458 241.633 261.458 241.633 261.318 241.252C261.458 241.633 261.458 241.633 261.598 242.014C262.596 242.513 263.594 243.012 264.591 243.511C265.152 245.036 269.16 244.861 269.003 246.65C268.425 247.295 268.425 247.295 268.285 246.914C264.417 247.47 260.987 246.999 256.839 246.793C255.981 246.675 255.981 246.675 255.124 246.558C254.406 246.821 253.548 246.704 253.408 246.323C251.413 245.325 249.557 244.709 246.11 246.408C243.677 246.437 241.822 245.821 239.966 245.204C239.109 245.087 239.109 245.087 238.251 244.969C235.975 243.209 230.97 242.885 228.694 241.125C227.416 239.863 226.138 238.602 224.72 236.959C220.117 239.949 223.111 241.446 222.954 243.234C221.939 244.906 224.075 246.285 221.485 248.102C223.48 249.1 223.463 251.27 224.882 252.912C223.727 254.202 223.867 254.583 225.582 254.819C223.85 256.753 225.128 258.015 225.548 259.159C223.536 260.331 223.956 261.475 223.519 262.501C221.507 263.673 220.492 265.345 217.919 264.992C217.639 264.229 217.359 263.467 215.643 263.232C215.503 262.851 215.503 262.85 215.363 262.469C213.087 260.709 211.389 258.304 205.946 259.006C203.967 255.838 200.974 254.342 196.249 254.78C198.805 257.303 203.233 258.272 206.226 259.769C207.364 260.649 208.502 261.529 210.357 262.145C211.355 262.644 212.213 262.762 211.058 264.051C209.343 263.816 208.205 262.936 205.772 262.965C204.898 265.017 202.308 266.835 203.726 268.477C203.272 271.674 204.97 274.079 206.669 276.484C205.917 281.088 205.884 285.428 205.132 290.031C205.272 290.413 204.555 290.676 204.695 291.058C203.978 291.321 203.82 293.11 201.965 292.494C200.11 291.877 198.972 290.997 198.551 289.854C199.146 287.039 196.292 285.923 193.439 284.808C191.987 287.506 191.987 287.506 194.841 288.621C196.556 288.856 196.836 289.618 197.116 290.381C196.679 291.407 196.242 292.433 194.807 292.961C193.809 292.462 193.092 292.726 191.657 293.253C191.516 292.872 190.519 292.373 189.661 292.256C190.536 290.203 189.398 289.323 186.387 289.997C184.655 291.931 186.511 292.548 187.508 293.047C188.646 293.927 189.207 295.452 190.345 296.332C189.47 298.384 191.326 299.001 193.181 299.617C193.742 301.142 194.442 303.048 195.72 304.31C196.578 304.427 196.718 304.809 196.141 305.454C194.408 307.388 196.841 307.36 198.697 307.976C198.119 308.621 198.259 309.003 197.682 309.647C196.684 309.149 195.827 309.031 194.829 308.532C193.831 308.033 192.396 308.561 191.101 309.47C189.246 308.853 188.108 307.973 185.535 307.62C184.363 311.08 189.229 311.023 189.352 313.575C190.35 314.073 190.63 314.836 191.628 315.335C191.768 315.716 191.768 315.716 191.908 316.097C192.328 317.241 194.044 317.476 195.182 318.356C196.32 319.236 194.885 319.764 193.59 320.672C193.59 320.672 193.59 320.672 193.012 321.317L193.152 321.699C192.575 322.344 192.715 322.725 193.433 322.461C194.57 323.341 196.426 323.958 197.704 325.219C197.127 325.864 196.689 326.89 198.264 326.744C199.84 326.598 200.26 327.742 200.54 328.504C200.243 329.912 202.098 330.528 200.226 332.082C197.653 331.729 196.953 329.823 193.085 330.379C191.072 331.551 193.068 332.549 191.056 333.721C189.48 333.867 189.06 332.723 187.345 332.488C186.487 332.371 186.347 331.99 185.629 332.253C182.776 331.138 182.042 333.572 180.029 334.744C180.17 335.125 180.17 335.125 180.31 335.507C180.887 334.862 180.887 334.862 180.029 334.744C179.032 334.245 177.176 333.629 176.179 333.13C175.758 331.986 175.915 330.198 172.187 331.135C170.035 331.926 170.332 330.519 169.474 330.401C169.194 329.638 168.196 329.14 166.481 328.905C165.343 328.024 163.628 327.789 162.49 326.909C162.21 326.147 161.93 325.384 160.494 325.912C157.641 324.796 156.083 322.773 155.242 320.485C155.102 320.104 154.245 319.986 153.387 319.869C153.387 319.869 152.669 320.132 152.809 320.514C152.95 320.895 153.807 321.012 154.525 320.749C154.805 321.511 152.652 322.302 152.215 323.329L151.498 323.592C151.498 323.592 151.498 323.592 151.358 323.211C151.217 322.83 151.077 322.449 150.937 322.067L150.797 321.686C151.515 321.422 150.797 321.686 150.937 322.067C148.364 321.715 147.944 320.571 148.959 318.9C149.256 317.492 148.258 316.993 147.26 316.494C146.98 315.732 146.84 315.351 145.265 315.497C143.566 313.092 141.15 310.95 136.862 310.363C135.988 312.415 133.538 314.614 131.088 316.812C131.509 317.956 131.789 318.719 132.209 319.862C131.772 320.889 131.912 321.27 132.192 322.032C133.47 323.294 135.466 324.291 136.026 325.816C135.729 327.224 137.445 327.459 138.582 328.339C137.865 328.603 138.005 328.984 137.288 329.248C136.57 329.511 136.71 329.893 136.85 330.274C138.986 331.653 139.687 333.559 140.387 335.466C140.948 336.991 142.226 338.252 144.659 338.223C144.799 338.605 144.939 338.986 145.656 338.722C145.656 338.722 146.374 338.458 146.234 338.077C146.234 338.077 145.516 338.341 145.656 338.722C147.215 340.746 144.468 344.352 148.756 344.94C148.145 349.925 153.571 351.393 157.702 353.769C160.275 354.122 158.963 357.201 162.254 357.29C162.954 359.196 166.385 359.666 165.65 362.1C164.933 362.364 164.215 362.627 164.215 362.627C159.63 363.447 159.63 363.447 160.471 365.735L160.611 366.116L161.329 365.852C161.329 365.852 161.329 365.852 160.471 365.735C159.176 366.643 158.599 367.288 157.881 367.552C157.741 367.171 157.741 367.171 157.023 367.434C155.886 366.554 154.608 365.293 152.752 364.677C152.909 362.888 150.914 361.89 149.636 360.629C151.788 359.838 153.083 358.929 150.51 358.576C150.527 356.406 148.234 356.816 145.084 357.109C143.369 356.873 143.806 355.847 142.808 355.348C142.388 354.205 142.108 353.442 141.687 352.298C143.122 351.771 143.543 352.915 144.978 352.387C145.415 351.361 144.417 350.862 143.559 350.745C141.127 350.773 141.547 351.917 141.687 352.298C140.97 352.562 140.97 352.562 140.252 352.826C140.112 352.444 140.112 352.444 139.972 352.063C139.692 351.301 139.411 350.538 139.131 349.776C139.709 349.131 139.568 348.749 140.146 348.104C139.148 347.606 137.853 348.514 136.995 348.397C136.278 348.66 136.278 348.66 135.56 348.924C135.28 348.162 135.717 347.135 133.425 347.545C131.99 348.073 130.695 348.981 130.975 349.744C131.255 350.506 131.396 350.888 129.96 351.415C129.103 351.298 128.245 351.18 127.965 350.417C126.687 349.156 124.955 351.091 124.237 351.355C123.957 350.592 122.819 349.712 121.524 350.621C119.512 351.793 121.227 352.028 122.085 352.146C122.225 352.527 123.082 352.645 123.363 353.407C123.643 354.17 123.923 354.932 124.204 355.695C124.344 356.076 124.344 356.076 124.484 356.457C123.189 357.366 122.611 358.011 122.892 358.774C121.457 359.301 120.022 359.828 121.16 360.708C122.438 361.97 124.31 360.416 125.745 359.889L125.605 359.507C125.605 359.507 125.605 359.507 125.027 360.152C126.586 362.176 123.435 362.469 121.283 363.26C118.413 364.315 117.135 363.053 115.997 362.173C114.859 361.293 117.168 358.713 113.301 359.269C113.458 357.48 110.885 357.128 108.889 356.13C107.034 355.514 106.877 357.303 106.159 357.566C106.002 359.355 107.998 360.353 109.136 361.233C109.416 361.995 109.556 362.376 110.414 362.494C111.271 362.612 111.271 362.612 110.694 363.257C113.407 363.991 114.108 365.897 116.243 367.276C117.241 367.775 118.239 368.273 118.519 369.036C121.793 371.295 126.081 371.883 128.357 373.643C129.074 373.379 129.214 373.76 129.495 374.523C129.635 374.904 129.775 375.285 129.915 375.667C131.49 375.521 131.63 375.902 131.91 376.664C132.051 377.046 132.051 377.046 132.191 377.427C132.191 377.427 131.473 377.691 131.613 378.072C131.753 378.453 131.753 378.453 132.471 378.189C132.611 378.571 132.611 378.571 132.751 378.952C132.751 378.952 133.469 378.688 134.186 378.424C134.186 378.424 134.186 378.424 134.326 378.806C133.609 379.069 133.469 378.688 132.751 378.952C132.314 379.978 130.599 379.743 129.881 380.007C129.164 380.27 128.306 380.153 126.871 380.68L126.731 380.299C125.873 380.181 125.873 380.181 126.451 379.536C126.31 379.155 124.735 379.301 125.173 378.275C127.325 377.484 127.903 376.839 126.047 376.223C125.189 376.105 125.189 376.105 124.332 375.988C124.052 375.225 123.194 375.107 122.336 374.99C117.314 376.836 122.179 376.779 121.742 377.805C122.162 378.949 121.305 378.831 119.87 379.359C119.152 379.622 119.573 380.766 118.278 381.675C115.862 379.533 113.586 377.773 111.17 375.632C109.892 374.37 107.897 373.373 106.759 372.493C105.901 372.375 105.621 371.613 104.763 371.495C104.046 371.759 103.188 371.641 103.048 371.26C104.062 369.589 102.925 368.709 100.492 368.737C100.212 367.975 99.9313 367.212 99.2138 367.476C97.7787 368.003 98.7765 368.502 99.0568 369.265C97.3246 371.2 99.7574 371.171 100.895 372.051C100.318 372.696 100.598 373.459 101.456 373.576C101.596 373.957 101.596 373.957 101.736 374.339C102.594 374.456 102.594 374.456 103.451 374.574C104.869 376.216 105.57 378.123 107.706 379.502C109.982 381.262 113.832 382.876 114.096 385.808C113.378 386.072 111.663 385.837 111.803 386.218C112.504 388.125 111.052 390.822 113.905 391.937C114.045 392.318 114.045 392.318 114.185 392.7C114.903 392.436 115.183 393.198 116.041 393.316C117.319 394.577 118.457 395.457 120.312 396.074C122.728 398.215 124.426 400.62 127.42 402.117C130.553 403.995 133.687 405.872 136.102 408.014C135.525 408.659 134.23 409.567 133.513 409.831C133.232 409.069 132.235 408.57 131.377 408.452C126.074 409.536 127.666 407.219 126.966 405.313C126.108 405.196 126.108 405.196 125.531 405.841C124.953 406.485 124.953 406.485 124.095 406.368C123.098 405.869 122.38 406.133 120.945 406.66C120.805 406.279 120.805 406.279 120.665 405.898C122.817 405.107 124.97 404.315 122.974 403.318C122.257 403.582 122.117 403.2 121.259 403.083C120.261 402.584 119.561 400.678 116.253 402.759C117.986 400.824 117.565 399.68 114.118 401.38C113.4 401.643 112.823 402.288 111.388 402.816C110.39 402.317 109.673 402.581 108.238 403.108C107.677 401.583 105.962 401.348 103.092 402.403C102.234 402.285 101.376 402.168 99.9414 402.695C99.8013 402.314 99.8013 402.314 98.9437 402.196C99.521 401.551 99.5211 401.551 100.098 400.906C99.9583 400.525 99.6781 399.763 99.5379 399.381C100.115 398.736 100.115 398.736 99.2577 398.619C99.1176 398.238 99.1176 398.238 98.9774 397.856C97.2622 397.621 97.279 395.451 93.4112 396.007C94.1118 397.913 95.9672 398.53 96.3876 399.674C97.1051 399.41 97.1051 399.41 97.8226 399.146C97.9628 399.527 97.9628 399.527 98.8204 399.645C98.9605 400.026 98.9605 400.026 99.1007 400.408C97.8058 401.316 97.2284 401.961 97.2284 401.961C96.5109 402.225 95.0758 402.752 94.3583 403.016C93.5007 402.899 93.5007 402.898 92.643 402.781C92.3628 402.018 92.2227 401.637 91.9424 400.875L91.8023 400.493C91.6622 400.112 90.8045 399.995 90.087 400.258C89.8068 399.496 89.5265 398.733 87.8112 398.498C87.6711 398.117 87.6711 398.117 87.531 397.736C87.2507 396.973 87.1106 396.592 85.5354 396.738C84.958 397.383 84.958 397.383 84.1004 397.265C83.3829 397.529 82.6654 397.793 81.9479 398.056C81.2304 398.32 80.653 398.965 80.653 398.965C80.9332 399.728 81.6507 399.464 82.3682 399.2C83.0858 398.937 83.8033 398.673 84.5208 398.409C84.6609 398.79 84.6609 398.79 84.801 399.172C83.4893 402.25 86.3424 403.366 88.338 404.363C88.4781 404.744 88.6182 405.126 88.8985 405.888C89.7561 406.006 89.7561 406.006 90.6138 406.123C90.7539 406.505 90.7539 406.505 90.894 406.886C90.1765 407.15 90.1765 407.15 89.459 407.413C87.8838 407.559 87.7437 407.178 87.4634 406.416C86.6058 406.298 86.6058 406.298 85.7482 406.181C84.8905 406.063 84.8905 406.063 84.0329 405.945C83.8928 405.564 83.8928 405.564 83.7526 405.183C83.7526 405.183 83.7526 405.183 83.6125 404.802L83.4724 404.42C83.1921 403.658 82.9119 402.895 82.6316 402.133C82.4915 401.752 81.9141 402.397 81.0565 402.279C80.339 402.543 79.3412 402.044 78.0463 402.953C77.3288 403.216 77.1886 402.835 76.331 402.717C74.3355 401.72 74.3524 399.55 71.7794 399.197C71.0619 399.461 71.202 399.842 70.4845 400.106C71.7625 401.367 73.7581 402.365 74.896 403.245C75.1762 404.007 75.3164 404.389 76.8915 404.243C77.452 405.768 79.4475 406.765 80.0081 408.29C80.2883 409.053 80.4284 409.434 81.2861 409.552C82.7211 409.024 82.1437 409.669 82.2838 410.05C82.5641 410.813 82.7042 411.194 84.2794 411.048C84.4195 411.429 84.5596 411.811 84.8399 412.573C85.5574 412.309 85.5574 412.309 86.2749 412.046C85.5574 412.309 85.4173 411.928 84.8399 412.573C84.1224 412.837 84.1224 412.837 83.4048 413.101C82.5472 412.983 82.5472 412.983 81.6896 412.865C80.8319 412.748 80.8319 412.748 80.2545 413.393C81.3924 414.273 80.5179 416.325 82.3733 416.942C84.509 418.321 85.3497 420.608 88.0628 421.342C88.4832 422.486 85.8934 424.303 89.1838 424.392C90.1647 427.061 92.4405 428.821 94.7163 430.581C95.714 431.08 95.714 431.08 96.5717 431.198C96.9921 432.342 97.9898 432.84 99.1277 433.72C99.408 434.483 99.5481 434.864 101.123 434.718C101.263 435.099 101.544 435.862 103.119 435.716C104.537 437.358 106.813 439.118 110.961 439.325C113.797 442.61 117.211 445.25 118.035 449.708C118.175 450.089 119.032 450.207 119.032 450.207C119.173 450.588 119.173 450.588 120.03 450.706C120.17 451.087 120.17 451.087 119.593 451.732C117.44 452.523 116.863 453.168 118.718 453.784C118.859 454.166 119.139 454.928 119.996 455.046L120.714 454.782L121.431 454.518C121.291 454.137 120.574 454.401 119.996 455.046C120.994 455.545 122.132 456.425 122.552 457.568C122.833 458.331 123.113 459.093 123.533 460.237C124.951 461.88 127.367 464.021 128.926 466.045C128.926 466.045 129.066 466.426 128.348 466.69L127.631 466.954C125.198 466.982 126.072 464.93 122.782 464.841C123.623 467.129 123.606 469.299 127.614 469.124C127.894 469.886 127.597 471.294 128.595 471.793C131.151 474.315 132.849 476.721 133.83 479.389C133.97 479.771 134.25 480.533 132.956 481.442C132.815 481.061 132.675 480.679 131.818 480.562C131.537 479.799 130.68 479.682 129.682 479.183C129.542 478.802 129.979 477.775 127.686 478.185C126.251 478.713 123.819 478.741 124.239 479.885C124.659 481.029 126.532 479.475 127.249 479.211C127.389 479.593 127.389 479.593 127.529 479.974C127.81 480.737 128.09 481.499 128.51 482.643L128.65 483.024C128.791 483.405 128.931 483.787 129.071 484.168C129.788 483.904 129.211 484.549 129.351 484.93C129.491 485.312 129.771 486.074 130.489 485.811C130.909 486.954 131.19 487.717 131.61 488.861C131.89 489.623 132.311 490.767 131.016 491.676C130.438 492.321 131.436 492.819 130.859 493.464C130.999 493.846 131.997 494.344 132.854 494.462C133.135 495.225 133.415 495.987 133.555 496.368C133.835 497.131 133.975 497.512 134.833 497.63C134.973 498.011 134.973 498.011 135.113 498.392C134.396 498.656 132.961 499.183 132.243 499.447C131.683 497.922 131.98 496.514 129.407 496.162C129.407 496.162 129.267 495.781 128.549 496.044C126.974 496.19 127.271 494.783 125.836 495.31C124.541 496.219 126.257 496.454 126.537 497.217C126.677 497.598 127.535 497.715 128.392 497.833C129.53 498.713 129.373 500.502 130.511 501.382C132.052 505.576 132.736 509.652 137.007 512.41C137.428 513.554 137.131 514.961 139.563 514.933C140.421 515.05 141.279 515.168 141.279 515.168C141.139 514.787 140.999 514.405 140.858 514.024C140.281 514.669 140.421 515.05 141.279 515.168C140.247 519.009 144.098 520.623 147.232 522.501C147.372 522.882 147.372 522.882 148.229 523C151.066 526.285 155.914 528.398 158.033 531.947C159.591 533.97 161.867 535.731 164.86 537.227C172.125 541.481 177.377 546.908 185.219 550.517C188.353 552.395 190.629 554.155 194.917 554.743C194.479 555.769 195.477 556.268 196.912 555.74C197.193 556.503 197.613 557.647 199.188 557.501C199.468 558.263 200.326 558.381 201.184 558.498C202.041 558.616 202.181 558.997 202.181 558.997C203.319 559.877 205.315 560.875 206.453 561.755C207.45 562.254 207.731 563.016 207.434 564.424C205.842 566.74 206.542 568.646 208.818 570.406C209.816 570.905 210.236 572.049 211.374 572.929C211.514 573.31 211.514 573.31 210.937 573.955C210.219 574.219 210.219 574.219 209.502 574.483C207.069 574.511 208.381 571.433 204.653 572.37C203.638 574.041 205.494 574.657 205.914 575.801C206.194 576.564 208.05 577.18 206.178 578.734C204.462 578.499 203.324 577.619 202.186 576.738C202.641 573.542 198.162 579.083 197.461 577.177C194.731 578.613 197.881 578.321 197.304 578.966C197.444 579.347 197.584 579.728 197.724 580.11C196.289 580.637 194.714 580.783 195.135 581.927C196.272 582.807 193.543 584.243 193.245 585.651C193.386 586.032 193.526 586.413 193.666 586.794C192.231 587.322 191.67 585.797 188.94 587.233C190.936 588.23 192.354 589.873 195.067 590.607C196.048 593.276 200.336 593.864 201.894 595.887C201.457 596.914 202.455 597.412 203.313 597.53C203.453 597.911 204.45 598.41 204.731 599.173C204.871 599.554 204.871 599.554 205.011 599.935C205.728 599.671 205.869 600.053 206.726 600.17C206.866 600.552 206.866 600.552 207.006 600.933C207.864 601.05 208.004 601.432 209.002 601.93C209.142 602.312 209.142 602.312 209.282 602.693C210 602.429 210.14 602.811 210.857 602.547C213.57 603.281 214.989 604.923 217.124 606.302C222.113 608.796 227.242 611.672 233.526 613.257C234.243 612.993 234.961 612.73 234.961 612.73C234.243 612.993 233.526 613.257 233.526 613.257C234.507 615.926 238.655 616.132 241.508 617.248L242.085 616.603C242.085 616.603 242.085 616.603 241.508 617.248C247.354 619.859 253.341 622.852 259.905 625.2C265.471 627.049 269.743 629.807 276.464 630.366C280.875 633.505 287.876 634.827 293.583 637.057C295.578 638.055 297.434 638.671 300.724 638.76C300.864 639.141 300.864 639.141 301.004 639.523C311.419 643.485 323.706 645.893 335.416 648.946C336.274 649.064 337.849 648.918 339.564 649.153C344.133 650.503 348.124 652.498 355.282 652.031C357.558 653.791 360.988 654.262 364.279 654.351C364.559 655.113 366.134 654.967 367.709 654.821C370.563 655.936 375.288 655.497 378.141 656.613C380.854 657.347 383.567 658.081 386.718 657.788C394.717 659.609 403.293 660.784 414.039 658.999C420.48 658.795 425.766 659.882 432.346 660.06C432.487 660.441 433.204 660.177 433.922 659.914C434.639 659.65 434.779 660.031 435.497 659.767C437.632 661.146 441.36 660.209 444.651 660.298C445.368 660.034 445.945 659.389 445.805 659.008C447.257 656.311 444.107 656.603 441.534 656.25C441.114 655.106 439.258 654.49 437.543 654.255C432.677 654.312 429.404 652.053 424.398 651.729C420.11 651.141 418.271 648.355 412.828 649.057C412.688 648.676 411.971 648.94 411.971 648.94C411.831 648.558 411.113 648.822 410.973 648.441C410.833 648.06 410.115 648.323 409.975 647.942C409.835 647.561 409.118 647.824 409.118 647.824L408.977 647.443C405.547 646.973 403.691 646.357 401.119 646.004C401.556 644.978 402.273 644.714 403.708 644.187C408.574 644.129 413.58 644.453 418.305 644.015C426.321 643.665 433.759 643.961 441.355 642.468C442.073 642.204 442.073 642.204 442.93 642.321C443.648 642.058 443.648 642.058 444.505 642.175C446.938 642.147 449.668 640.711 452.101 640.682C452.241 641.063 452.241 641.063 452.381 641.445C453.239 641.562 454.674 641.035 455.531 641.152C463.547 640.803 472.281 640.189 480.874 639.195L481.591 638.931C485.74 639.138 489.888 639.344 493.598 640.577C493.879 641.34 495.314 640.812 496.171 640.93C496.889 640.666 497.747 640.784 498.464 640.52C499.462 641.019 499.602 641.4 500.46 641.517C501.317 641.635 501.317 641.635 501.895 640.99C501.895 640.99 501.895 640.99 502.035 641.371C502.035 641.371 501.177 641.254 500.46 641.517C500.6 641.899 500.74 642.28 502.175 641.753C502.892 641.489 504.327 640.961 505.045 640.698C505.185 641.079 505.185 641.079 505.325 641.46C505.465 641.841 506.323 641.959 507.04 641.695L507.758 641.432L508.475 641.168C510.611 642.547 514.479 641.991 517.052 642.343C517.192 642.725 517.332 643.106 518.19 643.224C520.623 643.195 522.198 643.049 522.215 640.879C522.215 640.879 523.509 639.97 524.227 639.706C524.945 639.443 525.662 639.179 527.097 638.652C527.815 638.388 527.955 638.769 528.672 638.505C536.251 639.182 546.139 637.279 555.013 637.047C556.01 637.546 557.445 637.018 558.88 636.491C562.031 636.199 565.618 634.88 568.191 635.233C568.909 634.969 570.484 634.823 571.201 634.559C571.919 634.295 572.059 634.677 572.777 634.413C573.494 634.149 574.352 634.267 575.069 634.003C575.787 633.739 576.504 633.476 577.222 633.212C577.659 632.186 579.234 632.04 579.812 631.395L580.529 631.131L581.247 630.867C583.539 630.457 583.539 630.457 583.416 627.906C587.581 625.943 591.012 626.413 595.457 625.212C596.752 624.303 598.764 623.131 600.917 622.34C603.069 621.548 604.925 622.165 606.657 620.23C607.374 619.966 608.092 619.702 609.527 619.175C610.244 618.911 611.679 618.384 612.397 618.12C612.537 618.501 613.395 618.619 613.535 619C614.252 618.737 614.392 619.118 614.532 619.499C615.25 619.235 615.827 618.59 616.405 617.945C617.84 617.418 619.275 616.891 620.71 616.363C625.015 614.781 623.16 614.165 621.444 613.929C622.162 613.666 622.879 613.402 623.597 613.138C626.747 612.846 629.337 611.029 631.77 611C632.627 611.118 633.485 611.235 634.92 610.708C636.215 609.799 636.932 609.535 637.93 610.034C640.223 609.624 642.515 609.214 645.245 607.778C645.963 607.515 646.68 607.251 647.538 607.368C649.253 607.604 651.546 607.194 652.981 606.666C652.561 605.523 650.986 605.669 649.988 605.17C649.708 604.407 649.567 604.026 648.132 604.553ZM622.974 270.185C622.256 270.449 622.536 271.212 621.959 271.857C622.396 270.83 623.114 270.567 622.974 270.185ZM627.529 530.766C627.389 530.385 628.246 530.503 627.529 530.766ZM136.373 373.293C137.37 373.792 137.651 374.555 138.071 375.698C138.368 374.291 138.088 373.528 136.373 373.293ZM158.924 343.799L158.347 344.444C158.207 344.063 158.207 344.063 158.924 343.799ZM621.532 308.366C622.249 308.102 623.824 307.956 623.247 308.601L623.387 308.982C623.247 308.601 623.107 308.22 621.532 308.366ZM620.527 529.445C621.245 529.181 621.245 529.181 620.527 529.445ZM146.089 503.879C145.371 504.143 145.371 504.143 146.089 503.879ZM137.63 487.513C138.208 486.868 138.208 486.868 137.63 487.513C138.208 486.868 137.49 487.132 137.63 487.513C138.348 487.25 138.348 487.25 137.63 487.513ZM265.36 236.737L265.937 236.092C266.077 236.473 266.077 236.473 266.217 236.855C266.217 236.855 266.077 236.473 265.36 236.737ZM285.742 210.204L286.6 210.322C286.6 210.322 285.882 210.585 285.742 210.204ZM531.66 622.26C531.801 622.642 531.801 622.642 531.66 622.26ZM114.42 417.714C113.703 417.977 113.703 417.977 114.42 417.714ZM215.473 340.326C215.333 339.945 215.333 339.945 215.473 340.326ZM277.468 225.363C278.185 225.099 278.185 225.099 277.468 225.363ZM512.252 321.266C512.392 321.647 512.392 321.647 512.252 321.266ZM160.962 431.334C160.822 430.953 160.822 430.953 160.962 431.334ZM245.973 319.163C245.833 318.782 245.833 318.782 245.973 319.163ZM496.846 186.279L496.129 186.543C496.129 186.543 496.129 186.543 495.989 186.162C496.129 186.543 496.129 186.543 496.846 186.279ZM578.76 380.345C578.619 379.964 578.619 379.964 578.76 380.345ZM263.222 290.753C263.362 291.134 263.362 291.134 263.222 290.753ZM279.2 591.277C278.483 591.541 278.623 591.922 277.905 592.186C277.765 591.805 278.483 591.541 279.2 591.277ZM253.908 586.724C254.766 586.842 255.624 586.959 255.624 586.959C254.766 586.842 254.626 586.461 253.908 586.724ZM363.985 177.12C362.41 177.266 360.834 177.412 359.68 178.702C361.115 178.175 362.41 177.266 363.985 177.12ZM331.428 168.313C331.568 168.694 331.568 168.694 331.428 168.313ZM487.833 370.055C487.833 370.055 487.115 370.318 486.258 370.201C486.975 369.937 486.975 369.937 487.833 370.055ZM547.67 422.065C548.388 421.801 548.528 422.183 548.668 422.564C547.81 422.446 547.67 422.065 546.235 422.593C546.953 422.329 547.67 422.065 547.67 422.065ZM552.863 527.049C552.723 526.668 552.723 526.668 552.723 526.668L553.441 526.404C553.581 526.786 553.581 526.786 552.863 527.049ZM365.98 178.117L365.84 177.736C366.558 177.472 366.698 177.854 365.98 178.117C366.698 177.854 366.698 177.854 365.98 178.117ZM477.44 197.739C476.722 198.003 475.287 198.531 475.287 198.531C475.287 198.531 475.147 198.149 475.865 197.886C477.159 196.977 477.3 197.358 477.44 197.739ZM535.489 240.453C536.207 240.19 536.207 240.19 535.489 240.453ZM468.37 370.283C467.653 370.547 467.653 370.547 468.37 370.283ZM483.46 380.317L482.603 380.199C483.32 379.936 483.46 380.317 483.46 380.317ZM282.431 506.999C281.574 506.881 280.856 507.145 280.856 507.145C280.856 507.145 280.856 507.145 280.716 506.764C280.716 506.764 280.716 506.764 280.856 507.145C281.574 506.881 281.574 506.881 282.431 506.999ZM310.349 266.075C311.066 265.811 311.206 266.193 311.206 266.193C311.206 266.193 311.206 266.193 310.349 266.075ZM501.498 416.099L501.638 416.48C500.78 416.362 500.78 416.362 501.498 416.099C500.64 415.981 500.78 416.362 501.498 416.099ZM387.879 618.845C387.021 618.728 387.162 619.109 387.879 618.845C387.021 618.728 387.021 618.728 387.879 618.845C388.456 618.2 387.739 618.464 387.879 618.845ZM406.944 209.8L406.087 209.683C406.804 209.419 406.804 209.419 406.944 209.8ZM390.313 195.573C390.453 195.954 390.453 195.954 390.313 195.573C390.313 195.573 389.596 195.837 389.456 195.455C389.456 195.455 389.456 195.455 389.316 195.074C389.596 195.837 389.596 195.837 390.313 195.573ZM542.921 278.402C542.781 278.021 542.781 278.021 542.921 278.402ZM351.632 495.847L352.349 495.583C352.349 495.583 352.349 495.583 351.632 495.847ZM407.882 365.251C407.601 364.488 408.179 363.843 408.896 363.58C408.319 364.225 407.741 364.87 407.882 365.251ZM429.736 590.911C429.736 590.911 430.454 590.648 430.594 591.029C429.876 591.293 429.299 591.938 428.722 592.582C429.299 591.938 429.876 591.293 429.736 590.911ZM354.781 550.949C355.498 550.685 355.498 550.685 356.075 550.04C356.216 550.421 355.498 550.685 354.781 550.949ZM430.156 224.206L430.734 223.561C430.874 223.942 430.874 223.942 430.156 224.206ZM435.513 289.748C434.796 290.012 434.796 290.012 435.513 289.748ZM465.021 285.827C465.161 286.208 465.161 286.208 465.301 286.59C464.584 286.853 464.444 286.472 463.726 286.736C463.586 286.355 464.303 286.091 465.021 285.827ZM452.683 473.854C452.106 474.499 452.106 474.499 452.683 473.854C452.543 473.472 451.966 474.117 452.683 473.854ZM415.399 520.88C415.399 520.88 416.257 520.997 415.54 521.261C415.54 521.261 415.54 521.261 415.399 520.88ZM448.034 556.489C447.894 556.108 447.894 556.108 448.034 556.489ZM419.777 528.359L419.917 528.74C419.777 528.359 419.06 528.622 418.202 528.505C419.06 528.622 419.777 528.359 419.777 528.359ZM299.017 361.553C298.299 361.817 297.722 362.462 297.145 363.107C297.862 362.843 298.44 362.198 299.017 361.553ZM381.575 362.369C380.998 363.014 380.42 363.659 379.843 364.304C378.268 364.45 378.127 364.069 377.987 363.688C377.847 363.307 377.847 363.307 377.847 363.307C379.282 362.779 380.857 362.633 381.575 362.369ZM451.36 496.844C451.937 496.199 451.937 496.199 451.36 496.844ZM316.323 472.904C316.901 472.259 317.478 471.614 317.198 470.852C316.621 471.497 316.901 472.259 316.323 472.904ZM370.829 364.155C371.547 363.891 371.547 363.891 370.829 364.155C371.406 363.51 371.406 363.51 370.829 364.155C370.689 363.774 370.689 363.774 370.829 364.155ZM327.944 469.066L327.804 468.685C327.804 468.685 328.521 468.421 329.379 468.539C329.379 468.539 328.661 468.802 327.944 469.066ZM424.589 461.676C424.729 462.057 424.729 462.057 424.589 461.676ZM316.308 419.68C316.448 420.061 316.448 420.061 316.308 419.68ZM346.057 403.12C346.197 403.501 345.48 403.765 346.057 403.12C345.34 403.384 345.48 403.765 346.057 403.12ZM388.461 452.017C387.744 452.281 387.744 452.281 387.167 452.926C387.744 452.281 388.461 452.017 388.461 452.017ZM375.003 453.069L374.285 453.332C374.285 453.332 374.285 453.332 375.003 453.069ZM361.577 449.78C360.86 450.044 361 450.425 361.577 449.78ZM403.019 438.444L403.877 438.562C403.877 438.562 403.737 438.18 403.019 438.444ZM395.895 434.571C395.177 434.835 395.177 434.835 395.895 434.571ZM352.616 387.727C353.334 387.463 353.334 387.463 352.616 387.727ZM308.775 394.752L308.058 395.015C306.623 395.543 306.342 394.78 306.062 394.018C306.202 394.399 307.2 394.898 308.775 394.752ZM331.746 421.796L331.606 421.414C331.746 421.796 331.746 421.796 331.746 421.796ZM416.372 432.671C415.654 432.935 415.654 432.935 416.372 432.671ZM373.995 417.087C374.135 417.468 374.135 417.468 373.995 417.087ZM300.479 394.339C301.477 394.837 301.617 395.219 301.039 395.864C301.617 395.219 301.337 394.456 300.479 394.339ZM436.994 448.894C436.994 448.894 436.854 448.512 436.136 448.776C436.136 448.776 436.854 448.512 436.994 448.894ZM356.529 362.919C357.247 362.655 357.247 362.655 356.529 362.919ZM427.015 315.375C426.875 314.994 426.875 314.994 427.015 315.375C427.732 315.112 428.59 315.229 428.59 315.229C427.732 315.112 427.732 315.112 427.015 315.375ZM410.238 283.025C410.956 282.761 410.956 282.761 410.238 283.025ZM418.938 286.752C419.796 286.869 419.796 286.869 418.938 286.752ZM425.951 268.162C426.669 267.898 428.244 267.752 428.681 266.726C428.104 267.371 426.669 267.898 425.951 268.162ZM434.083 308.017C433.366 308.281 433.366 308.281 434.083 308.017ZM332.885 367.281C332.308 367.926 332.308 367.926 331.013 368.835C330.873 368.454 330.873 368.454 330.733 368.073C332.168 367.545 332.168 367.545 332.885 367.281ZM446.377 456.697C447.095 456.433 447.095 456.433 446.377 456.697ZM417.329 291.238C418.047 290.974 418.047 290.974 417.329 291.238ZM412.588 238.452C412.448 238.071 412.448 238.071 412.588 238.452ZM373.343 280.14C373.203 279.759 373.203 279.759 373.92 279.495C374.06 279.877 374.778 279.613 374.778 279.613C374.06 279.877 373.343 280.14 373.343 280.14ZM320.649 358.363C321.366 358.099 321.506 358.481 322.224 358.217C321.646 358.862 321.069 359.507 320.492 360.152C321.069 359.507 320.789 358.744 320.649 358.363ZM324.309 366.106C324.449 366.487 324.449 366.487 324.309 366.106ZM297.697 457.679C297.557 457.298 296.839 457.562 297.697 457.679C296.839 457.562 296.839 457.562 296.839 457.562C297.557 457.298 297.557 457.298 297.697 457.679ZM452.318 483.941C451.601 484.205 451.601 484.205 452.318 483.941ZM398.48 415.012C399.197 414.749 399.337 415.13 399.477 415.511L399.617 415.892C399.337 415.13 399.197 414.749 398.48 415.012ZM459.846 307.203C460.564 306.94 460.564 306.94 459.846 307.203ZM466.898 302.015C467.616 301.751 467.616 301.751 466.898 302.015ZM475.392 258.646C476.967 258.5 478.402 257.973 479.697 257.064C478.262 257.591 476.827 258.119 475.392 258.646ZM395.623 340.761C396.2 340.116 396.341 340.497 395.623 340.761C396.341 340.497 396.341 340.497 395.623 340.761ZM439.433 227.287C440.151 227.024 440.151 227.024 439.433 227.287ZM276.632 424.741C278.067 424.214 279.065 424.713 279.205 425.094C279.906 427 282.916 426.327 285.349 426.298C286.066 426.034 286.206 426.416 286.924 426.152C287.782 426.269 288.639 426.387 289.497 426.504C289.497 426.504 289.497 426.504 289.637 426.886C285.786 425.272 281.498 424.684 276.632 424.741ZM405.55 536.184C405.13 535.04 402.977 535.831 401.979 535.333C402.977 535.831 403.975 536.33 405.55 536.184ZM426.503 546.659C425.786 546.923 425.786 546.923 426.503 546.659ZM489.335 544.772C490.053 544.508 490.053 544.508 490.193 544.889C490.053 544.508 489.335 544.772 489.335 544.772ZM479.761 543.097C479.901 543.479 480.619 543.215 480.759 543.596C480.042 543.86 479.901 543.479 479.761 543.097ZM448.988 525.845C448.41 526.49 448.41 526.49 448.988 525.845ZM432.951 324.878C433.668 324.615 433.668 324.615 432.951 324.878C432.951 324.878 433.528 324.233 433.668 324.615C433.668 324.615 433.668 324.615 432.951 324.878ZM253.717 408.928C253.577 408.547 253.577 408.547 253.437 408.166C254.295 408.283 254.435 408.665 253.717 408.928C254.435 408.665 254.435 408.665 253.717 408.928ZM272.668 456.059C272.528 455.678 271.67 455.56 271.67 455.56C272.528 455.678 272.528 455.678 272.668 456.059ZM429.333 587.597C428.475 587.48 428.475 587.48 429.333 587.597C429.193 587.216 428.475 587.48 429.333 587.597ZM488.513 484.92C488.653 485.301 488.653 485.301 488.513 484.92ZM410.005 386.541C409.148 386.424 409.148 386.424 410.005 386.541C409.865 386.16 409.865 386.16 410.005 386.541ZM421.727 369.683C422.585 369.801 421.867 370.064 421.727 369.683ZM397.259 369.588C396.979 368.825 396.698 368.063 395.123 368.209C395.701 367.564 395.701 367.564 396.418 367.3C396.698 368.063 396.979 368.825 397.259 369.588ZM402.871 347.185C403.011 347.567 403.868 347.684 404.586 347.421C403.151 347.948 402.433 348.212 402.871 347.185ZM485.537 297.329C486.254 297.065 486.254 297.065 486.972 296.801C486.254 297.065 486.394 297.446 485.537 297.329ZM491.257 224.253C491.834 223.608 492.551 223.344 493.129 222.699C492.411 222.963 491.834 223.608 491.257 224.253ZM441.491 201.864C442.209 201.6 442.209 201.6 442.926 201.336C442.069 201.219 442.209 201.6 441.491 201.864ZM431.765 219.719C431.905 220.101 431.188 220.364 431.328 220.746C431.188 220.364 431.765 219.719 431.765 219.719ZM328.975 281.3L329.115 281.681C329.115 281.681 328.398 281.945 328.258 281.564C328.398 281.945 328.398 281.945 328.975 281.3ZM242.203 417.488C243.919 417.723 245.634 417.958 247.349 418.193C245.634 417.958 244.496 417.078 242.203 417.488C241.346 417.37 241.486 417.751 242.203 417.488ZM499.131 462.841C499.848 462.578 501.423 462.432 502.858 461.904C501.423 462.432 499.411 463.604 499.131 462.841ZM455.376 403.622C455.236 403.241 455.236 403.241 455.376 403.622ZM524.927 273.763C525.068 274.144 525.208 274.526 524.63 275.171C525.208 274.526 525.925 274.262 524.927 273.763ZM490.836 223.109L490.696 222.728C490.696 222.728 490.696 222.728 490.836 223.109ZM455.791 203.099L455.651 202.718C455.651 202.718 455.651 202.718 455.791 203.099ZM314.709 275.724C314.849 276.105 314.849 276.105 314.709 275.724ZM268.091 363.831L267.374 364.095C268.091 363.831 268.091 363.831 268.091 363.831ZM370.324 557.786C370.184 557.405 369.467 557.668 370.324 557.786ZM497.329 528.851C497.47 529.232 497.47 529.232 497.329 528.851ZM503.419 463.429L503.279 463.048C503.419 463.429 503.419 463.429 503.419 463.429ZM507.977 429.297C508.695 429.033 508.695 429.033 509.412 428.769C508.117 429.678 507.4 429.942 506.963 430.968C507.54 430.323 507.26 429.56 507.977 429.297ZM404.608 362.992C403.75 362.874 403.75 362.874 403.61 362.493C403.75 362.874 404.468 362.611 404.608 362.992ZM456.875 321.278C457.015 321.66 457.015 321.66 456.875 321.278C456.438 322.305 456.438 322.305 456.718 323.067C456.578 322.686 456.438 322.305 456.875 321.278ZM538.28 267.99C538.14 267.609 538.14 267.609 538.28 267.99ZM328.454 293.176C328.313 292.795 326.878 293.323 326.738 292.941C327.456 292.678 328.313 292.795 328.454 293.176ZM281.008 487.615C281.726 487.351 282.443 487.087 282.583 487.469C282.583 487.469 283.301 487.205 283.441 487.586C282.583 487.469 281.726 487.351 281.008 487.615ZM292.735 488.498C292.595 488.117 291.877 488.38 291.737 487.999C292.595 488.117 292.595 488.117 292.735 488.498ZM374.959 605.851C374.241 606.114 374.101 605.733 373.384 605.997C374.101 605.733 373.384 605.997 373.961 605.352C374.101 605.733 374.819 605.469 374.959 605.851ZM504.532 559.527L505.249 559.263L505.389 559.644C505.249 559.263 504.532 559.527 504.532 559.527ZM511.305 498.181C512.022 497.918 512.88 498.035 513.598 497.771C512.163 498.299 511.445 498.563 511.305 498.181ZM510.863 481.466L511.003 481.847C511.003 481.847 511.143 482.229 510.425 482.492C510.565 482.874 509.848 483.137 509.848 483.137C510.425 482.492 511.003 481.847 510.863 481.466ZM503.704 298.008C504.562 298.126 504.702 298.507 505.56 298.625C504.702 298.507 503.267 299.035 503.704 298.008ZM509.664 267.688C510.241 267.044 510.241 267.044 509.664 267.688C510.381 267.425 510.381 267.425 509.664 267.688ZM504.798 267.746C504.798 267.746 505.516 267.482 505.656 267.863C505.516 267.482 505.516 267.482 504.798 267.746ZM388.644 171.086C387.926 171.35 387.926 171.35 387.068 171.232C387.786 170.969 388.503 170.705 388.644 171.086ZM349.64 200.135C350.497 200.253 349.78 200.517 349.202 201.162C349.92 200.898 350.497 200.253 349.64 200.135ZM294.81 276.979C293.235 277.125 292.237 276.627 290.802 277.154C291.379 276.509 291.239 276.128 291.957 275.864C292.097 276.245 293.094 276.744 294.81 276.979ZM306.261 294.841C306.979 294.578 307.416 293.551 308.134 293.288C307.556 293.933 306.979 294.578 306.261 294.841C307.119 294.959 306.401 295.223 306.261 294.841ZM311.02 290.063C311.878 290.18 312.736 290.298 313.734 290.797C312.736 290.298 312.455 289.535 311.02 290.063ZM267.424 357.585C267.284 357.204 266.286 356.705 264.992 357.613C266.427 357.086 267.284 357.204 267.424 357.585ZM239.722 368.632C239.862 369.013 239.144 369.277 239.722 368.632ZM202.576 471.433C202.436 471.052 202.436 471.052 202.576 471.433ZM500.914 454.396C500.196 454.66 500.196 454.66 499.479 454.924C498.901 455.569 497.903 455.07 497.763 454.689C497.623 454.308 496.766 454.19 495.768 453.691C497.623 454.308 499.198 454.161 500.914 454.396ZM474.06 374.684C473.202 374.566 472.625 375.211 472.485 374.83C472.485 374.83 473.342 374.948 474.06 374.684ZM447.893 372.183C448.471 371.539 449.188 371.275 450.046 371.392L450.904 371.51C450.186 371.774 449.329 371.656 447.893 372.183ZM419.137 187.576C419.714 186.931 418.997 187.194 419.137 187.576ZM426.24 175.877C426.24 175.877 426.957 175.614 427.097 175.995C426.38 176.259 426.38 176.259 426.24 175.877ZM438.157 170.632C438.297 171.013 437.72 171.658 437.002 171.922C437.72 171.658 437.58 171.277 438.157 170.632ZM391.407 165.31C390.69 165.574 390.69 165.574 391.407 165.31ZM340.889 202.919C340.172 203.182 340.172 203.182 340.889 202.919ZM297.013 269.678C297.73 269.414 297.73 269.414 297.013 269.678ZM219.226 428.096L219.366 428.478C219.226 428.096 218.509 428.36 217.651 428.243C218.368 427.979 218.368 427.979 219.226 428.096ZM333.414 501.677C333.554 502.058 333.554 502.058 333.414 501.677ZM357.823 601.33C357.683 600.948 356.965 601.212 356.108 601.094C356.965 601.212 356.965 601.212 357.823 601.33ZM368.803 624.558C369.521 624.294 369.521 624.294 368.803 624.558ZM470.866 343.833C471.443 343.188 471.163 342.426 470.883 341.663C471.163 342.426 470.585 343.071 470.866 343.833ZM471.735 324.039C471.595 323.658 470.878 323.922 470.02 323.804C470.878 323.922 470.878 323.922 471.735 324.039ZM559.144 271.574C559.861 271.31 559.861 271.31 559.144 271.574ZM456.588 174.244C457.305 173.98 457.883 173.335 457.743 172.954C457.305 173.98 457.305 173.98 456.588 174.244ZM370.785 149.087C369.927 148.97 369.07 148.852 368.93 148.471C369.787 148.589 369.927 148.97 370.785 149.087ZM338.73 241.363C338.59 240.981 339.448 241.099 338.73 241.363ZM297.881 305.279L298.021 305.66C298.021 305.66 298.021 305.66 297.881 305.279ZM254.364 344.209L254.504 344.59C254.364 344.209 253.506 344.091 253.506 344.091C254.364 344.209 254.364 344.209 254.364 344.209ZM241.035 494.084C239.46 494.23 239.32 493.848 239.18 493.467C240.037 493.585 240.177 493.966 241.035 494.084ZM303.334 523.984C302.616 524.248 302.616 524.248 302.616 524.248L303.334 523.984ZM393.883 619.668C395.318 619.141 395.318 619.141 396.753 618.613C396.175 619.258 397.033 619.376 396.455 620.021C395.598 619.903 395.458 619.522 393.883 619.668ZM543.787 553.322C544.505 553.058 544.505 553.058 543.787 553.322ZM576.278 515.414C576.995 515.151 577.713 514.887 577.853 515.268C577.136 515.532 577.136 515.532 576.278 515.414ZM542.239 402.856C542.099 402.475 542.099 402.475 542.239 402.856ZM503.152 387.361C502.592 385.836 501.454 384.956 500.176 383.694C500.159 385.864 500.579 387.008 503.152 387.361ZM481.926 338.47C482.643 338.206 482.643 338.206 482.643 338.206C481.926 338.47 481.926 338.47 481.926 338.47ZM572.675 279.584L573.533 279.701C573.393 279.32 572.675 279.584 572.675 279.584ZM559.615 266.208C559.755 266.589 559.755 266.589 559.615 266.208ZM325.244 209.102C325.384 209.483 325.384 209.483 325.244 209.102ZM368.597 209.613C368.597 209.613 367.88 209.877 367.739 209.495C367.88 209.877 367.88 209.877 368.597 209.613ZM273.443 595.557C274.161 595.293 274.301 595.674 274.301 595.674C273.583 595.938 273.443 595.557 273.443 595.557ZM415.324 622.607C415.464 622.988 414.746 623.252 415.324 622.607C414.746 623.252 414.746 623.252 415.324 622.607ZM556.665 295.854C557.383 295.59 557.383 295.59 556.665 295.854ZM340.636 235.469C339.919 235.733 339.919 235.733 340.636 235.469C339.778 235.352 339.919 235.733 340.636 235.469ZM269.165 262.603L269.742 261.958C269.882 262.339 270.74 262.456 270.163 263.101C270.163 263.101 269.305 262.984 269.165 262.603ZM147.61 437.107C148.327 436.844 148.327 436.844 147.61 437.107C148.327 436.844 148.467 437.225 147.61 437.107ZM152.128 444.968C152.845 444.704 152.985 445.085 153.703 444.821C153.703 444.821 152.845 444.704 152.128 444.968ZM164.862 481.833C164.722 481.451 164.722 481.451 164.862 481.833ZM228.349 506.103C227.492 505.985 227.632 506.367 228.349 506.103C228.209 505.722 227.492 505.985 228.349 506.103ZM274.174 519.987L273.597 520.632C273.597 520.632 273.597 520.632 274.174 519.987ZM274.157 522.157C274.297 522.538 274.297 522.538 274.157 522.157ZM235.163 586.689L234.446 586.953C234.586 587.334 235.304 587.071 235.163 586.689ZM326.409 611.144C326.409 611.144 327.127 610.88 327.267 611.262C327.127 610.88 327.127 610.88 326.409 611.144ZM431.916 623.433C432.056 623.814 432.056 623.814 431.916 623.433C431.198 623.697 432.056 623.814 431.916 623.433C431.198 623.697 431.198 623.697 431.916 623.433ZM472.152 619.897C470.857 620.805 468.705 621.597 468.268 622.623C469.703 622.095 470.857 620.805 472.152 619.897ZM563.91 596.992C563.77 596.611 562.054 596.376 561.197 596.258C561.914 595.994 562.054 596.376 562.772 596.112C563.489 595.848 563.77 596.611 563.91 596.992ZM586.306 513.892C586.306 513.892 587.024 513.629 587.164 514.01C587.164 514.01 587.164 514.01 586.306 513.892ZM552.997 381.159C553.434 380.132 555.149 380.368 555.867 380.104C554.432 380.631 553.714 380.895 552.997 381.159C553.137 381.54 553.137 381.54 552.997 381.159ZM590.299 276.568C589.301 276.07 587.866 276.597 587.149 276.861C587.866 276.597 589.441 276.451 590.299 276.568ZM545.904 244.415C545.904 244.415 545.764 244.034 545.624 243.653C545.764 244.034 545.904 244.415 546.762 244.533C546.044 244.797 546.622 244.152 545.904 244.415ZM462.255 163.073C460.68 163.219 459.245 163.747 457.95 164.655C459.666 164.89 460.961 163.982 462.255 163.073ZM396.038 140.239L395.898 139.857C395.898 139.857 395.898 139.857 396.038 140.239ZM336.377 212.8L335.519 212.682C334.801 212.946 334.661 212.565 335.379 212.301C335.519 212.682 335.519 212.682 336.236 212.418C335.519 212.682 336.236 212.418 336.377 212.8ZM355.278 211.046C356.713 210.518 357.431 210.255 358.429 210.754C356.854 210.9 356.573 210.137 355.278 211.046ZM253.44 297.377C253.3 296.996 253.3 296.996 253.44 297.377ZM254.948 305.911C254.09 305.793 254.231 306.175 254.948 305.911ZM176.872 372.689C176.732 372.308 176.732 372.308 176.872 372.689ZM193.173 392.664C193.033 392.283 193.033 392.283 193.173 392.664ZM123.26 421.822L123.977 421.558C123.26 421.822 123.26 421.822 123.26 421.822ZM148.293 441.184C146.858 441.711 146.421 442.737 146.561 443.118C147.139 442.474 147.716 441.829 148.293 441.184ZM167.671 451.805C167.531 451.424 167.531 451.424 168.966 450.896C168.966 450.896 169.106 451.277 169.824 451.014C169.106 451.277 168.389 451.541 167.671 451.805ZM151.459 494.116C153.174 494.351 154.312 495.231 154.592 495.993C154.312 495.231 153.892 494.087 151.459 494.116ZM156.291 498.398L155.713 499.043C155.713 499.043 155.713 499.043 156.291 498.398ZM220.989 532.61C220.411 533.255 220.271 532.874 220.271 532.874L220.989 532.61ZM414.712 627.592C413.995 627.856 414.135 628.237 414.275 628.618C414.135 628.237 414.712 627.592 414.712 627.592ZM569.159 529.283C571.591 529.254 573.447 529.871 576.02 530.223C574.742 528.962 571.591 529.254 569.159 529.283ZM592.568 499.906C592.568 499.906 593.145 499.261 593.286 499.643C594.143 499.76 593.426 500.024 593.566 500.405C593.426 500.024 592.708 500.288 592.568 499.906ZM569.272 496.351C568.554 496.615 567.977 497.26 567.259 497.524C567.837 496.879 567.837 496.879 568.414 496.234C568.414 496.234 568.414 496.234 569.272 496.351ZM605.228 399.18C605.368 399.561 606.226 399.678 607.084 399.796C606.226 399.678 605.946 398.916 605.228 399.18ZM557.722 380.72C557.582 380.339 557.442 379.958 558.019 379.313C558.159 379.694 557.582 380.339 557.722 380.72ZM603.359 289.944C602.642 290.208 602.642 290.208 603.359 289.944ZM562.687 239.113C562.547 238.731 563.124 238.086 563.124 238.086C563.265 238.468 563.405 238.849 564.262 238.966C563.405 238.849 562.687 239.113 562.687 239.113ZM391.487 136.718C391.346 136.337 391.346 136.337 391.487 136.718ZM303.894 157.66L303.177 157.923C303.894 157.66 303.894 157.66 303.894 157.66ZM316.999 202.178C316.281 202.442 316.281 202.442 316.999 202.178C316.281 202.442 316.421 202.823 316.421 202.823C316.421 202.823 317.139 202.56 316.999 202.178ZM308.355 209.683C307.637 209.947 307.637 209.947 308.355 209.683ZM354.561 211.31C355.278 211.046 355.278 211.046 354.561 211.31ZM338.394 229.369C337.817 230.014 337.817 230.014 337.239 230.659C337.099 230.278 337.817 230.014 337.676 229.633C337.676 229.633 337.676 229.633 338.394 229.369ZM176.401 378.056C175.684 378.319 175.684 378.319 176.401 378.056C175.544 377.938 175.684 378.319 176.401 378.056ZM190.757 390.523C190.039 390.787 190.039 390.787 190.757 390.523ZM248.18 568.922C248.32 569.304 248.32 569.304 248.18 568.922C247.603 569.567 247.603 569.567 248.18 568.922C247.462 569.186 247.462 569.186 248.18 568.922ZM571.365 595.117C573.518 594.326 574.095 593.681 573.675 592.538C572.38 593.446 571.802 594.091 571.365 595.117ZM568.569 549.839L568.429 549.458C569.287 549.576 568.569 549.839 568.569 549.839ZM555.615 357.26C555.615 357.26 554.898 357.524 554.757 357.142C554.757 357.142 555.475 356.879 555.335 356.497C555.475 356.879 555.475 356.879 555.615 357.26ZM531.422 340.186C531.562 340.567 531.562 340.567 531.422 340.186ZM566.29 291.018C566.867 290.373 566.867 290.373 566.29 291.018C566.867 290.373 567.007 290.755 566.29 291.018C567.007 290.755 567.007 290.755 566.29 291.018ZM488.074 173.491C487.934 173.11 487.934 173.11 488.074 173.491C488.652 172.846 488.792 173.227 488.074 173.491C488.792 173.227 488.792 173.227 488.074 173.491ZM334.215 122.714C334.933 122.45 334.933 122.45 334.215 122.714ZM317.589 126.228C318.307 125.964 318.307 125.964 317.589 126.228ZM233.502 285.231C232.925 285.876 232.925 285.876 232.067 285.758C232.784 285.494 232.784 285.494 233.502 285.231ZM124.712 419.124C123.994 419.388 124.134 419.769 124.712 419.124ZM211.707 511.787L211.847 512.168C211.707 511.787 210.131 511.933 209.991 511.552C210.131 511.933 210.989 512.051 211.707 511.787ZM266.545 525.821C267.262 525.557 267.543 526.319 268.26 526.056C267.683 526.701 268.54 526.818 267.963 527.463C267.543 526.319 266.685 526.202 266.545 525.821ZM241.923 600.65L241.206 600.914C241.066 600.532 241.923 600.65 241.923 600.65ZM591.378 560.931L592.095 560.667C591.378 560.931 591.518 561.312 591.378 560.931ZM590.319 531.459C590.179 531.078 590.179 531.078 590.319 531.459ZM556.154 343.213C556.154 343.213 556.871 342.95 556.731 342.568L556.871 342.95C556.154 343.213 556.154 343.213 556.154 343.213ZM501.903 180.093C501.763 179.712 501.185 180.357 501.903 180.093C502.62 179.829 503.478 179.947 503.478 179.947C502.76 180.211 502.043 180.474 501.903 180.093ZM489.509 172.964C489.369 172.582 489.369 172.582 489.509 172.964ZM301.943 187.805C303.518 187.659 303.518 187.659 304.375 187.776C304.375 187.776 304.375 187.776 303.658 188.04C303.518 187.659 302.66 187.541 301.943 187.805ZM210.905 338.976C210.764 338.595 210.764 338.595 210.764 338.595C210.047 338.859 210.047 338.859 210.905 338.976ZM165.33 403.33C164.612 403.594 164.035 404.239 163.317 404.503C163.895 403.858 164.612 403.594 165.19 402.949C164.472 403.213 165.19 402.949 165.33 403.33ZM149.757 418.575C149.617 418.193 148.9 418.457 148.759 418.076C149.617 418.193 149.617 418.193 149.757 418.575ZM239.149 570.943C240.444 570.034 241.442 570.533 241.582 570.915C240.725 570.797 239.29 571.324 239.149 570.943C238.432 571.207 238.432 571.207 239.149 570.943ZM301.487 614.245C301.627 614.626 301.627 614.626 301.487 614.245ZM435.716 631.557C436.434 631.293 436.434 631.293 435.716 631.557ZM507.388 633.778C505.813 633.924 505.953 634.305 505.236 634.569C505.236 634.569 505.953 634.305 505.813 633.924C506.671 634.041 507.388 633.778 507.388 633.778ZM543.039 631.061L542.322 631.325C543.039 631.061 543.039 631.061 543.039 631.061ZM560.349 631.623C558.914 632.151 559.054 632.532 558.477 633.177C559.054 632.532 559.632 631.887 560.349 631.623ZM626.06 535.634C626.777 535.37 627.495 535.106 628.212 534.843L628.93 534.579C627.495 535.106 626.777 535.37 626.06 535.634C626.2 536.015 626.2 536.015 626.06 535.634ZM587.82 300.849C587.68 300.467 587.68 300.467 587.82 300.849C588.398 300.204 587.68 300.467 587.82 300.849ZM621.348 276.842C620.49 276.724 620.49 276.724 621.348 276.842ZM265.221 180.961L266.079 181.079C266.079 181.079 266.079 181.079 265.221 180.961ZM218.08 336.339C217.502 336.984 217.362 336.603 217.362 336.603C217.362 336.603 218.08 336.339 218.08 336.339ZM138.189 360.508C137.472 360.772 137.472 360.772 138.189 360.508ZM140.497 413.323C140.637 413.704 141.495 413.822 141.495 413.822C141.355 413.44 141.215 413.059 140.497 413.323ZM142.266 480.184C141.409 480.066 141.409 480.066 142.266 480.184C142.126 479.802 141.409 480.066 142.266 480.184ZM221.856 568.211C221.856 568.211 221.716 567.83 220.999 568.093C221.716 567.83 221.716 567.83 221.856 568.211ZM486.384 629.813C486.244 629.431 486.244 629.431 486.384 629.813C487.96 629.667 488.537 629.022 490.112 628.875C490.112 628.875 490.83 628.612 490.97 628.993C489.255 628.758 487.679 628.904 486.384 629.813C485.667 630.076 487.96 629.667 486.384 629.813ZM507.231 635.567C507.371 635.948 507.371 635.948 507.231 635.567ZM607.263 597.503C607.123 597.122 607.123 597.122 607.263 597.503ZM617.955 529.092C617.237 529.356 617.237 529.356 617.955 529.092C617.097 528.974 617.237 529.356 617.955 529.092C617.097 528.974 617.097 528.974 617.955 529.092ZM665.086 522.156C665.226 522.537 666.084 522.655 666.941 522.772C666.084 522.655 665.803 521.892 665.086 522.156ZM673.242 522.188C673.242 522.188 673.959 521.924 673.819 521.543C673.819 521.543 673.819 521.543 673.959 521.924C673.819 521.543 673.242 522.188 673.242 522.188ZM663.247 519.37L662.39 519.252C663.107 518.988 663.825 518.725 664.682 518.842C663.965 519.106 663.387 519.751 663.247 519.37ZM602.995 483.957C604.71 484.192 606.863 483.401 608.298 482.873C606.582 482.638 605.007 482.784 602.995 483.957ZM581.089 448.731C580.949 448.35 581.527 447.705 581.527 447.705C581.527 447.705 581.667 448.086 581.089 448.731ZM571.014 345.974C570.874 345.593 570.874 345.593 570.874 345.593C570.874 345.593 571.014 345.974 571.014 345.974ZM551.703 326.673C551.703 326.673 550.986 326.937 550.846 326.555C551.563 326.292 551.563 326.292 551.703 326.673ZM545.56 325.469C545.42 325.088 546.277 325.205 546.137 324.824C546.277 325.205 546.417 325.586 547.275 325.704C546.417 325.586 546.277 325.205 545.56 325.469ZM574.871 309.935C575.012 310.317 575.012 310.317 574.871 309.935ZM632.413 289.22C633.13 288.956 633.27 289.338 633.988 289.074C633.988 289.074 633.27 289.338 633.41 289.719C633.988 289.074 633.13 288.956 632.413 289.22ZM586.191 234.369C586.909 234.105 586.909 234.105 587.626 233.842C586.769 233.724 586.051 233.988 586.191 234.369ZM138.907 360.244L140.342 359.717C140.342 359.717 139.624 359.981 138.907 360.244ZM143.872 402.562C143.294 403.207 143.294 403.207 143.872 402.562C143.154 402.825 143.294 403.207 143.872 402.562ZM146.742 401.507C146.882 401.888 146.165 402.152 146.742 401.507C146.165 402.152 146.165 402.152 146.742 401.507C146.024 401.77 146.024 401.77 146.742 401.507ZM623.311 594.634C624.029 594.371 624.029 594.371 623.311 594.634ZM634.248 586.72L633.531 586.984C633.531 586.984 633.531 586.984 634.248 586.72ZM615.083 585.541C614.085 585.042 613.227 584.925 611.652 585.071C613.227 584.925 613.508 585.687 615.083 585.541ZM615.667 547.243C616.384 546.98 616.384 546.98 615.667 547.243ZM700.187 553.397C699.906 552.635 698.191 552.4 697.193 551.901C697.614 553.045 698.612 553.543 700.187 553.397ZM633.196 519.595L633.336 519.977C632.479 519.859 632.619 520.24 631.761 520.123C632.479 519.859 633.196 519.595 633.196 519.595ZM678.124 519.961C677.267 519.843 677.127 519.462 676.269 519.344C676.549 520.107 677.267 519.843 678.124 519.961ZM575.994 441.516C575.854 441.135 575.854 441.135 575.994 441.516ZM550.375 331.922C549.657 332.185 549.657 332.185 550.375 331.922C550.235 331.54 549.517 331.804 550.375 331.922C550.235 331.54 550.235 331.54 550.375 331.922ZM581.716 313.046C582.433 312.782 582.433 312.782 581.716 313.046ZM227.804 189.953C226.229 190.099 224.076 190.89 222.641 191.418C224.514 189.864 226.666 189.073 227.804 189.953ZM251.379 249.665L250.521 249.547L251.239 249.284C251.379 249.665 251.379 249.665 251.379 249.665ZM101.297 430.759C101.437 431.141 101.437 431.141 101.297 430.759ZM198.145 581.253L197.427 581.517C197.427 581.517 197.427 581.517 198.145 581.253ZM300.741 636.59C299.883 636.473 299.883 636.473 299.743 636.091C300.601 636.209 300.741 636.59 300.741 636.59ZM385.597 654.738C386.314 654.474 387.032 654.211 387.032 654.211C386.314 654.474 385.597 654.738 385.597 654.738C385.737 655.119 385.737 655.119 385.597 654.738ZM396.606 655.885C397.463 656.003 396.746 656.266 396.606 655.885ZM412.671 650.846L411.954 651.11C411.954 651.11 411.954 651.11 412.671 650.846ZM498.044 639.376C498.761 639.112 498.901 639.494 499.759 639.611C498.761 639.112 498.621 638.731 498.044 639.376Z" fill="#65C0C8"/>
</g>
</mask>
<g mask="url(#mask0_2283_1253)">
<rect x="56" y="103" width="685" height="685" fill="black"/>
</g>
<defs>
<clipPath id="clip0_2283_1253">
<rect width="599.142" height="603.908" fill="white" transform="translate(206.688 770.694) rotate(-110.18)"/>
</clipPath>
</defs>
</svg>
